<?xml version="1.0" encoding="utf-8" standalone="no"?>
<!DOCTYPE svg PUBLIC "-//W3C//DTD SVG 1.1//EN"
  "http://www.w3.org/Graphics/SVG/1.1/DTD/svg11.dtd">
<!-- Created with matplotlib (https://matplotlib.org/) -->
<svg height="345.6pt" version="1.1" viewBox="0 0 460.8 345.6" width="460.8pt" xmlns="http://www.w3.org/2000/svg" xmlns:xlink="http://www.w3.org/1999/xlink">
 <defs>
  <style type="text/css">
*{stroke-linecap:butt;stroke-linejoin:round;}
  </style>
 </defs>
 <g id="figure_1">
  <g id="patch_1">
   <path d="M 0 345.6 
L 460.8 345.6 
L 460.8 0 
L 0 0 
z
" style="fill:#ffffff;"/>
  </g>
  <g id="axes_1">
   <g id="patch_2">
    <path d="M 79.85 296.44 
L 447.48 296.44 
L 447.48 13.32 
L 79.85 13.32 
z
" style="fill:#ffffff;"/>
   </g>
   <g id="matplotlib.axis_1">
    <g id="xtick_1">
     <g id="line2d_1">
      <path clip-path="url(#pb0bb1e6d10)" d="M 89.182933 296.44 
L 89.182933 13.32 
" style="fill:none;stroke:#b0b0b0;stroke-linecap:square;stroke-width:0.8;"/>
     </g>
     <g id="line2d_2">
      <defs>
       <path d="M 0 0 
L 0 3.5 
" id="m1d622c8197" style="stroke:#000000;stroke-width:0.8;"/>
      </defs>
      <g>
       <use style="stroke:#000000;stroke-width:0.8;" x="89.182933" xlink:href="#m1d622c8197" y="296.44"/>
      </g>
     </g>
     <g id="text_1">
      <!-- 0 -->
      <defs>
       <path d="M 31.78125 66.40625 
Q 24.171875 66.40625 20.328125 58.90625 
Q 16.5 51.421875 16.5 36.375 
Q 16.5 21.390625 20.328125 13.890625 
Q 24.171875 6.390625 31.78125 6.390625 
Q 39.453125 6.390625 43.28125 13.890625 
Q 47.125 21.390625 47.125 36.375 
Q 47.125 51.421875 43.28125 58.90625 
Q 39.453125 66.40625 31.78125 66.40625 
z
M 31.78125 74.21875 
Q 44.046875 74.21875 50.515625 64.515625 
Q 56.984375 54.828125 56.984375 36.375 
Q 56.984375 17.96875 50.515625 8.265625 
Q 44.046875 -1.421875 31.78125 -1.421875 
Q 19.53125 -1.421875 13.0625 8.265625 
Q 6.59375 17.96875 6.59375 36.375 
Q 6.59375 54.828125 13.0625 64.515625 
Q 19.53125 74.21875 31.78125 74.21875 
z
" id="DejaVuSans-48"/>
      </defs>
      <g transform="translate(84.729183 314.077812)scale(0.14 -0.14)">
       <use xlink:href="#DejaVuSans-48"/>
      </g>
     </g>
    </g>
    <g id="xtick_2">
     <g id="line2d_3">
      <path clip-path="url(#pb0bb1e6d10)" d="M 162.958146 296.44 
L 162.958146 13.32 
" style="fill:none;stroke:#b0b0b0;stroke-linecap:square;stroke-width:0.8;"/>
     </g>
     <g id="line2d_4">
      <g>
       <use style="stroke:#000000;stroke-width:0.8;" x="162.958146" xlink:href="#m1d622c8197" y="296.44"/>
      </g>
     </g>
     <g id="text_2">
      <!-- 1000 -->
      <defs>
       <path d="M 12.40625 8.296875 
L 28.515625 8.296875 
L 28.515625 63.921875 
L 10.984375 60.40625 
L 10.984375 69.390625 
L 28.421875 72.90625 
L 38.28125 72.90625 
L 38.28125 8.296875 
L 54.390625 8.296875 
L 54.390625 0 
L 12.40625 0 
z
" id="DejaVuSans-49"/>
      </defs>
      <g transform="translate(145.143146 314.077812)scale(0.14 -0.14)">
       <use xlink:href="#DejaVuSans-49"/>
       <use x="63.623047" xlink:href="#DejaVuSans-48"/>
       <use x="127.246094" xlink:href="#DejaVuSans-48"/>
       <use x="190.869141" xlink:href="#DejaVuSans-48"/>
      </g>
     </g>
    </g>
    <g id="xtick_3">
     <g id="line2d_5">
      <path clip-path="url(#pb0bb1e6d10)" d="M 236.733359 296.44 
L 236.733359 13.32 
" style="fill:none;stroke:#b0b0b0;stroke-linecap:square;stroke-width:0.8;"/>
     </g>
     <g id="line2d_6">
      <g>
       <use style="stroke:#000000;stroke-width:0.8;" x="236.733359" xlink:href="#m1d622c8197" y="296.44"/>
      </g>
     </g>
     <g id="text_3">
      <!-- 2000 -->
      <defs>
       <path d="M 19.1875 8.296875 
L 53.609375 8.296875 
L 53.609375 0 
L 7.328125 0 
L 7.328125 8.296875 
Q 12.9375 14.109375 22.625 23.890625 
Q 32.328125 33.6875 34.8125 36.53125 
Q 39.546875 41.84375 41.421875 45.53125 
Q 43.3125 49.21875 43.3125 52.78125 
Q 43.3125 58.59375 39.234375 62.25 
Q 35.15625 65.921875 28.609375 65.921875 
Q 23.96875 65.921875 18.8125 64.3125 
Q 13.671875 62.703125 7.8125 59.421875 
L 7.8125 69.390625 
Q 13.765625 71.78125 18.9375 73 
Q 24.125 74.21875 28.421875 74.21875 
Q 39.75 74.21875 46.484375 68.546875 
Q 53.21875 62.890625 53.21875 53.421875 
Q 53.21875 48.921875 51.53125 44.890625 
Q 49.859375 40.875 45.40625 35.40625 
Q 44.1875 33.984375 37.640625 27.21875 
Q 31.109375 20.453125 19.1875 8.296875 
z
" id="DejaVuSans-50"/>
      </defs>
      <g transform="translate(218.918359 314.077812)scale(0.14 -0.14)">
       <use xlink:href="#DejaVuSans-50"/>
       <use x="63.623047" xlink:href="#DejaVuSans-48"/>
       <use x="127.246094" xlink:href="#DejaVuSans-48"/>
       <use x="190.869141" xlink:href="#DejaVuSans-48"/>
      </g>
     </g>
    </g>
    <g id="xtick_4">
     <g id="line2d_7">
      <path clip-path="url(#pb0bb1e6d10)" d="M 310.508571 296.44 
L 310.508571 13.32 
" style="fill:none;stroke:#b0b0b0;stroke-linecap:square;stroke-width:0.8;"/>
     </g>
     <g id="line2d_8">
      <g>
       <use style="stroke:#000000;stroke-width:0.8;" x="310.508571" xlink:href="#m1d622c8197" y="296.44"/>
      </g>
     </g>
     <g id="text_4">
      <!-- 3000 -->
      <defs>
       <path d="M 40.578125 39.3125 
Q 47.65625 37.796875 51.625 33 
Q 55.609375 28.21875 55.609375 21.1875 
Q 55.609375 10.40625 48.1875 4.484375 
Q 40.765625 -1.421875 27.09375 -1.421875 
Q 22.515625 -1.421875 17.65625 -0.515625 
Q 12.796875 0.390625 7.625 2.203125 
L 7.625 11.71875 
Q 11.71875 9.328125 16.59375 8.109375 
Q 21.484375 6.890625 26.8125 6.890625 
Q 36.078125 6.890625 40.9375 10.546875 
Q 45.796875 14.203125 45.796875 21.1875 
Q 45.796875 27.640625 41.28125 31.265625 
Q 36.765625 34.90625 28.71875 34.90625 
L 20.21875 34.90625 
L 20.21875 43.015625 
L 29.109375 43.015625 
Q 36.375 43.015625 40.234375 45.921875 
Q 44.09375 48.828125 44.09375 54.296875 
Q 44.09375 59.90625 40.109375 62.90625 
Q 36.140625 65.921875 28.71875 65.921875 
Q 24.65625 65.921875 20.015625 65.03125 
Q 15.375 64.15625 9.8125 62.3125 
L 9.8125 71.09375 
Q 15.4375 72.65625 20.34375 73.4375 
Q 25.25 74.21875 29.59375 74.21875 
Q 40.828125 74.21875 47.359375 69.109375 
Q 53.90625 64.015625 53.90625 55.328125 
Q 53.90625 49.265625 50.4375 45.09375 
Q 46.96875 40.921875 40.578125 39.3125 
z
" id="DejaVuSans-51"/>
      </defs>
      <g transform="translate(292.693571 314.077812)scale(0.14 -0.14)">
       <use xlink:href="#DejaVuSans-51"/>
       <use x="63.623047" xlink:href="#DejaVuSans-48"/>
       <use x="127.246094" xlink:href="#DejaVuSans-48"/>
       <use x="190.869141" xlink:href="#DejaVuSans-48"/>
      </g>
     </g>
    </g>
    <g id="xtick_5">
     <g id="line2d_9">
      <path clip-path="url(#pb0bb1e6d10)" d="M 384.283784 296.44 
L 384.283784 13.32 
" style="fill:none;stroke:#b0b0b0;stroke-linecap:square;stroke-width:0.8;"/>
     </g>
     <g id="line2d_10">
      <g>
       <use style="stroke:#000000;stroke-width:0.8;" x="384.283784" xlink:href="#m1d622c8197" y="296.44"/>
      </g>
     </g>
     <g id="text_5">
      <!-- 4000 -->
      <defs>
       <path d="M 37.796875 64.3125 
L 12.890625 25.390625 
L 37.796875 25.390625 
z
M 35.203125 72.90625 
L 47.609375 72.90625 
L 47.609375 25.390625 
L 58.015625 25.390625 
L 58.015625 17.1875 
L 47.609375 17.1875 
L 47.609375 0 
L 37.796875 0 
L 37.796875 17.1875 
L 4.890625 17.1875 
L 4.890625 26.703125 
z
" id="DejaVuSans-52"/>
      </defs>
      <g transform="translate(366.468784 314.077812)scale(0.14 -0.14)">
       <use xlink:href="#DejaVuSans-52"/>
       <use x="63.623047" xlink:href="#DejaVuSans-48"/>
       <use x="127.246094" xlink:href="#DejaVuSans-48"/>
       <use x="190.869141" xlink:href="#DejaVuSans-48"/>
      </g>
     </g>
    </g>
    <g id="text_6">
     <!-- Throughput (QPS serviced) -->
     <defs>
      <path d="M -0.296875 72.90625 
L 61.375 72.90625 
L 61.375 64.59375 
L 35.5 64.59375 
L 35.5 0 
L 25.59375 0 
L 25.59375 64.59375 
L -0.296875 64.59375 
z
" id="DejaVuSans-84"/>
      <path d="M 54.890625 33.015625 
L 54.890625 0 
L 45.90625 0 
L 45.90625 32.71875 
Q 45.90625 40.484375 42.875 44.328125 
Q 39.84375 48.1875 33.796875 48.1875 
Q 26.515625 48.1875 22.3125 43.546875 
Q 18.109375 38.921875 18.109375 30.90625 
L 18.109375 0 
L 9.078125 0 
L 9.078125 75.984375 
L 18.109375 75.984375 
L 18.109375 46.1875 
Q 21.34375 51.125 25.703125 53.5625 
Q 30.078125 56 35.796875 56 
Q 45.21875 56 50.046875 50.171875 
Q 54.890625 44.34375 54.890625 33.015625 
z
" id="DejaVuSans-104"/>
      <path d="M 41.109375 46.296875 
Q 39.59375 47.171875 37.8125 47.578125 
Q 36.03125 48 33.890625 48 
Q 26.265625 48 22.1875 43.046875 
Q 18.109375 38.09375 18.109375 28.8125 
L 18.109375 0 
L 9.078125 0 
L 9.078125 54.6875 
L 18.109375 54.6875 
L 18.109375 46.1875 
Q 20.953125 51.171875 25.484375 53.578125 
Q 30.03125 56 36.53125 56 
Q 37.453125 56 38.578125 55.875 
Q 39.703125 55.765625 41.0625 55.515625 
z
" id="DejaVuSans-114"/>
      <path d="M 30.609375 48.390625 
Q 23.390625 48.390625 19.1875 42.75 
Q 14.984375 37.109375 14.984375 27.296875 
Q 14.984375 17.484375 19.15625 11.84375 
Q 23.34375 6.203125 30.609375 6.203125 
Q 37.796875 6.203125 41.984375 11.859375 
Q 46.1875 17.53125 46.1875 27.296875 
Q 46.1875 37.015625 41.984375 42.703125 
Q 37.796875 48.390625 30.609375 48.390625 
z
M 30.609375 56 
Q 42.328125 56 49.015625 48.375 
Q 55.71875 40.765625 55.71875 27.296875 
Q 55.71875 13.875 49.015625 6.21875 
Q 42.328125 -1.421875 30.609375 -1.421875 
Q 18.84375 -1.421875 12.171875 6.21875 
Q 5.515625 13.875 5.515625 27.296875 
Q 5.515625 40.765625 12.171875 48.375 
Q 18.84375 56 30.609375 56 
z
" id="DejaVuSans-111"/>
      <path d="M 8.5 21.578125 
L 8.5 54.6875 
L 17.484375 54.6875 
L 17.484375 21.921875 
Q 17.484375 14.15625 20.5 10.265625 
Q 23.53125 6.390625 29.59375 6.390625 
Q 36.859375 6.390625 41.078125 11.03125 
Q 45.3125 15.671875 45.3125 23.6875 
L 45.3125 54.6875 
L 54.296875 54.6875 
L 54.296875 0 
L 45.3125 0 
L 45.3125 8.40625 
Q 42.046875 3.421875 37.71875 1 
Q 33.40625 -1.421875 27.6875 -1.421875 
Q 18.265625 -1.421875 13.375 4.4375 
Q 8.5 10.296875 8.5 21.578125 
z
M 31.109375 56 
z
" id="DejaVuSans-117"/>
      <path d="M 45.40625 27.984375 
Q 45.40625 37.75 41.375 43.109375 
Q 37.359375 48.484375 30.078125 48.484375 
Q 22.859375 48.484375 18.828125 43.109375 
Q 14.796875 37.75 14.796875 27.984375 
Q 14.796875 18.265625 18.828125 12.890625 
Q 22.859375 7.515625 30.078125 7.515625 
Q 37.359375 7.515625 41.375 12.890625 
Q 45.40625 18.265625 45.40625 27.984375 
z
M 54.390625 6.78125 
Q 54.390625 -7.171875 48.1875 -13.984375 
Q 42 -20.796875 29.203125 -20.796875 
Q 24.46875 -20.796875 20.265625 -20.09375 
Q 16.0625 -19.390625 12.109375 -17.921875 
L 12.109375 -9.1875 
Q 16.0625 -11.328125 19.921875 -12.34375 
Q 23.78125 -13.375 27.78125 -13.375 
Q 36.625 -13.375 41.015625 -8.765625 
Q 45.40625 -4.15625 45.40625 5.171875 
L 45.40625 9.625 
Q 42.625 4.78125 38.28125 2.390625 
Q 33.9375 0 27.875 0 
Q 17.828125 0 11.671875 7.65625 
Q 5.515625 15.328125 5.515625 27.984375 
Q 5.515625 40.671875 11.671875 48.328125 
Q 17.828125 56 27.875 56 
Q 33.9375 56 38.28125 53.609375 
Q 42.625 51.21875 45.40625 46.390625 
L 45.40625 54.6875 
L 54.390625 54.6875 
z
" id="DejaVuSans-103"/>
      <path d="M 18.109375 8.203125 
L 18.109375 -20.796875 
L 9.078125 -20.796875 
L 9.078125 54.6875 
L 18.109375 54.6875 
L 18.109375 46.390625 
Q 20.953125 51.265625 25.265625 53.625 
Q 29.59375 56 35.59375 56 
Q 45.5625 56 51.78125 48.09375 
Q 58.015625 40.1875 58.015625 27.296875 
Q 58.015625 14.40625 51.78125 6.484375 
Q 45.5625 -1.421875 35.59375 -1.421875 
Q 29.59375 -1.421875 25.265625 0.953125 
Q 20.953125 3.328125 18.109375 8.203125 
z
M 48.6875 27.296875 
Q 48.6875 37.203125 44.609375 42.84375 
Q 40.53125 48.484375 33.40625 48.484375 
Q 26.265625 48.484375 22.1875 42.84375 
Q 18.109375 37.203125 18.109375 27.296875 
Q 18.109375 17.390625 22.1875 11.75 
Q 26.265625 6.109375 33.40625 6.109375 
Q 40.53125 6.109375 44.609375 11.75 
Q 48.6875 17.390625 48.6875 27.296875 
z
" id="DejaVuSans-112"/>
      <path d="M 18.3125 70.21875 
L 18.3125 54.6875 
L 36.8125 54.6875 
L 36.8125 47.703125 
L 18.3125 47.703125 
L 18.3125 18.015625 
Q 18.3125 11.328125 20.140625 9.421875 
Q 21.96875 7.515625 27.59375 7.515625 
L 36.8125 7.515625 
L 36.8125 0 
L 27.59375 0 
Q 17.1875 0 13.234375 3.875 
Q 9.28125 7.765625 9.28125 18.015625 
L 9.28125 47.703125 
L 2.6875 47.703125 
L 2.6875 54.6875 
L 9.28125 54.6875 
L 9.28125 70.21875 
z
" id="DejaVuSans-116"/>
      <path id="DejaVuSans-32"/>
      <path d="M 31 75.875 
Q 24.46875 64.65625 21.28125 53.65625 
Q 18.109375 42.671875 18.109375 31.390625 
Q 18.109375 20.125 21.3125 9.0625 
Q 24.515625 -2 31 -13.1875 
L 23.1875 -13.1875 
Q 15.875 -1.703125 12.234375 9.375 
Q 8.59375 20.453125 8.59375 31.390625 
Q 8.59375 42.28125 12.203125 53.3125 
Q 15.828125 64.359375 23.1875 75.875 
z
" id="DejaVuSans-40"/>
      <path d="M 39.40625 66.21875 
Q 28.65625 66.21875 22.328125 58.203125 
Q 16.015625 50.203125 16.015625 36.375 
Q 16.015625 22.609375 22.328125 14.59375 
Q 28.65625 6.59375 39.40625 6.59375 
Q 50.140625 6.59375 56.421875 14.59375 
Q 62.703125 22.609375 62.703125 36.375 
Q 62.703125 50.203125 56.421875 58.203125 
Q 50.140625 66.21875 39.40625 66.21875 
z
M 53.21875 1.3125 
L 66.21875 -12.890625 
L 54.296875 -12.890625 
L 43.5 -1.21875 
Q 41.890625 -1.3125 41.03125 -1.359375 
Q 40.1875 -1.421875 39.40625 -1.421875 
Q 24.03125 -1.421875 14.8125 8.859375 
Q 5.609375 19.140625 5.609375 36.375 
Q 5.609375 53.65625 14.8125 63.9375 
Q 24.03125 74.21875 39.40625 74.21875 
Q 54.734375 74.21875 63.90625 63.9375 
Q 73.09375 53.65625 73.09375 36.375 
Q 73.09375 23.6875 67.984375 14.640625 
Q 62.890625 5.609375 53.21875 1.3125 
z
" id="DejaVuSans-81"/>
      <path d="M 19.671875 64.796875 
L 19.671875 37.40625 
L 32.078125 37.40625 
Q 38.96875 37.40625 42.71875 40.96875 
Q 46.484375 44.53125 46.484375 51.125 
Q 46.484375 57.671875 42.71875 61.234375 
Q 38.96875 64.796875 32.078125 64.796875 
z
M 9.8125 72.90625 
L 32.078125 72.90625 
Q 44.34375 72.90625 50.609375 67.359375 
Q 56.890625 61.8125 56.890625 51.125 
Q 56.890625 40.328125 50.609375 34.8125 
Q 44.34375 29.296875 32.078125 29.296875 
L 19.671875 29.296875 
L 19.671875 0 
L 9.8125 0 
z
" id="DejaVuSans-80"/>
      <path d="M 53.515625 70.515625 
L 53.515625 60.890625 
Q 47.90625 63.578125 42.921875 64.890625 
Q 37.9375 66.21875 33.296875 66.21875 
Q 25.25 66.21875 20.875 63.09375 
Q 16.5 59.96875 16.5 54.203125 
Q 16.5 49.359375 19.40625 46.890625 
Q 22.3125 44.4375 30.421875 42.921875 
L 36.375 41.703125 
Q 47.40625 39.59375 52.65625 34.296875 
Q 57.90625 29 57.90625 20.125 
Q 57.90625 9.515625 50.796875 4.046875 
Q 43.703125 -1.421875 29.984375 -1.421875 
Q 24.8125 -1.421875 18.96875 -0.25 
Q 13.140625 0.921875 6.890625 3.21875 
L 6.890625 13.375 
Q 12.890625 10.015625 18.65625 8.296875 
Q 24.421875 6.59375 29.984375 6.59375 
Q 38.421875 6.59375 43.015625 9.90625 
Q 47.609375 13.234375 47.609375 19.390625 
Q 47.609375 24.75 44.3125 27.78125 
Q 41.015625 30.8125 33.5 32.328125 
L 27.484375 33.5 
Q 16.453125 35.6875 11.515625 40.375 
Q 6.59375 45.0625 6.59375 53.421875 
Q 6.59375 63.09375 13.40625 68.65625 
Q 20.21875 74.21875 32.171875 74.21875 
Q 37.3125 74.21875 42.625 73.28125 
Q 47.953125 72.359375 53.515625 70.515625 
z
" id="DejaVuSans-83"/>
      <path d="M 44.28125 53.078125 
L 44.28125 44.578125 
Q 40.484375 46.53125 36.375 47.5 
Q 32.28125 48.484375 27.875 48.484375 
Q 21.1875 48.484375 17.84375 46.4375 
Q 14.5 44.390625 14.5 40.28125 
Q 14.5 37.15625 16.890625 35.375 
Q 19.28125 33.59375 26.515625 31.984375 
L 29.59375 31.296875 
Q 39.15625 29.25 43.1875 25.515625 
Q 47.21875 21.78125 47.21875 15.09375 
Q 47.21875 7.46875 41.1875 3.015625 
Q 35.15625 -1.421875 24.609375 -1.421875 
Q 20.21875 -1.421875 15.453125 -0.5625 
Q 10.6875 0.296875 5.421875 2 
L 5.421875 11.28125 
Q 10.40625 8.6875 15.234375 7.390625 
Q 20.0625 6.109375 24.8125 6.109375 
Q 31.15625 6.109375 34.5625 8.28125 
Q 37.984375 10.453125 37.984375 14.40625 
Q 37.984375 18.0625 35.515625 20.015625 
Q 33.0625 21.96875 24.703125 23.78125 
L 21.578125 24.515625 
Q 13.234375 26.265625 9.515625 29.90625 
Q 5.8125 33.546875 5.8125 39.890625 
Q 5.8125 47.609375 11.28125 51.796875 
Q 16.75 56 26.8125 56 
Q 31.78125 56 36.171875 55.265625 
Q 40.578125 54.546875 44.28125 53.078125 
z
" id="DejaVuSans-115"/>
      <path d="M 56.203125 29.59375 
L 56.203125 25.203125 
L 14.890625 25.203125 
Q 15.484375 15.921875 20.484375 11.0625 
Q 25.484375 6.203125 34.421875 6.203125 
Q 39.59375 6.203125 44.453125 7.46875 
Q 49.3125 8.734375 54.109375 11.28125 
L 54.109375 2.78125 
Q 49.265625 0.734375 44.1875 -0.34375 
Q 39.109375 -1.421875 33.890625 -1.421875 
Q 20.796875 -1.421875 13.15625 6.1875 
Q 5.515625 13.8125 5.515625 26.8125 
Q 5.515625 40.234375 12.765625 48.109375 
Q 20.015625 56 32.328125 56 
Q 43.359375 56 49.78125 48.890625 
Q 56.203125 41.796875 56.203125 29.59375 
z
M 47.21875 32.234375 
Q 47.125 39.59375 43.09375 43.984375 
Q 39.0625 48.390625 32.421875 48.390625 
Q 24.90625 48.390625 20.390625 44.140625 
Q 15.875 39.890625 15.1875 32.171875 
z
" id="DejaVuSans-101"/>
      <path d="M 2.984375 54.6875 
L 12.5 54.6875 
L 29.59375 8.796875 
L 46.6875 54.6875 
L 56.203125 54.6875 
L 35.6875 0 
L 23.484375 0 
z
" id="DejaVuSans-118"/>
      <path d="M 9.421875 54.6875 
L 18.40625 54.6875 
L 18.40625 0 
L 9.421875 0 
z
M 9.421875 75.984375 
L 18.40625 75.984375 
L 18.40625 64.59375 
L 9.421875 64.59375 
z
" id="DejaVuSans-105"/>
      <path d="M 48.78125 52.59375 
L 48.78125 44.1875 
Q 44.96875 46.296875 41.140625 47.34375 
Q 37.3125 48.390625 33.40625 48.390625 
Q 24.65625 48.390625 19.8125 42.84375 
Q 14.984375 37.3125 14.984375 27.296875 
Q 14.984375 17.28125 19.8125 11.734375 
Q 24.65625 6.203125 33.40625 6.203125 
Q 37.3125 6.203125 41.140625 7.25 
Q 44.96875 8.296875 48.78125 10.40625 
L 48.78125 2.09375 
Q 45.015625 0.34375 40.984375 -0.53125 
Q 36.96875 -1.421875 32.421875 -1.421875 
Q 20.0625 -1.421875 12.78125 6.34375 
Q 5.515625 14.109375 5.515625 27.296875 
Q 5.515625 40.671875 12.859375 48.328125 
Q 20.21875 56 33.015625 56 
Q 37.15625 56 41.109375 55.140625 
Q 45.0625 54.296875 48.78125 52.59375 
z
" id="DejaVuSans-99"/>
      <path d="M 45.40625 46.390625 
L 45.40625 75.984375 
L 54.390625 75.984375 
L 54.390625 0 
L 45.40625 0 
L 45.40625 8.203125 
Q 42.578125 3.328125 38.25 0.953125 
Q 33.9375 -1.421875 27.875 -1.421875 
Q 17.96875 -1.421875 11.734375 6.484375 
Q 5.515625 14.40625 5.515625 27.296875 
Q 5.515625 40.1875 11.734375 48.09375 
Q 17.96875 56 27.875 56 
Q 33.9375 56 38.25 53.625 
Q 42.578125 51.265625 45.40625 46.390625 
z
M 14.796875 27.296875 
Q 14.796875 17.390625 18.875 11.75 
Q 22.953125 6.109375 30.078125 6.109375 
Q 37.203125 6.109375 41.296875 11.75 
Q 45.40625 17.390625 45.40625 27.296875 
Q 45.40625 37.203125 41.296875 42.84375 
Q 37.203125 48.484375 30.078125 48.484375 
Q 22.953125 48.484375 18.875 42.84375 
Q 14.796875 37.203125 14.796875 27.296875 
z
" id="DejaVuSans-100"/>
      <path d="M 8.015625 75.875 
L 15.828125 75.875 
Q 23.140625 64.359375 26.78125 53.3125 
Q 30.421875 42.28125 30.421875 31.390625 
Q 30.421875 20.453125 26.78125 9.375 
Q 23.140625 -1.703125 15.828125 -13.1875 
L 8.015625 -13.1875 
Q 14.5 -2 17.703125 9.0625 
Q 20.90625 20.125 20.90625 31.390625 
Q 20.90625 42.671875 17.703125 53.65625 
Q 14.5 64.65625 8.015625 75.875 
z
" id="DejaVuSans-41"/>
     </defs>
     <g transform="translate(169.248125 331.627187)scale(0.14 -0.14)">
      <use xlink:href="#DejaVuSans-84"/>
      <use x="61.083984" xlink:href="#DejaVuSans-104"/>
      <use x="124.462891" xlink:href="#DejaVuSans-114"/>
      <use x="165.544922" xlink:href="#DejaVuSans-111"/>
      <use x="226.726562" xlink:href="#DejaVuSans-117"/>
      <use x="290.105469" xlink:href="#DejaVuSans-103"/>
      <use x="353.582031" xlink:href="#DejaVuSans-104"/>
      <use x="416.960938" xlink:href="#DejaVuSans-112"/>
      <use x="480.4375" xlink:href="#DejaVuSans-117"/>
      <use x="543.816406" xlink:href="#DejaVuSans-116"/>
      <use x="583.025391" xlink:href="#DejaVuSans-32"/>
      <use x="614.8125" xlink:href="#DejaVuSans-40"/>
      <use x="653.826172" xlink:href="#DejaVuSans-81"/>
      <use x="732.537109" xlink:href="#DejaVuSans-80"/>
      <use x="792.839844" xlink:href="#DejaVuSans-83"/>
      <use x="856.316406" xlink:href="#DejaVuSans-32"/>
      <use x="888.103516" xlink:href="#DejaVuSans-115"/>
      <use x="940.203125" xlink:href="#DejaVuSans-101"/>
      <use x="1001.726562" xlink:href="#DejaVuSans-114"/>
      <use x="1042.839844" xlink:href="#DejaVuSans-118"/>
      <use x="1102.019531" xlink:href="#DejaVuSans-105"/>
      <use x="1129.802734" xlink:href="#DejaVuSans-99"/>
      <use x="1184.783203" xlink:href="#DejaVuSans-101"/>
      <use x="1246.306641" xlink:href="#DejaVuSans-100"/>
      <use x="1309.783203" xlink:href="#DejaVuSans-41"/>
     </g>
    </g>
   </g>
   <g id="matplotlib.axis_2">
    <g id="ytick_1">
     <g id="line2d_11">
      <path clip-path="url(#pb0bb1e6d10)" d="M 79.85 283.629462 
L 447.48 283.629462 
" style="fill:none;stroke:#b0b0b0;stroke-linecap:square;stroke-width:0.8;"/>
     </g>
     <g id="line2d_12">
      <defs>
       <path d="M 0 0 
L -3.5 0 
" id="mb9fb4fe93c" style="stroke:#000000;stroke-width:0.8;"/>
      </defs>
      <g>
       <use style="stroke:#000000;stroke-width:0.8;" x="79.85" xlink:href="#mb9fb4fe93c" y="283.629462"/>
      </g>
     </g>
     <g id="text_7">
      <!-- 0 -->
      <g transform="translate(63.9425 288.948368)scale(0.14 -0.14)">
       <use xlink:href="#DejaVuSans-48"/>
      </g>
     </g>
    </g>
    <g id="ytick_2">
     <g id="line2d_13">
      <path clip-path="url(#pb0bb1e6d10)" d="M 79.85 230.233952 
L 447.48 230.233952 
" style="fill:none;stroke:#b0b0b0;stroke-linecap:square;stroke-width:0.8;"/>
     </g>
     <g id="line2d_14">
      <g>
       <use style="stroke:#000000;stroke-width:0.8;" x="79.85" xlink:href="#mb9fb4fe93c" y="230.233952"/>
      </g>
     </g>
     <g id="text_8">
      <!-- 5000 -->
      <defs>
       <path d="M 10.796875 72.90625 
L 49.515625 72.90625 
L 49.515625 64.59375 
L 19.828125 64.59375 
L 19.828125 46.734375 
Q 21.96875 47.46875 24.109375 47.828125 
Q 26.265625 48.1875 28.421875 48.1875 
Q 40.625 48.1875 47.75 41.5 
Q 54.890625 34.8125 54.890625 23.390625 
Q 54.890625 11.625 47.5625 5.09375 
Q 40.234375 -1.421875 26.90625 -1.421875 
Q 22.3125 -1.421875 17.546875 -0.640625 
Q 12.796875 0.140625 7.71875 1.703125 
L 7.71875 11.625 
Q 12.109375 9.234375 16.796875 8.0625 
Q 21.484375 6.890625 26.703125 6.890625 
Q 35.15625 6.890625 40.078125 11.328125 
Q 45.015625 15.765625 45.015625 23.390625 
Q 45.015625 31 40.078125 35.4375 
Q 35.15625 39.890625 26.703125 39.890625 
Q 22.75 39.890625 18.8125 39.015625 
Q 14.890625 38.140625 10.796875 36.28125 
z
" id="DejaVuSans-53"/>
      </defs>
      <g transform="translate(37.22 235.552859)scale(0.14 -0.14)">
       <use xlink:href="#DejaVuSans-53"/>
       <use x="63.623047" xlink:href="#DejaVuSans-48"/>
       <use x="127.246094" xlink:href="#DejaVuSans-48"/>
       <use x="190.869141" xlink:href="#DejaVuSans-48"/>
      </g>
     </g>
    </g>
    <g id="ytick_3">
     <g id="line2d_15">
      <path clip-path="url(#pb0bb1e6d10)" d="M 79.85 176.838443 
L 447.48 176.838443 
" style="fill:none;stroke:#b0b0b0;stroke-linecap:square;stroke-width:0.8;"/>
     </g>
     <g id="line2d_16">
      <g>
       <use style="stroke:#000000;stroke-width:0.8;" x="79.85" xlink:href="#mb9fb4fe93c" y="176.838443"/>
      </g>
     </g>
     <g id="text_9">
      <!-- 10000 -->
      <g transform="translate(28.3125 182.15735)scale(0.14 -0.14)">
       <use xlink:href="#DejaVuSans-49"/>
       <use x="63.623047" xlink:href="#DejaVuSans-48"/>
       <use x="127.246094" xlink:href="#DejaVuSans-48"/>
       <use x="190.869141" xlink:href="#DejaVuSans-48"/>
       <use x="254.492188" xlink:href="#DejaVuSans-48"/>
      </g>
     </g>
    </g>
    <g id="ytick_4">
     <g id="line2d_17">
      <path clip-path="url(#pb0bb1e6d10)" d="M 79.85 123.442934 
L 447.48 123.442934 
" style="fill:none;stroke:#b0b0b0;stroke-linecap:square;stroke-width:0.8;"/>
     </g>
     <g id="line2d_18">
      <g>
       <use style="stroke:#000000;stroke-width:0.8;" x="79.85" xlink:href="#mb9fb4fe93c" y="123.442934"/>
      </g>
     </g>
     <g id="text_10">
      <!-- 15000 -->
      <g transform="translate(28.3125 128.76184)scale(0.14 -0.14)">
       <use xlink:href="#DejaVuSans-49"/>
       <use x="63.623047" xlink:href="#DejaVuSans-53"/>
       <use x="127.246094" xlink:href="#DejaVuSans-48"/>
       <use x="190.869141" xlink:href="#DejaVuSans-48"/>
       <use x="254.492188" xlink:href="#DejaVuSans-48"/>
      </g>
     </g>
    </g>
    <g id="ytick_5">
     <g id="line2d_19">
      <path clip-path="url(#pb0bb1e6d10)" d="M 79.85 70.047425 
L 447.48 70.047425 
" style="fill:none;stroke:#b0b0b0;stroke-linecap:square;stroke-width:0.8;"/>
     </g>
     <g id="line2d_20">
      <g>
       <use style="stroke:#000000;stroke-width:0.8;" x="79.85" xlink:href="#mb9fb4fe93c" y="70.047425"/>
      </g>
     </g>
     <g id="text_11">
      <!-- 20000 -->
      <g transform="translate(28.3125 75.366331)scale(0.14 -0.14)">
       <use xlink:href="#DejaVuSans-50"/>
       <use x="63.623047" xlink:href="#DejaVuSans-48"/>
       <use x="127.246094" xlink:href="#DejaVuSans-48"/>
       <use x="190.869141" xlink:href="#DejaVuSans-48"/>
       <use x="254.492188" xlink:href="#DejaVuSans-48"/>
      </g>
     </g>
    </g>
    <g id="ytick_6">
     <g id="line2d_21">
      <path clip-path="url(#pb0bb1e6d10)" d="M 79.85 16.651916 
L 447.48 16.651916 
" style="fill:none;stroke:#b0b0b0;stroke-linecap:square;stroke-width:0.8;"/>
     </g>
     <g id="line2d_22">
      <g>
       <use style="stroke:#000000;stroke-width:0.8;" x="79.85" xlink:href="#mb9fb4fe93c" y="16.651916"/>
      </g>
     </g>
     <g id="text_12">
      <!-- 25000 -->
      <g transform="translate(28.3125 21.970822)scale(0.14 -0.14)">
       <use xlink:href="#DejaVuSans-50"/>
       <use x="63.623047" xlink:href="#DejaVuSans-53"/>
       <use x="127.246094" xlink:href="#DejaVuSans-48"/>
       <use x="190.869141" xlink:href="#DejaVuSans-48"/>
       <use x="254.492188" xlink:href="#DejaVuSans-48"/>
      </g>
     </g>
    </g>
    <g id="text_13">
     <!-- Average request latency (ms) -->
     <defs>
      <path d="M 34.1875 63.1875 
L 20.796875 26.90625 
L 47.609375 26.90625 
z
M 28.609375 72.90625 
L 39.796875 72.90625 
L 67.578125 0 
L 57.328125 0 
L 50.6875 18.703125 
L 17.828125 18.703125 
L 11.1875 0 
L 0.78125 0 
z
" id="DejaVuSans-65"/>
      <path d="M 34.28125 27.484375 
Q 23.390625 27.484375 19.1875 25 
Q 14.984375 22.515625 14.984375 16.5 
Q 14.984375 11.71875 18.140625 8.90625 
Q 21.296875 6.109375 26.703125 6.109375 
Q 34.1875 6.109375 38.703125 11.40625 
Q 43.21875 16.703125 43.21875 25.484375 
L 43.21875 27.484375 
z
M 52.203125 31.203125 
L 52.203125 0 
L 43.21875 0 
L 43.21875 8.296875 
Q 40.140625 3.328125 35.546875 0.953125 
Q 30.953125 -1.421875 24.3125 -1.421875 
Q 15.921875 -1.421875 10.953125 3.296875 
Q 6 8.015625 6 15.921875 
Q 6 25.140625 12.171875 29.828125 
Q 18.359375 34.515625 30.609375 34.515625 
L 43.21875 34.515625 
L 43.21875 35.40625 
Q 43.21875 41.609375 39.140625 45 
Q 35.0625 48.390625 27.6875 48.390625 
Q 23 48.390625 18.546875 47.265625 
Q 14.109375 46.140625 10.015625 43.890625 
L 10.015625 52.203125 
Q 14.9375 54.109375 19.578125 55.046875 
Q 24.21875 56 28.609375 56 
Q 40.484375 56 46.34375 49.84375 
Q 52.203125 43.703125 52.203125 31.203125 
z
" id="DejaVuSans-97"/>
      <path d="M 14.796875 27.296875 
Q 14.796875 17.390625 18.875 11.75 
Q 22.953125 6.109375 30.078125 6.109375 
Q 37.203125 6.109375 41.296875 11.75 
Q 45.40625 17.390625 45.40625 27.296875 
Q 45.40625 37.203125 41.296875 42.84375 
Q 37.203125 48.484375 30.078125 48.484375 
Q 22.953125 48.484375 18.875 42.84375 
Q 14.796875 37.203125 14.796875 27.296875 
z
M 45.40625 8.203125 
Q 42.578125 3.328125 38.25 0.953125 
Q 33.9375 -1.421875 27.875 -1.421875 
Q 17.96875 -1.421875 11.734375 6.484375 
Q 5.515625 14.40625 5.515625 27.296875 
Q 5.515625 40.1875 11.734375 48.09375 
Q 17.96875 56 27.875 56 
Q 33.9375 56 38.25 53.625 
Q 42.578125 51.265625 45.40625 46.390625 
L 45.40625 54.6875 
L 54.390625 54.6875 
L 54.390625 -20.796875 
L 45.40625 -20.796875 
z
" id="DejaVuSans-113"/>
      <path d="M 9.421875 75.984375 
L 18.40625 75.984375 
L 18.40625 0 
L 9.421875 0 
z
" id="DejaVuSans-108"/>
      <path d="M 54.890625 33.015625 
L 54.890625 0 
L 45.90625 0 
L 45.90625 32.71875 
Q 45.90625 40.484375 42.875 44.328125 
Q 39.84375 48.1875 33.796875 48.1875 
Q 26.515625 48.1875 22.3125 43.546875 
Q 18.109375 38.921875 18.109375 30.90625 
L 18.109375 0 
L 9.078125 0 
L 9.078125 54.6875 
L 18.109375 54.6875 
L 18.109375 46.1875 
Q 21.34375 51.125 25.703125 53.5625 
Q 30.078125 56 35.796875 56 
Q 45.21875 56 50.046875 50.171875 
Q 54.890625 44.34375 54.890625 33.015625 
z
" id="DejaVuSans-110"/>
      <path d="M 32.171875 -5.078125 
Q 28.375 -14.84375 24.75 -17.8125 
Q 21.140625 -20.796875 15.09375 -20.796875 
L 7.90625 -20.796875 
L 7.90625 -13.28125 
L 13.1875 -13.28125 
Q 16.890625 -13.28125 18.9375 -11.515625 
Q 21 -9.765625 23.484375 -3.21875 
L 25.09375 0.875 
L 2.984375 54.6875 
L 12.5 54.6875 
L 29.59375 11.921875 
L 46.6875 54.6875 
L 56.203125 54.6875 
z
" id="DejaVuSans-121"/>
      <path d="M 52 44.1875 
Q 55.375 50.25 60.0625 53.125 
Q 64.75 56 71.09375 56 
Q 79.640625 56 84.28125 50.015625 
Q 88.921875 44.046875 88.921875 33.015625 
L 88.921875 0 
L 79.890625 0 
L 79.890625 32.71875 
Q 79.890625 40.578125 77.09375 44.375 
Q 74.3125 48.1875 68.609375 48.1875 
Q 61.625 48.1875 57.5625 43.546875 
Q 53.515625 38.921875 53.515625 30.90625 
L 53.515625 0 
L 44.484375 0 
L 44.484375 32.71875 
Q 44.484375 40.625 41.703125 44.40625 
Q 38.921875 48.1875 33.109375 48.1875 
Q 26.21875 48.1875 22.15625 43.53125 
Q 18.109375 38.875 18.109375 30.90625 
L 18.109375 0 
L 9.078125 0 
L 9.078125 54.6875 
L 18.109375 54.6875 
L 18.109375 46.1875 
Q 21.1875 51.21875 25.484375 53.609375 
Q 29.78125 56 35.6875 56 
Q 41.65625 56 45.828125 52.96875 
Q 50 49.953125 52 44.1875 
z
" id="DejaVuSans-109"/>
     </defs>
     <g transform="translate(21.400937 259.107813)rotate(-90)scale(0.14 -0.14)">
      <use xlink:href="#DejaVuSans-65"/>
      <use x="68.330078" xlink:href="#DejaVuSans-118"/>
      <use x="127.509766" xlink:href="#DejaVuSans-101"/>
      <use x="189.033203" xlink:href="#DejaVuSans-114"/>
      <use x="230.146484" xlink:href="#DejaVuSans-97"/>
      <use x="291.425781" xlink:href="#DejaVuSans-103"/>
      <use x="354.902344" xlink:href="#DejaVuSans-101"/>
      <use x="416.425781" xlink:href="#DejaVuSans-32"/>
      <use x="448.212891" xlink:href="#DejaVuSans-114"/>
      <use x="489.294922" xlink:href="#DejaVuSans-101"/>
      <use x="550.818359" xlink:href="#DejaVuSans-113"/>
      <use x="614.294922" xlink:href="#DejaVuSans-117"/>
      <use x="677.673828" xlink:href="#DejaVuSans-101"/>
      <use x="739.197266" xlink:href="#DejaVuSans-115"/>
      <use x="791.296875" xlink:href="#DejaVuSans-116"/>
      <use x="830.505859" xlink:href="#DejaVuSans-32"/>
      <use x="862.292969" xlink:href="#DejaVuSans-108"/>
      <use x="890.076172" xlink:href="#DejaVuSans-97"/>
      <use x="951.355469" xlink:href="#DejaVuSans-116"/>
      <use x="990.564453" xlink:href="#DejaVuSans-101"/>
      <use x="1052.087891" xlink:href="#DejaVuSans-110"/>
      <use x="1115.466797" xlink:href="#DejaVuSans-99"/>
      <use x="1170.447266" xlink:href="#DejaVuSans-121"/>
      <use x="1229.626953" xlink:href="#DejaVuSans-32"/>
      <use x="1261.414062" xlink:href="#DejaVuSans-40"/>
      <use x="1300.427734" xlink:href="#DejaVuSans-109"/>
      <use x="1397.839844" xlink:href="#DejaVuSans-115"/>
      <use x="1449.939453" xlink:href="#DejaVuSans-41"/>
     </g>
    </g>
   </g>
   <g id="line2d_23">
    <path clip-path="url(#pb0bb1e6d10)" d="M 96.560455 283.537387 
L 111.315497 283.46449 
L 126.07054 283.186385 
L 140.825582 283.256601 
L 155.580625 282.904639 
L 170.335667 282.819655 
L 185.09071 282.742776 
L 199.845752 282.839474 
L 214.600795 282.658635 
L 229.355837 282.538612 
L 244.11088 282.525296 
L 258.865922 282.395802 
L 273.620965 282.391616 
L 288.376007 282.339232 
L 303.13105 281.977053 
L 317.886093 282.139952 
L 332.641135 282.125526 
L 347.396178 282.041479 
L 362.15122 282.152189 
L 376.906263 279.437968 
L 391.661305 276.148931 
L 406.416348 267.068684 
L 417.017846 249.460597 
L 413.690584 248.590922 
L 418.240055 236.709717 
L 417.219498 237.971389 
L 416.061227 227.229941 
L 400.514331 209.730718 
L 368.210624 171.039808 
L 321.909301 135.866392 
" style="fill:none;stroke:#000000;stroke-linecap:square;stroke-width:2;"/>
    <defs>
     <path d="M 0 4 
C 1.060812 4 2.078319 3.578535 2.828427 2.828427 
C 3.578535 2.078319 4 1.060812 4 0 
C 4 -1.060812 3.578535 -2.078319 2.828427 -2.828427 
C 2.078319 -3.578535 1.060812 -4 0 -4 
C -1.060812 -4 -2.078319 -3.578535 -2.828427 -2.828427 
C -3.578535 -2.078319 -4 -1.060812 -4 0 
C -4 1.060812 -3.578535 2.078319 -2.828427 2.828427 
C -2.078319 3.578535 -1.060812 4 0 4 
z
" id="mff6599a2ef" style="stroke:#32a897;"/>
    </defs>
    <g clip-path="url(#pb0bb1e6d10)">
     <use style="fill:#32a897;stroke:#32a897;" x="96.560455" xlink:href="#mff6599a2ef" y="283.537387"/>
     <use style="fill:#32a897;stroke:#32a897;" x="111.315497" xlink:href="#mff6599a2ef" y="283.46449"/>
     <use style="fill:#32a897;stroke:#32a897;" x="126.07054" xlink:href="#mff6599a2ef" y="283.186385"/>
     <use style="fill:#32a897;stroke:#32a897;" x="140.825582" xlink:href="#mff6599a2ef" y="283.256601"/>
     <use style="fill:#32a897;stroke:#32a897;" x="155.580625" xlink:href="#mff6599a2ef" y="282.904639"/>
     <use style="fill:#32a897;stroke:#32a897;" x="170.335667" xlink:href="#mff6599a2ef" y="282.819655"/>
     <use style="fill:#32a897;stroke:#32a897;" x="185.09071" xlink:href="#mff6599a2ef" y="282.742776"/>
     <use style="fill:#32a897;stroke:#32a897;" x="199.845752" xlink:href="#mff6599a2ef" y="282.839474"/>
     <use style="fill:#32a897;stroke:#32a897;" x="214.600795" xlink:href="#mff6599a2ef" y="282.658635"/>
     <use style="fill:#32a897;stroke:#32a897;" x="229.355837" xlink:href="#mff6599a2ef" y="282.538612"/>
     <use style="fill:#32a897;stroke:#32a897;" x="244.11088" xlink:href="#mff6599a2ef" y="282.525296"/>
     <use style="fill:#32a897;stroke:#32a897;" x="258.865922" xlink:href="#mff6599a2ef" y="282.395802"/>
     <use style="fill:#32a897;stroke:#32a897;" x="273.620965" xlink:href="#mff6599a2ef" y="282.391616"/>
     <use style="fill:#32a897;stroke:#32a897;" x="288.376007" xlink:href="#mff6599a2ef" y="282.339232"/>
     <use style="fill:#32a897;stroke:#32a897;" x="303.13105" xlink:href="#mff6599a2ef" y="281.977053"/>
     <use style="fill:#32a897;stroke:#32a897;" x="317.886093" xlink:href="#mff6599a2ef" y="282.139952"/>
     <use style="fill:#32a897;stroke:#32a897;" x="332.641135" xlink:href="#mff6599a2ef" y="282.125526"/>
     <use style="fill:#32a897;stroke:#32a897;" x="347.396178" xlink:href="#mff6599a2ef" y="282.041479"/>
     <use style="fill:#32a897;stroke:#32a897;" x="362.15122" xlink:href="#mff6599a2ef" y="282.152189"/>
     <use style="fill:#32a897;stroke:#32a897;" x="376.906263" xlink:href="#mff6599a2ef" y="279.437968"/>
     <use style="fill:#32a897;stroke:#32a897;" x="391.661305" xlink:href="#mff6599a2ef" y="276.148931"/>
     <use style="fill:#32a897;stroke:#32a897;" x="406.416348" xlink:href="#mff6599a2ef" y="267.068684"/>
     <use style="fill:#32a897;stroke:#32a897;" x="417.017846" xlink:href="#mff6599a2ef" y="249.460597"/>
     <use style="fill:#32a897;stroke:#32a897;" x="413.690584" xlink:href="#mff6599a2ef" y="248.590922"/>
     <use style="fill:#32a897;stroke:#32a897;" x="418.240055" xlink:href="#mff6599a2ef" y="236.709717"/>
     <use style="fill:#32a897;stroke:#32a897;" x="417.219498" xlink:href="#mff6599a2ef" y="237.971389"/>
     <use style="fill:#32a897;stroke:#32a897;" x="416.061227" xlink:href="#mff6599a2ef" y="227.229941"/>
     <use style="fill:#32a897;stroke:#32a897;" x="400.514331" xlink:href="#mff6599a2ef" y="209.730718"/>
     <use style="fill:#32a897;stroke:#32a897;" x="368.210624" xlink:href="#mff6599a2ef" y="171.039808"/>
     <use style="fill:#32a897;stroke:#32a897;" x="321.909301" xlink:href="#mff6599a2ef" y="135.866392"/>
    </g>
   </g>
   <g id="line2d_24">
    <path clip-path="url(#pb0bb1e6d10)" d="M 96.560455 283.539169 
L 111.315497 283.456482 
L 126.07054 283.227787 
L 140.825582 282.472989 
L 155.580625 282.914709 
L 170.335667 282.19038 
L 100.937784 208.085036 
" style="fill:none;stroke:#000000;stroke-linecap:square;stroke-width:2;"/>
    <defs>
     <path d="M 0 4 
C 1.060812 4 2.078319 3.578535 2.828427 2.828427 
C 3.578535 2.078319 4 1.060812 4 0 
C 4 -1.060812 3.578535 -2.078319 2.828427 -2.828427 
C 2.078319 -3.578535 1.060812 -4 0 -4 
C -1.060812 -4 -2.078319 -3.578535 -2.828427 -2.828427 
C -3.578535 -2.078319 -4 -1.060812 -4 0 
C -4 1.060812 -3.578535 2.078319 -2.828427 2.828427 
C -2.078319 3.578535 -1.060812 4 0 4 
z
" id="m8d115b056b" style="stroke:#a84032;"/>
    </defs>
    <g clip-path="url(#pb0bb1e6d10)">
     <use style="fill:#a84032;stroke:#a84032;" x="96.560455" xlink:href="#m8d115b056b" y="283.539169"/>
     <use style="fill:#a84032;stroke:#a84032;" x="111.315497" xlink:href="#m8d115b056b" y="283.456482"/>
     <use style="fill:#a84032;stroke:#a84032;" x="126.07054" xlink:href="#m8d115b056b" y="283.227787"/>
     <use style="fill:#a84032;stroke:#a84032;" x="140.825582" xlink:href="#m8d115b056b" y="282.472989"/>
     <use style="fill:#a84032;stroke:#a84032;" x="155.580625" xlink:href="#m8d115b056b" y="282.914709"/>
     <use style="fill:#a84032;stroke:#a84032;" x="170.335667" xlink:href="#m8d115b056b" y="282.19038"/>
     <use style="fill:#a84032;stroke:#a84032;" x="100.937784" xlink:href="#m8d115b056b" y="208.085036"/>
    </g>
   </g>
   <g id="line2d_25">
    <path clip-path="url(#pb0bb1e6d10)" d="M 96.560455 283.53037 
L 111.315497 283.374468 
L 126.07054 283.113513 
L 140.825582 283.242132 
L 155.580625 283.044631 
L 170.335667 283.062637 
L 185.09071 282.942112 
L 199.845752 282.624963 
L 214.600795 282.670136 
L 229.355837 282.683124 
L 244.11088 282.568664 
L 258.865922 282.191745 
L 273.620965 282.054263 
L 288.376007 282.261223 
L 303.13105 282.154796 
L 317.886093 282.16541 
L 332.641135 282.088842 
L 347.396178 282.195653 
L 362.15122 282.089771 
L 376.906263 282.125045 
L 391.661305 278.605128 
L 406.416348 273.194194 
L 421.17139 262.588866 
L 423.578921 248.156495 
L 430.769545 248.491991 
L 428.202168 238.399151 
L 429.284205 237.704176 
L 424.142072 226.351576 
L 407.104916 205.754227 
L 370.463227 167.983184 
L 313.794027 119.18444 
L 261.211974 67.347471 
L 258.398679 66.279806 
L 254.648439 65.40539 
L 250.780159 52.659102 
" style="fill:none;stroke:#000000;stroke-linecap:square;stroke-width:2;"/>
    <defs>
     <path d="M 0 4 
C 1.060812 4 2.078319 3.578535 2.828427 2.828427 
C 3.578535 2.078319 4 1.060812 4 0 
C 4 -1.060812 3.578535 -2.078319 2.828427 -2.828427 
C 2.078319 -3.578535 1.060812 -4 0 -4 
C -1.060812 -4 -2.078319 -3.578535 -2.828427 -2.828427 
C -3.578535 -2.078319 -4 -1.060812 -4 0 
C -4 1.060812 -3.578535 2.078319 -2.828427 2.828427 
C -2.078319 3.578535 -1.060812 4 0 4 
z
" id="me6bc763685" style="stroke:#3285a8;"/>
    </defs>
    <g clip-path="url(#pb0bb1e6d10)">
     <use style="fill:#3285a8;stroke:#3285a8;" x="96.560455" xlink:href="#me6bc763685" y="283.53037"/>
     <use style="fill:#3285a8;stroke:#3285a8;" x="111.315497" xlink:href="#me6bc763685" y="283.374468"/>
     <use style="fill:#3285a8;stroke:#3285a8;" x="126.07054" xlink:href="#me6bc763685" y="283.113513"/>
     <use style="fill:#3285a8;stroke:#3285a8;" x="140.825582" xlink:href="#me6bc763685" y="283.242132"/>
     <use style="fill:#3285a8;stroke:#3285a8;" x="155.580625" xlink:href="#me6bc763685" y="283.044631"/>
     <use style="fill:#3285a8;stroke:#3285a8;" x="170.335667" xlink:href="#me6bc763685" y="283.062637"/>
     <use style="fill:#3285a8;stroke:#3285a8;" x="185.09071" xlink:href="#me6bc763685" y="282.942112"/>
     <use style="fill:#3285a8;stroke:#3285a8;" x="199.845752" xlink:href="#me6bc763685" y="282.624963"/>
     <use style="fill:#3285a8;stroke:#3285a8;" x="214.600795" xlink:href="#me6bc763685" y="282.670136"/>
     <use style="fill:#3285a8;stroke:#3285a8;" x="229.355837" xlink:href="#me6bc763685" y="282.683124"/>
     <use style="fill:#3285a8;stroke:#3285a8;" x="244.11088" xlink:href="#me6bc763685" y="282.568664"/>
     <use style="fill:#3285a8;stroke:#3285a8;" x="258.865922" xlink:href="#me6bc763685" y="282.191745"/>
     <use style="fill:#3285a8;stroke:#3285a8;" x="273.620965" xlink:href="#me6bc763685" y="282.054263"/>
     <use style="fill:#3285a8;stroke:#3285a8;" x="288.376007" xlink:href="#me6bc763685" y="282.261223"/>
     <use style="fill:#3285a8;stroke:#3285a8;" x="303.13105" xlink:href="#me6bc763685" y="282.154796"/>
     <use style="fill:#3285a8;stroke:#3285a8;" x="317.886093" xlink:href="#me6bc763685" y="282.16541"/>
     <use style="fill:#3285a8;stroke:#3285a8;" x="332.641135" xlink:href="#me6bc763685" y="282.088842"/>
     <use style="fill:#3285a8;stroke:#3285a8;" x="347.396178" xlink:href="#me6bc763685" y="282.195653"/>
     <use style="fill:#3285a8;stroke:#3285a8;" x="362.15122" xlink:href="#me6bc763685" y="282.089771"/>
     <use style="fill:#3285a8;stroke:#3285a8;" x="376.906263" xlink:href="#me6bc763685" y="282.125045"/>
     <use style="fill:#3285a8;stroke:#3285a8;" x="391.661305" xlink:href="#me6bc763685" y="278.605128"/>
     <use style="fill:#3285a8;stroke:#3285a8;" x="406.416348" xlink:href="#me6bc763685" y="273.194194"/>
     <use style="fill:#3285a8;stroke:#3285a8;" x="421.17139" xlink:href="#me6bc763685" y="262.588866"/>
     <use style="fill:#3285a8;stroke:#3285a8;" x="423.578921" xlink:href="#me6bc763685" y="248.156495"/>
     <use style="fill:#3285a8;stroke:#3285a8;" x="430.769545" xlink:href="#me6bc763685" y="248.491991"/>
     <use style="fill:#3285a8;stroke:#3285a8;" x="428.202168" xlink:href="#me6bc763685" y="238.399151"/>
     <use style="fill:#3285a8;stroke:#3285a8;" x="429.284205" xlink:href="#me6bc763685" y="237.704176"/>
     <use style="fill:#3285a8;stroke:#3285a8;" x="424.142072" xlink:href="#me6bc763685" y="226.351576"/>
     <use style="fill:#3285a8;stroke:#3285a8;" x="407.104916" xlink:href="#me6bc763685" y="205.754227"/>
     <use style="fill:#3285a8;stroke:#3285a8;" x="370.463227" xlink:href="#me6bc763685" y="167.983184"/>
     <use style="fill:#3285a8;stroke:#3285a8;" x="313.794027" xlink:href="#me6bc763685" y="119.18444"/>
     <use style="fill:#3285a8;stroke:#3285a8;" x="261.211974" xlink:href="#me6bc763685" y="67.347471"/>
     <use style="fill:#3285a8;stroke:#3285a8;" x="258.398679" xlink:href="#me6bc763685" y="66.279806"/>
     <use style="fill:#3285a8;stroke:#3285a8;" x="254.648439" xlink:href="#me6bc763685" y="65.40539"/>
     <use style="fill:#3285a8;stroke:#3285a8;" x="250.780159" xlink:href="#me6bc763685" y="52.659102"/>
    </g>
   </g>
   <g id="line2d_26">
    <path clip-path="url(#pb0bb1e6d10)" d="M 96.560455 283.539233 
L 111.315497 283.35927 
L 126.07054 283.346606 
L 140.825582 283.218914 
L 155.580625 282.840009 
L 170.335667 282.921395 
L 185.09071 282.921876 
L 199.845752 282.8677 
L 214.600795 282.408127 
L 229.355837 282.571131 
L 244.11088 282.480518 
L 258.865922 282.299689 
L 273.620965 282.228116 
L 288.376007 282.160081 
L 303.13105 282.199678 
L 317.886093 282.091008 
L 332.641135 282.141895 
L 347.396178 282.151078 
L 362.15122 282.134048 
L 376.906263 282.063992 
L 391.661305 280.412296 
L 406.416348 272.991176 
L 420.273792 248.954194 
L 422.784608 248.193843 
L 421.028758 238.733675 
L 425.715943 238.19737 
L 423.505146 228.000043 
L 420.396751 226.895974 
L 402.289854 204.313799 
L 364.482517 164.932452 
L 311.873413 115.297577 
L 262.576816 68.98446 
L 255.578007 65.889059 
L 253.27868 53.564155 
L 255.364059 53.149508 
" style="fill:none;stroke:#000000;stroke-linecap:square;stroke-width:2;"/>
    <defs>
     <path d="M 0 4 
C 1.060812 4 2.078319 3.578535 2.828427 2.828427 
C 3.578535 2.078319 4 1.060812 4 0 
C 4 -1.060812 3.578535 -2.078319 2.828427 -2.828427 
C 2.078319 -3.578535 1.060812 -4 0 -4 
C -1.060812 -4 -2.078319 -3.578535 -2.828427 -2.828427 
C -3.578535 -2.078319 -4 -1.060812 -4 0 
C -4 1.060812 -3.578535 2.078319 -2.828427 2.828427 
C -2.078319 3.578535 -1.060812 4 0 4 
z
" id="me851d2563f" style="stroke:#9a32a8;"/>
    </defs>
    <g clip-path="url(#pb0bb1e6d10)">
     <use style="fill:#9a32a8;stroke:#9a32a8;" x="96.560455" xlink:href="#me851d2563f" y="283.539233"/>
     <use style="fill:#9a32a8;stroke:#9a32a8;" x="111.315497" xlink:href="#me851d2563f" y="283.35927"/>
     <use style="fill:#9a32a8;stroke:#9a32a8;" x="126.07054" xlink:href="#me851d2563f" y="283.346606"/>
     <use style="fill:#9a32a8;stroke:#9a32a8;" x="140.825582" xlink:href="#me851d2563f" y="283.218914"/>
     <use style="fill:#9a32a8;stroke:#9a32a8;" x="155.580625" xlink:href="#me851d2563f" y="282.840009"/>
     <use style="fill:#9a32a8;stroke:#9a32a8;" x="170.335667" xlink:href="#me851d2563f" y="282.921395"/>
     <use style="fill:#9a32a8;stroke:#9a32a8;" x="185.09071" xlink:href="#me851d2563f" y="282.921876"/>
     <use style="fill:#9a32a8;stroke:#9a32a8;" x="199.845752" xlink:href="#me851d2563f" y="282.8677"/>
     <use style="fill:#9a32a8;stroke:#9a32a8;" x="214.600795" xlink:href="#me851d2563f" y="282.408127"/>
     <use style="fill:#9a32a8;stroke:#9a32a8;" x="229.355837" xlink:href="#me851d2563f" y="282.571131"/>
     <use style="fill:#9a32a8;stroke:#9a32a8;" x="244.11088" xlink:href="#me851d2563f" y="282.480518"/>
     <use style="fill:#9a32a8;stroke:#9a32a8;" x="258.865922" xlink:href="#me851d2563f" y="282.299689"/>
     <use style="fill:#9a32a8;stroke:#9a32a8;" x="273.620965" xlink:href="#me851d2563f" y="282.228116"/>
     <use style="fill:#9a32a8;stroke:#9a32a8;" x="288.376007" xlink:href="#me851d2563f" y="282.160081"/>
     <use style="fill:#9a32a8;stroke:#9a32a8;" x="303.13105" xlink:href="#me851d2563f" y="282.199678"/>
     <use style="fill:#9a32a8;stroke:#9a32a8;" x="317.886093" xlink:href="#me851d2563f" y="282.091008"/>
     <use style="fill:#9a32a8;stroke:#9a32a8;" x="332.641135" xlink:href="#me851d2563f" y="282.141895"/>
     <use style="fill:#9a32a8;stroke:#9a32a8;" x="347.396178" xlink:href="#me851d2563f" y="282.151078"/>
     <use style="fill:#9a32a8;stroke:#9a32a8;" x="362.15122" xlink:href="#me851d2563f" y="282.134048"/>
     <use style="fill:#9a32a8;stroke:#9a32a8;" x="376.906263" xlink:href="#me851d2563f" y="282.063992"/>
     <use style="fill:#9a32a8;stroke:#9a32a8;" x="391.661305" xlink:href="#me851d2563f" y="280.412296"/>
     <use style="fill:#9a32a8;stroke:#9a32a8;" x="406.416348" xlink:href="#me851d2563f" y="272.991176"/>
     <use style="fill:#9a32a8;stroke:#9a32a8;" x="420.273792" xlink:href="#me851d2563f" y="248.954194"/>
     <use style="fill:#9a32a8;stroke:#9a32a8;" x="422.784608" xlink:href="#me851d2563f" y="248.193843"/>
     <use style="fill:#9a32a8;stroke:#9a32a8;" x="421.028758" xlink:href="#me851d2563f" y="238.733675"/>
     <use style="fill:#9a32a8;stroke:#9a32a8;" x="425.715943" xlink:href="#me851d2563f" y="238.19737"/>
     <use style="fill:#9a32a8;stroke:#9a32a8;" x="423.505146" xlink:href="#me851d2563f" y="228.000043"/>
     <use style="fill:#9a32a8;stroke:#9a32a8;" x="420.396751" xlink:href="#me851d2563f" y="226.895974"/>
     <use style="fill:#9a32a8;stroke:#9a32a8;" x="402.289854" xlink:href="#me851d2563f" y="204.313799"/>
     <use style="fill:#9a32a8;stroke:#9a32a8;" x="364.482517" xlink:href="#me851d2563f" y="164.932452"/>
     <use style="fill:#9a32a8;stroke:#9a32a8;" x="311.873413" xlink:href="#me851d2563f" y="115.297577"/>
     <use style="fill:#9a32a8;stroke:#9a32a8;" x="262.576816" xlink:href="#me851d2563f" y="68.98446"/>
     <use style="fill:#9a32a8;stroke:#9a32a8;" x="255.578007" xlink:href="#me851d2563f" y="65.889059"/>
     <use style="fill:#9a32a8;stroke:#9a32a8;" x="253.27868" xlink:href="#me851d2563f" y="53.564155"/>
     <use style="fill:#9a32a8;stroke:#9a32a8;" x="255.364059" xlink:href="#me851d2563f" y="53.149508"/>
    </g>
   </g>
   <g id="line2d_27">
    <path clip-path="url(#pb0bb1e6d10)" d="M 96.560455 283.570909 
L 111.315497 283.462354 
L 126.07054 283.375438 
L 140.825582 283.021821 
L 155.580625 283.156687 
L 170.335667 282.609681 
L 185.09071 282.955907 
L 199.845752 282.83816 
L 214.600795 282.566016 
L 229.355837 282.528372 
L 244.11088 282.584908 
L 258.865922 282.39311 
L 273.620965 282.077137 
L 288.376007 282.303918 
L 303.13105 282.215334 
L 317.886093 282.118112 
L 332.641135 282.130297 
L 347.396178 282.187666 
L 362.15122 280.150028 
L 376.906263 275.43589 
L 391.661305 266.432488 
L 398.035484 250.641204 
L 402.316905 248.182307 
L 396.79606 237.802135 
L 396.859999 227.680429 
L 389.875945 213.010492 
L 368.891815 189.267047 
L 328.603172 146.48549 
L 268.87476 92.423517 
L 227.506539 44.49369 
L 225.118681 42.855119 
L 221.806174 44.027334 
L 217.288672 38.952636 
L 221.717644 40.296175 
L 214.165521 26.189091 
" style="fill:none;stroke:#000000;stroke-linecap:square;stroke-width:2;"/>
    <defs>
     <path d="M 0 4 
C 1.060812 4 2.078319 3.578535 2.828427 2.828427 
C 3.578535 2.078319 4 1.060812 4 0 
C 4 -1.060812 3.578535 -2.078319 2.828427 -2.828427 
C 2.078319 -3.578535 1.060812 -4 0 -4 
C -1.060812 -4 -2.078319 -3.578535 -2.828427 -2.828427 
C -3.578535 -2.078319 -4 -1.060812 -4 0 
C -4 1.060812 -3.578535 2.078319 -2.828427 2.828427 
C -2.078319 3.578535 -1.060812 4 0 4 
z
" id="mb97b18d4b7" style="stroke:#eba834;"/>
    </defs>
    <g clip-path="url(#pb0bb1e6d10)">
     <use style="fill:#eba834;stroke:#eba834;" x="96.560455" xlink:href="#mb97b18d4b7" y="283.570909"/>
     <use style="fill:#eba834;stroke:#eba834;" x="111.315497" xlink:href="#mb97b18d4b7" y="283.462354"/>
     <use style="fill:#eba834;stroke:#eba834;" x="126.07054" xlink:href="#mb97b18d4b7" y="283.375438"/>
     <use style="fill:#eba834;stroke:#eba834;" x="140.825582" xlink:href="#mb97b18d4b7" y="283.021821"/>
     <use style="fill:#eba834;stroke:#eba834;" x="155.580625" xlink:href="#mb97b18d4b7" y="283.156687"/>
     <use style="fill:#eba834;stroke:#eba834;" x="170.335667" xlink:href="#mb97b18d4b7" y="282.609681"/>
     <use style="fill:#eba834;stroke:#eba834;" x="185.09071" xlink:href="#mb97b18d4b7" y="282.955907"/>
     <use style="fill:#eba834;stroke:#eba834;" x="199.845752" xlink:href="#mb97b18d4b7" y="282.83816"/>
     <use style="fill:#eba834;stroke:#eba834;" x="214.600795" xlink:href="#mb97b18d4b7" y="282.566016"/>
     <use style="fill:#eba834;stroke:#eba834;" x="229.355837" xlink:href="#mb97b18d4b7" y="282.528372"/>
     <use style="fill:#eba834;stroke:#eba834;" x="244.11088" xlink:href="#mb97b18d4b7" y="282.584908"/>
     <use style="fill:#eba834;stroke:#eba834;" x="258.865922" xlink:href="#mb97b18d4b7" y="282.39311"/>
     <use style="fill:#eba834;stroke:#eba834;" x="273.620965" xlink:href="#mb97b18d4b7" y="282.077137"/>
     <use style="fill:#eba834;stroke:#eba834;" x="288.376007" xlink:href="#mb97b18d4b7" y="282.303918"/>
     <use style="fill:#eba834;stroke:#eba834;" x="303.13105" xlink:href="#mb97b18d4b7" y="282.215334"/>
     <use style="fill:#eba834;stroke:#eba834;" x="317.886093" xlink:href="#mb97b18d4b7" y="282.118112"/>
     <use style="fill:#eba834;stroke:#eba834;" x="332.641135" xlink:href="#mb97b18d4b7" y="282.130297"/>
     <use style="fill:#eba834;stroke:#eba834;" x="347.396178" xlink:href="#mb97b18d4b7" y="282.187666"/>
     <use style="fill:#eba834;stroke:#eba834;" x="362.15122" xlink:href="#mb97b18d4b7" y="280.150028"/>
     <use style="fill:#eba834;stroke:#eba834;" x="376.906263" xlink:href="#mb97b18d4b7" y="275.43589"/>
     <use style="fill:#eba834;stroke:#eba834;" x="391.661305" xlink:href="#mb97b18d4b7" y="266.432488"/>
     <use style="fill:#eba834;stroke:#eba834;" x="398.035484" xlink:href="#mb97b18d4b7" y="250.641204"/>
     <use style="fill:#eba834;stroke:#eba834;" x="402.316905" xlink:href="#mb97b18d4b7" y="248.182307"/>
     <use style="fill:#eba834;stroke:#eba834;" x="396.79606" xlink:href="#mb97b18d4b7" y="237.802135"/>
     <use style="fill:#eba834;stroke:#eba834;" x="396.859999" xlink:href="#mb97b18d4b7" y="227.680429"/>
     <use style="fill:#eba834;stroke:#eba834;" x="389.875945" xlink:href="#mb97b18d4b7" y="213.010492"/>
     <use style="fill:#eba834;stroke:#eba834;" x="368.891815" xlink:href="#mb97b18d4b7" y="189.267047"/>
     <use style="fill:#eba834;stroke:#eba834;" x="328.603172" xlink:href="#mb97b18d4b7" y="146.48549"/>
     <use style="fill:#eba834;stroke:#eba834;" x="268.87476" xlink:href="#mb97b18d4b7" y="92.423517"/>
     <use style="fill:#eba834;stroke:#eba834;" x="227.506539" xlink:href="#mb97b18d4b7" y="44.49369"/>
     <use style="fill:#eba834;stroke:#eba834;" x="225.118681" xlink:href="#mb97b18d4b7" y="42.855119"/>
     <use style="fill:#eba834;stroke:#eba834;" x="221.806174" xlink:href="#mb97b18d4b7" y="44.027334"/>
     <use style="fill:#eba834;stroke:#eba834;" x="217.288672" xlink:href="#mb97b18d4b7" y="38.952636"/>
     <use style="fill:#eba834;stroke:#eba834;" x="221.717644" xlink:href="#mb97b18d4b7" y="40.296175"/>
     <use style="fill:#eba834;stroke:#eba834;" x="214.165521" xlink:href="#mb97b18d4b7" y="26.189091"/>
    </g>
   </g>
   <g id="patch_3">
    <path d="M 79.85 296.44 
L 79.85 13.32 
" style="fill:none;stroke:#000000;stroke-linecap:square;stroke-linejoin:miter;stroke-width:0.8;"/>
   </g>
   <g id="patch_4">
    <path d="M 447.48 296.44 
L 447.48 13.32 
" style="fill:none;stroke:#000000;stroke-linecap:square;stroke-linejoin:miter;stroke-width:0.8;"/>
   </g>
   <g id="patch_5">
    <path d="M 79.85 296.44 
L 447.48 296.44 
" style="fill:none;stroke:#000000;stroke-linecap:square;stroke-linejoin:miter;stroke-width:0.8;"/>
   </g>
   <g id="patch_6">
    <path d="M 79.85 13.32 
L 447.48 13.32 
" style="fill:none;stroke:#000000;stroke-linecap:square;stroke-linejoin:miter;stroke-width:0.8;"/>
   </g>
   <g id="legend_1">
    <g id="patch_7">
     <path d="M 86.85 150.699688 
L 187.871875 150.699688 
Q 189.871875 150.699688 189.871875 148.699688 
L 189.871875 20.32 
Q 189.871875 18.32 187.871875 18.32 
L 86.85 18.32 
Q 84.85 18.32 84.85 20.32 
L 84.85 148.699688 
Q 84.85 150.699688 86.85 150.699688 
z
" style="fill:#ffffff;opacity:0.8;stroke:#cccccc;stroke-linejoin:miter;"/>
    </g>
    <g id="line2d_28">
     <path d="M 88.85 33.057187 
L 108.85 33.057187 
" style="fill:none;stroke:#000000;stroke-linecap:square;stroke-width:2;"/>
    </g>
    <g id="line2d_29">
     <g>
      <use style="fill:#32a897;stroke:#32a897;" x="98.85" xlink:href="#mff6599a2ef" y="33.057187"/>
     </g>
    </g>
    <g id="text_14">
     <!-- Baseline  -->
     <defs>
      <path d="M 19.671875 34.8125 
L 19.671875 8.109375 
L 35.5 8.109375 
Q 43.453125 8.109375 47.28125 11.40625 
Q 51.125 14.703125 51.125 21.484375 
Q 51.125 28.328125 47.28125 31.5625 
Q 43.453125 34.8125 35.5 34.8125 
z
M 19.671875 64.796875 
L 19.671875 42.828125 
L 34.28125 42.828125 
Q 41.5 42.828125 45.03125 45.53125 
Q 48.578125 48.25 48.578125 53.8125 
Q 48.578125 59.328125 45.03125 62.0625 
Q 41.5 64.796875 34.28125 64.796875 
z
M 9.8125 72.90625 
L 35.015625 72.90625 
Q 46.296875 72.90625 52.390625 68.21875 
Q 58.5 63.53125 58.5 54.890625 
Q 58.5 48.1875 55.375 44.234375 
Q 52.25 40.28125 46.1875 39.3125 
Q 53.46875 37.75 57.5 32.78125 
Q 61.53125 27.828125 61.53125 20.40625 
Q 61.53125 10.640625 54.890625 5.3125 
Q 48.25 0 35.984375 0 
L 9.8125 0 
z
" id="DejaVuSans-66"/>
     </defs>
     <g transform="translate(116.85 29.918437)scale(0.1 -0.1)">
      <use xlink:href="#DejaVuSans-66"/>
      <use x="68.603516" xlink:href="#DejaVuSans-97"/>
      <use x="129.882812" xlink:href="#DejaVuSans-115"/>
      <use x="181.982422" xlink:href="#DejaVuSans-101"/>
      <use x="243.505859" xlink:href="#DejaVuSans-108"/>
      <use x="271.289062" xlink:href="#DejaVuSans-105"/>
      <use x="299.072266" xlink:href="#DejaVuSans-110"/>
      <use x="362.451172" xlink:href="#DejaVuSans-101"/>
      <use x="423.974609" xlink:href="#DejaVuSans-32"/>
     </g>
     <!-- Performance -->
     <defs>
      <path d="M 37.109375 75.984375 
L 37.109375 68.5 
L 28.515625 68.5 
Q 23.6875 68.5 21.796875 66.546875 
Q 19.921875 64.59375 19.921875 59.515625 
L 19.921875 54.6875 
L 34.71875 54.6875 
L 34.71875 47.703125 
L 19.921875 47.703125 
L 19.921875 0 
L 10.890625 0 
L 10.890625 47.703125 
L 2.296875 47.703125 
L 2.296875 54.6875 
L 10.890625 54.6875 
L 10.890625 58.5 
Q 10.890625 67.625 15.140625 71.796875 
Q 19.390625 75.984375 28.609375 75.984375 
z
" id="DejaVuSans-102"/>
     </defs>
     <g transform="translate(116.85 41.11625)scale(0.1 -0.1)">
      <use xlink:href="#DejaVuSans-80"/>
      <use x="60.255859" xlink:href="#DejaVuSans-101"/>
      <use x="121.779297" xlink:href="#DejaVuSans-114"/>
      <use x="162.892578" xlink:href="#DejaVuSans-102"/>
      <use x="198.097656" xlink:href="#DejaVuSans-111"/>
      <use x="259.279297" xlink:href="#DejaVuSans-114"/>
      <use x="300.376953" xlink:href="#DejaVuSans-109"/>
      <use x="397.789062" xlink:href="#DejaVuSans-97"/>
      <use x="459.068359" xlink:href="#DejaVuSans-110"/>
      <use x="522.447266" xlink:href="#DejaVuSans-99"/>
      <use x="577.427734" xlink:href="#DejaVuSans-101"/>
     </g>
    </g>
    <g id="line2d_30">
     <path d="M 88.85 58.933125 
L 108.85 58.933125 
" style="fill:none;stroke:#000000;stroke-linecap:square;stroke-width:2;"/>
    </g>
    <g id="line2d_31">
     <g>
      <use style="fill:#a84032;stroke:#a84032;" x="98.85" xlink:href="#m8d115b056b" y="58.933125"/>
     </g>
    </g>
    <g id="text_15">
     <!-- Memory limit  -->
     <defs>
      <path d="M 9.8125 72.90625 
L 24.515625 72.90625 
L 43.109375 23.296875 
L 61.8125 72.90625 
L 76.515625 72.90625 
L 76.515625 0 
L 66.890625 0 
L 66.890625 64.015625 
L 48.09375 14.015625 
L 38.1875 14.015625 
L 19.390625 64.015625 
L 19.390625 0 
L 9.8125 0 
z
" id="DejaVuSans-77"/>
     </defs>
     <g transform="translate(116.85 55.794375)scale(0.1 -0.1)">
      <use xlink:href="#DejaVuSans-77"/>
      <use x="86.279297" xlink:href="#DejaVuSans-101"/>
      <use x="147.802734" xlink:href="#DejaVuSans-109"/>
      <use x="245.214844" xlink:href="#DejaVuSans-111"/>
      <use x="306.396484" xlink:href="#DejaVuSans-114"/>
      <use x="347.509766" xlink:href="#DejaVuSans-121"/>
      <use x="406.689453" xlink:href="#DejaVuSans-32"/>
      <use x="438.476562" xlink:href="#DejaVuSans-108"/>
      <use x="466.259766" xlink:href="#DejaVuSans-105"/>
      <use x="494.042969" xlink:href="#DejaVuSans-109"/>
      <use x="591.455078" xlink:href="#DejaVuSans-105"/>
      <use x="619.238281" xlink:href="#DejaVuSans-116"/>
      <use x="658.447266" xlink:href="#DejaVuSans-32"/>
     </g>
     <!-- at 1mb -->
     <defs>
      <path d="M 48.6875 27.296875 
Q 48.6875 37.203125 44.609375 42.84375 
Q 40.53125 48.484375 33.40625 48.484375 
Q 26.265625 48.484375 22.1875 42.84375 
Q 18.109375 37.203125 18.109375 27.296875 
Q 18.109375 17.390625 22.1875 11.75 
Q 26.265625 6.109375 33.40625 6.109375 
Q 40.53125 6.109375 44.609375 11.75 
Q 48.6875 17.390625 48.6875 27.296875 
z
M 18.109375 46.390625 
Q 20.953125 51.265625 25.265625 53.625 
Q 29.59375 56 35.59375 56 
Q 45.5625 56 51.78125 48.09375 
Q 58.015625 40.1875 58.015625 27.296875 
Q 58.015625 14.40625 51.78125 6.484375 
Q 45.5625 -1.421875 35.59375 -1.421875 
Q 29.59375 -1.421875 25.265625 0.953125 
Q 20.953125 3.328125 18.109375 8.203125 
L 18.109375 0 
L 9.078125 0 
L 9.078125 75.984375 
L 18.109375 75.984375 
z
" id="DejaVuSans-98"/>
     </defs>
     <g transform="translate(116.85 66.992187)scale(0.1 -0.1)">
      <use xlink:href="#DejaVuSans-97"/>
      <use x="61.279297" xlink:href="#DejaVuSans-116"/>
      <use x="100.488281" xlink:href="#DejaVuSans-32"/>
      <use x="132.275391" xlink:href="#DejaVuSans-49"/>
      <use x="195.898438" xlink:href="#DejaVuSans-109"/>
      <use x="293.310547" xlink:href="#DejaVuSans-98"/>
     </g>
    </g>
    <g id="line2d_32">
     <path d="M 88.85 84.809062 
L 108.85 84.809062 
" style="fill:none;stroke:#000000;stroke-linecap:square;stroke-width:2;"/>
    </g>
    <g id="line2d_33">
     <g>
      <use style="fill:#3285a8;stroke:#3285a8;" x="98.85" xlink:href="#me6bc763685" y="84.809062"/>
     </g>
    </g>
    <g id="text_16">
     <!-- Memory limit  -->
     <g transform="translate(116.85 81.670312)scale(0.1 -0.1)">
      <use xlink:href="#DejaVuSans-77"/>
      <use x="86.279297" xlink:href="#DejaVuSans-101"/>
      <use x="147.802734" xlink:href="#DejaVuSans-109"/>
      <use x="245.214844" xlink:href="#DejaVuSans-111"/>
      <use x="306.396484" xlink:href="#DejaVuSans-114"/>
      <use x="347.509766" xlink:href="#DejaVuSans-121"/>
      <use x="406.689453" xlink:href="#DejaVuSans-32"/>
      <use x="438.476562" xlink:href="#DejaVuSans-108"/>
      <use x="466.259766" xlink:href="#DejaVuSans-105"/>
      <use x="494.042969" xlink:href="#DejaVuSans-109"/>
      <use x="591.455078" xlink:href="#DejaVuSans-105"/>
      <use x="619.238281" xlink:href="#DejaVuSans-116"/>
      <use x="658.447266" xlink:href="#DejaVuSans-32"/>
     </g>
     <!-- at 5mb -->
     <g transform="translate(116.85 92.868125)scale(0.1 -0.1)">
      <use xlink:href="#DejaVuSans-97"/>
      <use x="61.279297" xlink:href="#DejaVuSans-116"/>
      <use x="100.488281" xlink:href="#DejaVuSans-32"/>
      <use x="132.275391" xlink:href="#DejaVuSans-53"/>
      <use x="195.898438" xlink:href="#DejaVuSans-109"/>
      <use x="293.310547" xlink:href="#DejaVuSans-98"/>
     </g>
    </g>
    <g id="line2d_34">
     <path d="M 88.85 110.685 
L 108.85 110.685 
" style="fill:none;stroke:#000000;stroke-linecap:square;stroke-width:2;"/>
    </g>
    <g id="line2d_35">
     <g>
      <use style="fill:#9a32a8;stroke:#9a32a8;" x="98.85" xlink:href="#me851d2563f" y="110.685"/>
     </g>
    </g>
    <g id="text_17">
     <!-- Memory limit  -->
     <g transform="translate(116.85 107.54625)scale(0.1 -0.1)">
      <use xlink:href="#DejaVuSans-77"/>
      <use x="86.279297" xlink:href="#DejaVuSans-101"/>
      <use x="147.802734" xlink:href="#DejaVuSans-109"/>
      <use x="245.214844" xlink:href="#DejaVuSans-111"/>
      <use x="306.396484" xlink:href="#DejaVuSans-114"/>
      <use x="347.509766" xlink:href="#DejaVuSans-121"/>
      <use x="406.689453" xlink:href="#DejaVuSans-32"/>
      <use x="438.476562" xlink:href="#DejaVuSans-108"/>
      <use x="466.259766" xlink:href="#DejaVuSans-105"/>
      <use x="494.042969" xlink:href="#DejaVuSans-109"/>
      <use x="591.455078" xlink:href="#DejaVuSans-105"/>
      <use x="619.238281" xlink:href="#DejaVuSans-116"/>
      <use x="658.447266" xlink:href="#DejaVuSans-32"/>
     </g>
     <!-- at 10mb -->
     <g transform="translate(116.85 118.744063)scale(0.1 -0.1)">
      <use xlink:href="#DejaVuSans-97"/>
      <use x="61.279297" xlink:href="#DejaVuSans-116"/>
      <use x="100.488281" xlink:href="#DejaVuSans-32"/>
      <use x="132.275391" xlink:href="#DejaVuSans-49"/>
      <use x="195.898438" xlink:href="#DejaVuSans-48"/>
      <use x="259.521484" xlink:href="#DejaVuSans-109"/>
      <use x="356.933594" xlink:href="#DejaVuSans-98"/>
     </g>
    </g>
    <g id="line2d_36">
     <path d="M 88.85 136.560938 
L 108.85 136.560938 
" style="fill:none;stroke:#000000;stroke-linecap:square;stroke-width:2;"/>
    </g>
    <g id="line2d_37">
     <g>
      <use style="fill:#eba834;stroke:#eba834;" x="98.85" xlink:href="#mb97b18d4b7" y="136.560938"/>
     </g>
    </g>
    <g id="text_18">
     <!-- Memory limit  -->
     <g transform="translate(116.85 133.422188)scale(0.1 -0.1)">
      <use xlink:href="#DejaVuSans-77"/>
      <use x="86.279297" xlink:href="#DejaVuSans-101"/>
      <use x="147.802734" xlink:href="#DejaVuSans-109"/>
      <use x="245.214844" xlink:href="#DejaVuSans-111"/>
      <use x="306.396484" xlink:href="#DejaVuSans-114"/>
      <use x="347.509766" xlink:href="#DejaVuSans-121"/>
      <use x="406.689453" xlink:href="#DejaVuSans-32"/>
      <use x="438.476562" xlink:href="#DejaVuSans-108"/>
      <use x="466.259766" xlink:href="#DejaVuSans-105"/>
      <use x="494.042969" xlink:href="#DejaVuSans-109"/>
      <use x="591.455078" xlink:href="#DejaVuSans-105"/>
      <use x="619.238281" xlink:href="#DejaVuSans-116"/>
      <use x="658.447266" xlink:href="#DejaVuSans-32"/>
     </g>
     <!-- at 15mb -->
     <g transform="translate(116.85 144.62)scale(0.1 -0.1)">
      <use xlink:href="#DejaVuSans-97"/>
      <use x="61.279297" xlink:href="#DejaVuSans-116"/>
      <use x="100.488281" xlink:href="#DejaVuSans-32"/>
      <use x="132.275391" xlink:href="#DejaVuSans-49"/>
      <use x="195.898438" xlink:href="#DejaVuSans-53"/>
      <use x="259.521484" xlink:href="#DejaVuSans-109"/>
      <use x="356.933594" xlink:href="#DejaVuSans-98"/>
     </g>
    </g>
   </g>
  </g>
 </g>
 <defs>
  <clipPath id="pb0bb1e6d10">
   <rect height="283.12" width="367.63" x="79.85" y="13.32"/>
  </clipPath>
 </defs>
</svg>
