<?xml version="1.0" encoding="utf-8" standalone="no"?>
<!DOCTYPE svg PUBLIC "-//W3C//DTD SVG 1.1//EN"
  "http://www.w3.org/Graphics/SVG/1.1/DTD/svg11.dtd">
<!-- Created with matplotlib (https://matplotlib.org/) -->
<svg height="345.6pt" version="1.1" viewBox="0 0 460.8 345.6" width="460.8pt" xmlns="http://www.w3.org/2000/svg" xmlns:xlink="http://www.w3.org/1999/xlink">
 <defs>
  <style type="text/css">
*{stroke-linecap:butt;stroke-linejoin:round;}
  </style>
 </defs>
 <g id="figure_1">
  <g id="patch_1">
   <path d="M 0 345.6 
L 460.8 345.6 
L 460.8 0 
L 0 0 
z
" style="fill:#ffffff;"/>
  </g>
  <g id="axes_1">
   <g id="patch_2">
    <path d="M 33.64 317.72 
L 438.803099 317.72 
L 438.803099 13.32 
L 33.64 13.32 
z
" style="fill:#ffffff;"/>
   </g>
   <g id="matplotlib.axis_1">
    <g id="xtick_1">
     <g id="line2d_1">
      <path clip-path="url(#pe888438325)" d="M 50.843788 317.72 
L 50.843788 13.32 
" style="fill:none;stroke:#b0b0b0;stroke-linecap:square;stroke-width:0.8;"/>
     </g>
     <g id="line2d_2">
      <defs>
       <path d="M 0 0 
L 0 3.5 
" id="ma2980e5a7f" style="stroke:#000000;stroke-width:0.8;"/>
      </defs>
      <g>
       <use style="stroke:#000000;stroke-width:0.8;" x="50.843788" xlink:href="#ma2980e5a7f" y="317.72"/>
      </g>
     </g>
     <g id="text_1">
      <!-- 0 -->
      <defs>
       <path d="M 31.78125 66.40625 
Q 24.171875 66.40625 20.328125 58.90625 
Q 16.5 51.421875 16.5 36.375 
Q 16.5 21.390625 20.328125 13.890625 
Q 24.171875 6.390625 31.78125 6.390625 
Q 39.453125 6.390625 43.28125 13.890625 
Q 47.125 21.390625 47.125 36.375 
Q 47.125 51.421875 43.28125 58.90625 
Q 39.453125 66.40625 31.78125 66.40625 
z
M 31.78125 74.21875 
Q 44.046875 74.21875 50.515625 64.515625 
Q 56.984375 54.828125 56.984375 36.375 
Q 56.984375 17.96875 50.515625 8.265625 
Q 44.046875 -1.421875 31.78125 -1.421875 
Q 19.53125 -1.421875 13.0625 8.265625 
Q 6.59375 17.96875 6.59375 36.375 
Q 6.59375 54.828125 13.0625 64.515625 
Q 19.53125 74.21875 31.78125 74.21875 
z
" id="DejaVuSans-48"/>
      </defs>
      <g transform="translate(47.662538 332.318437)scale(0.1 -0.1)">
       <use xlink:href="#DejaVuSans-48"/>
      </g>
     </g>
    </g>
    <g id="xtick_2">
     <g id="line2d_3">
      <path clip-path="url(#pe888438325)" d="M 127.490377 317.72 
L 127.490377 13.32 
" style="fill:none;stroke:#b0b0b0;stroke-linecap:square;stroke-width:0.8;"/>
     </g>
     <g id="line2d_4">
      <g>
       <use style="stroke:#000000;stroke-width:0.8;" x="127.490377" xlink:href="#ma2980e5a7f" y="317.72"/>
      </g>
     </g>
     <g id="text_2">
      <!-- 5000 -->
      <defs>
       <path d="M 10.796875 72.90625 
L 49.515625 72.90625 
L 49.515625 64.59375 
L 19.828125 64.59375 
L 19.828125 46.734375 
Q 21.96875 47.46875 24.109375 47.828125 
Q 26.265625 48.1875 28.421875 48.1875 
Q 40.625 48.1875 47.75 41.5 
Q 54.890625 34.8125 54.890625 23.390625 
Q 54.890625 11.625 47.5625 5.09375 
Q 40.234375 -1.421875 26.90625 -1.421875 
Q 22.3125 -1.421875 17.546875 -0.640625 
Q 12.796875 0.140625 7.71875 1.703125 
L 7.71875 11.625 
Q 12.109375 9.234375 16.796875 8.0625 
Q 21.484375 6.890625 26.703125 6.890625 
Q 35.15625 6.890625 40.078125 11.328125 
Q 45.015625 15.765625 45.015625 23.390625 
Q 45.015625 31 40.078125 35.4375 
Q 35.15625 39.890625 26.703125 39.890625 
Q 22.75 39.890625 18.8125 39.015625 
Q 14.890625 38.140625 10.796875 36.28125 
z
" id="DejaVuSans-53"/>
      </defs>
      <g transform="translate(114.765377 332.318437)scale(0.1 -0.1)">
       <use xlink:href="#DejaVuSans-53"/>
       <use x="63.623047" xlink:href="#DejaVuSans-48"/>
       <use x="127.246094" xlink:href="#DejaVuSans-48"/>
       <use x="190.869141" xlink:href="#DejaVuSans-48"/>
      </g>
     </g>
    </g>
    <g id="xtick_3">
     <g id="line2d_5">
      <path clip-path="url(#pe888438325)" d="M 204.136966 317.72 
L 204.136966 13.32 
" style="fill:none;stroke:#b0b0b0;stroke-linecap:square;stroke-width:0.8;"/>
     </g>
     <g id="line2d_6">
      <g>
       <use style="stroke:#000000;stroke-width:0.8;" x="204.136966" xlink:href="#ma2980e5a7f" y="317.72"/>
      </g>
     </g>
     <g id="text_3">
      <!-- 10000 -->
      <defs>
       <path d="M 12.40625 8.296875 
L 28.515625 8.296875 
L 28.515625 63.921875 
L 10.984375 60.40625 
L 10.984375 69.390625 
L 28.421875 72.90625 
L 38.28125 72.90625 
L 38.28125 8.296875 
L 54.390625 8.296875 
L 54.390625 0 
L 12.40625 0 
z
" id="DejaVuSans-49"/>
      </defs>
      <g transform="translate(188.230716 332.318437)scale(0.1 -0.1)">
       <use xlink:href="#DejaVuSans-49"/>
       <use x="63.623047" xlink:href="#DejaVuSans-48"/>
       <use x="127.246094" xlink:href="#DejaVuSans-48"/>
       <use x="190.869141" xlink:href="#DejaVuSans-48"/>
       <use x="254.492188" xlink:href="#DejaVuSans-48"/>
      </g>
     </g>
    </g>
    <g id="xtick_4">
     <g id="line2d_7">
      <path clip-path="url(#pe888438325)" d="M 280.783555 317.72 
L 280.783555 13.32 
" style="fill:none;stroke:#b0b0b0;stroke-linecap:square;stroke-width:0.8;"/>
     </g>
     <g id="line2d_8">
      <g>
       <use style="stroke:#000000;stroke-width:0.8;" x="280.783555" xlink:href="#ma2980e5a7f" y="317.72"/>
      </g>
     </g>
     <g id="text_4">
      <!-- 15000 -->
      <g transform="translate(264.877305 332.318437)scale(0.1 -0.1)">
       <use xlink:href="#DejaVuSans-49"/>
       <use x="63.623047" xlink:href="#DejaVuSans-53"/>
       <use x="127.246094" xlink:href="#DejaVuSans-48"/>
       <use x="190.869141" xlink:href="#DejaVuSans-48"/>
       <use x="254.492188" xlink:href="#DejaVuSans-48"/>
      </g>
     </g>
    </g>
    <g id="xtick_5">
     <g id="line2d_9">
      <path clip-path="url(#pe888438325)" d="M 357.430144 317.72 
L 357.430144 13.32 
" style="fill:none;stroke:#b0b0b0;stroke-linecap:square;stroke-width:0.8;"/>
     </g>
     <g id="line2d_10">
      <g>
       <use style="stroke:#000000;stroke-width:0.8;" x="357.430144" xlink:href="#ma2980e5a7f" y="317.72"/>
      </g>
     </g>
     <g id="text_5">
      <!-- 20000 -->
      <defs>
       <path d="M 19.1875 8.296875 
L 53.609375 8.296875 
L 53.609375 0 
L 7.328125 0 
L 7.328125 8.296875 
Q 12.9375 14.109375 22.625 23.890625 
Q 32.328125 33.6875 34.8125 36.53125 
Q 39.546875 41.84375 41.421875 45.53125 
Q 43.3125 49.21875 43.3125 52.78125 
Q 43.3125 58.59375 39.234375 62.25 
Q 35.15625 65.921875 28.609375 65.921875 
Q 23.96875 65.921875 18.8125 64.3125 
Q 13.671875 62.703125 7.8125 59.421875 
L 7.8125 69.390625 
Q 13.765625 71.78125 18.9375 73 
Q 24.125 74.21875 28.421875 74.21875 
Q 39.75 74.21875 46.484375 68.546875 
Q 53.21875 62.890625 53.21875 53.421875 
Q 53.21875 48.921875 51.53125 44.890625 
Q 49.859375 40.875 45.40625 35.40625 
Q 44.1875 33.984375 37.640625 27.21875 
Q 31.109375 20.453125 19.1875 8.296875 
z
" id="DejaVuSans-50"/>
      </defs>
      <g transform="translate(341.523894 332.318437)scale(0.1 -0.1)">
       <use xlink:href="#DejaVuSans-50"/>
       <use x="63.623047" xlink:href="#DejaVuSans-48"/>
       <use x="127.246094" xlink:href="#DejaVuSans-48"/>
       <use x="190.869141" xlink:href="#DejaVuSans-48"/>
       <use x="254.492188" xlink:href="#DejaVuSans-48"/>
      </g>
     </g>
    </g>
    <g id="xtick_6">
     <g id="line2d_11">
      <path clip-path="url(#pe888438325)" d="M 434.076734 317.72 
L 434.076734 13.32 
" style="fill:none;stroke:#b0b0b0;stroke-linecap:square;stroke-width:0.8;"/>
     </g>
     <g id="line2d_12">
      <g>
       <use style="stroke:#000000;stroke-width:0.8;" x="434.076734" xlink:href="#ma2980e5a7f" y="317.72"/>
      </g>
     </g>
     <g id="text_6">
      <!-- 25000 -->
      <g transform="translate(418.170484 332.318437)scale(0.1 -0.1)">
       <use xlink:href="#DejaVuSans-50"/>
       <use x="63.623047" xlink:href="#DejaVuSans-53"/>
       <use x="127.246094" xlink:href="#DejaVuSans-48"/>
       <use x="190.869141" xlink:href="#DejaVuSans-48"/>
       <use x="254.492188" xlink:href="#DejaVuSans-48"/>
      </g>
     </g>
    </g>
   </g>
   <g id="matplotlib.axis_2">
    <g id="ytick_1">
     <g id="line2d_13">
      <path clip-path="url(#pe888438325)" d="M 33.64 312.022674 
L 438.803099 312.022674 
" style="fill:none;stroke:#b0b0b0;stroke-linecap:square;stroke-width:0.8;"/>
     </g>
     <g id="line2d_14">
      <defs>
       <path d="M 0 0 
L -3.5 0 
" id="me099c7b1b8" style="stroke:#000000;stroke-width:0.8;"/>
      </defs>
      <g>
       <use style="stroke:#000000;stroke-width:0.8;" x="33.64" xlink:href="#me099c7b1b8" y="312.022674"/>
      </g>
     </g>
     <g id="text_7">
      <!-- 0.5 -->
      <defs>
       <path d="M 10.6875 12.40625 
L 21 12.40625 
L 21 0 
L 10.6875 0 
z
" id="DejaVuSans-46"/>
      </defs>
      <g transform="translate(10.736875 315.821893)scale(0.1 -0.1)">
       <use xlink:href="#DejaVuSans-48"/>
       <use x="63.623047" xlink:href="#DejaVuSans-46"/>
       <use x="95.410156" xlink:href="#DejaVuSans-53"/>
      </g>
     </g>
    </g>
    <g id="ytick_2">
     <g id="line2d_15">
      <path clip-path="url(#pe888438325)" d="M 33.64 255.049412 
L 438.803099 255.049412 
" style="fill:none;stroke:#b0b0b0;stroke-linecap:square;stroke-width:0.8;"/>
     </g>
     <g id="line2d_16">
      <g>
       <use style="stroke:#000000;stroke-width:0.8;" x="33.64" xlink:href="#me099c7b1b8" y="255.049412"/>
      </g>
     </g>
     <g id="text_8">
      <!-- 0.6 -->
      <defs>
       <path d="M 33.015625 40.375 
Q 26.375 40.375 22.484375 35.828125 
Q 18.609375 31.296875 18.609375 23.390625 
Q 18.609375 15.53125 22.484375 10.953125 
Q 26.375 6.390625 33.015625 6.390625 
Q 39.65625 6.390625 43.53125 10.953125 
Q 47.40625 15.53125 47.40625 23.390625 
Q 47.40625 31.296875 43.53125 35.828125 
Q 39.65625 40.375 33.015625 40.375 
z
M 52.59375 71.296875 
L 52.59375 62.3125 
Q 48.875 64.0625 45.09375 64.984375 
Q 41.3125 65.921875 37.59375 65.921875 
Q 27.828125 65.921875 22.671875 59.328125 
Q 17.53125 52.734375 16.796875 39.40625 
Q 19.671875 43.65625 24.015625 45.921875 
Q 28.375 48.1875 33.59375 48.1875 
Q 44.578125 48.1875 50.953125 41.515625 
Q 57.328125 34.859375 57.328125 23.390625 
Q 57.328125 12.15625 50.6875 5.359375 
Q 44.046875 -1.421875 33.015625 -1.421875 
Q 20.359375 -1.421875 13.671875 8.265625 
Q 6.984375 17.96875 6.984375 36.375 
Q 6.984375 53.65625 15.1875 63.9375 
Q 23.390625 74.21875 37.203125 74.21875 
Q 40.921875 74.21875 44.703125 73.484375 
Q 48.484375 72.75 52.59375 71.296875 
z
" id="DejaVuSans-54"/>
      </defs>
      <g transform="translate(10.736875 258.848631)scale(0.1 -0.1)">
       <use xlink:href="#DejaVuSans-48"/>
       <use x="63.623047" xlink:href="#DejaVuSans-46"/>
       <use x="95.410156" xlink:href="#DejaVuSans-54"/>
      </g>
     </g>
    </g>
    <g id="ytick_3">
     <g id="line2d_17">
      <path clip-path="url(#pe888438325)" d="M 33.64 198.07615 
L 438.803099 198.07615 
" style="fill:none;stroke:#b0b0b0;stroke-linecap:square;stroke-width:0.8;"/>
     </g>
     <g id="line2d_18">
      <g>
       <use style="stroke:#000000;stroke-width:0.8;" x="33.64" xlink:href="#me099c7b1b8" y="198.07615"/>
      </g>
     </g>
     <g id="text_9">
      <!-- 0.7 -->
      <defs>
       <path d="M 8.203125 72.90625 
L 55.078125 72.90625 
L 55.078125 68.703125 
L 28.609375 0 
L 18.3125 0 
L 43.21875 64.59375 
L 8.203125 64.59375 
z
" id="DejaVuSans-55"/>
      </defs>
      <g transform="translate(10.736875 201.875368)scale(0.1 -0.1)">
       <use xlink:href="#DejaVuSans-48"/>
       <use x="63.623047" xlink:href="#DejaVuSans-46"/>
       <use x="95.410156" xlink:href="#DejaVuSans-55"/>
      </g>
     </g>
    </g>
    <g id="ytick_4">
     <g id="line2d_19">
      <path clip-path="url(#pe888438325)" d="M 33.64 141.102888 
L 438.803099 141.102888 
" style="fill:none;stroke:#b0b0b0;stroke-linecap:square;stroke-width:0.8;"/>
     </g>
     <g id="line2d_20">
      <g>
       <use style="stroke:#000000;stroke-width:0.8;" x="33.64" xlink:href="#me099c7b1b8" y="141.102888"/>
      </g>
     </g>
     <g id="text_10">
      <!-- 0.8 -->
      <defs>
       <path d="M 31.78125 34.625 
Q 24.75 34.625 20.71875 30.859375 
Q 16.703125 27.09375 16.703125 20.515625 
Q 16.703125 13.921875 20.71875 10.15625 
Q 24.75 6.390625 31.78125 6.390625 
Q 38.8125 6.390625 42.859375 10.171875 
Q 46.921875 13.96875 46.921875 20.515625 
Q 46.921875 27.09375 42.890625 30.859375 
Q 38.875 34.625 31.78125 34.625 
z
M 21.921875 38.8125 
Q 15.578125 40.375 12.03125 44.71875 
Q 8.5 49.078125 8.5 55.328125 
Q 8.5 64.0625 14.71875 69.140625 
Q 20.953125 74.21875 31.78125 74.21875 
Q 42.671875 74.21875 48.875 69.140625 
Q 55.078125 64.0625 55.078125 55.328125 
Q 55.078125 49.078125 51.53125 44.71875 
Q 48 40.375 41.703125 38.8125 
Q 48.828125 37.15625 52.796875 32.3125 
Q 56.78125 27.484375 56.78125 20.515625 
Q 56.78125 9.90625 50.3125 4.234375 
Q 43.84375 -1.421875 31.78125 -1.421875 
Q 19.734375 -1.421875 13.25 4.234375 
Q 6.78125 9.90625 6.78125 20.515625 
Q 6.78125 27.484375 10.78125 32.3125 
Q 14.796875 37.15625 21.921875 38.8125 
z
M 18.3125 54.390625 
Q 18.3125 48.734375 21.84375 45.5625 
Q 25.390625 42.390625 31.78125 42.390625 
Q 38.140625 42.390625 41.71875 45.5625 
Q 45.3125 48.734375 45.3125 54.390625 
Q 45.3125 60.0625 41.71875 63.234375 
Q 38.140625 66.40625 31.78125 66.40625 
Q 25.390625 66.40625 21.84375 63.234375 
Q 18.3125 60.0625 18.3125 54.390625 
z
" id="DejaVuSans-56"/>
      </defs>
      <g transform="translate(10.736875 144.902106)scale(0.1 -0.1)">
       <use xlink:href="#DejaVuSans-48"/>
       <use x="63.623047" xlink:href="#DejaVuSans-46"/>
       <use x="95.410156" xlink:href="#DejaVuSans-56"/>
      </g>
     </g>
    </g>
    <g id="ytick_5">
     <g id="line2d_21">
      <path clip-path="url(#pe888438325)" d="M 33.64 84.129626 
L 438.803099 84.129626 
" style="fill:none;stroke:#b0b0b0;stroke-linecap:square;stroke-width:0.8;"/>
     </g>
     <g id="line2d_22">
      <g>
       <use style="stroke:#000000;stroke-width:0.8;" x="33.64" xlink:href="#me099c7b1b8" y="84.129626"/>
      </g>
     </g>
     <g id="text_11">
      <!-- 0.9 -->
      <defs>
       <path d="M 10.984375 1.515625 
L 10.984375 10.5 
Q 14.703125 8.734375 18.5 7.8125 
Q 22.3125 6.890625 25.984375 6.890625 
Q 35.75 6.890625 40.890625 13.453125 
Q 46.046875 20.015625 46.78125 33.40625 
Q 43.953125 29.203125 39.59375 26.953125 
Q 35.25 24.703125 29.984375 24.703125 
Q 19.046875 24.703125 12.671875 31.3125 
Q 6.296875 37.9375 6.296875 49.421875 
Q 6.296875 60.640625 12.9375 67.421875 
Q 19.578125 74.21875 30.609375 74.21875 
Q 43.265625 74.21875 49.921875 64.515625 
Q 56.59375 54.828125 56.59375 36.375 
Q 56.59375 19.140625 48.40625 8.859375 
Q 40.234375 -1.421875 26.421875 -1.421875 
Q 22.703125 -1.421875 18.890625 -0.6875 
Q 15.09375 0.046875 10.984375 1.515625 
z
M 30.609375 32.421875 
Q 37.25 32.421875 41.125 36.953125 
Q 45.015625 41.5 45.015625 49.421875 
Q 45.015625 57.28125 41.125 61.84375 
Q 37.25 66.40625 30.609375 66.40625 
Q 23.96875 66.40625 20.09375 61.84375 
Q 16.21875 57.28125 16.21875 49.421875 
Q 16.21875 41.5 20.09375 36.953125 
Q 23.96875 32.421875 30.609375 32.421875 
z
" id="DejaVuSans-57"/>
      </defs>
      <g transform="translate(10.736875 87.928844)scale(0.1 -0.1)">
       <use xlink:href="#DejaVuSans-48"/>
       <use x="63.623047" xlink:href="#DejaVuSans-46"/>
       <use x="95.410156" xlink:href="#DejaVuSans-57"/>
      </g>
     </g>
    </g>
    <g id="ytick_6">
     <g id="line2d_23">
      <path clip-path="url(#pe888438325)" d="M 33.64 27.156364 
L 438.803099 27.156364 
" style="fill:none;stroke:#b0b0b0;stroke-linecap:square;stroke-width:0.8;"/>
     </g>
     <g id="line2d_24">
      <g>
       <use style="stroke:#000000;stroke-width:0.8;" x="33.64" xlink:href="#me099c7b1b8" y="27.156364"/>
      </g>
     </g>
     <g id="text_12">
      <!-- 1.0 -->
      <g transform="translate(10.736875 30.955582)scale(0.1 -0.1)">
       <use xlink:href="#DejaVuSans-49"/>
       <use x="63.623047" xlink:href="#DejaVuSans-46"/>
       <use x="95.410156" xlink:href="#DejaVuSans-48"/>
      </g>
     </g>
    </g>
   </g>
   <g id="line2d_25">
    <path clip-path="url(#pe888438325)" d="M 53.0957 274.040499 
L 55.215443 236.058324 
L 57.335187 217.067237 
L 59.45493 217.067237 
L 61.574674 217.067237 
L 63.694417 198.07615 
L 65.814161 198.07615 
L 67.933904 198.07615 
L 70.053647 198.07615 
L 72.173391 198.07615 
L 74.293134 198.07615 
L 76.412878 179.085062 
L 78.532621 179.085062 
L 80.652365 179.085062 
L 82.772108 179.085062 
L 84.891852 179.085062 
L 87.011595 179.085062 
L 89.131339 179.085062 
L 91.251082 179.085062 
L 93.370825 179.085062 
L 95.490569 179.085062 
L 97.610312 179.085062 
L 99.730056 179.085062 
L 101.849799 141.102888 
L 103.969543 141.102888 
L 106.089286 141.102888 
L 108.20903 141.102888 
L 110.328773 141.102888 
L 112.448516 141.102888 
L 114.56826 141.102888 
L 116.688003 122.1118 
L 118.807747 103.120713 
L 120.92749 103.120713 
L 123.047234 103.120713 
L 125.166977 103.120713 
L 127.286721 103.120713 
L 129.406464 103.120713 
L 131.526208 103.120713 
L 133.645951 84.129626 
L 135.765694 84.129626 
L 137.885438 84.129626 
L 140.005181 84.129626 
L 142.124925 84.129626 
L 144.244668 84.129626 
L 146.364412 84.129626 
L 148.484155 84.129626 
L 150.603899 84.129626 
L 152.723642 84.129626 
L 154.843386 84.129626 
L 156.963129 65.138538 
L 159.082872 65.138538 
L 161.202616 65.138538 
L 163.322359 65.138538 
L 165.442103 65.138538 
L 167.561846 65.138538 
L 169.68159 65.138538 
L 171.801333 65.138538 
L 173.921077 65.138538 
L 176.04082 65.138538 
L 178.160563 65.138538 
L 180.280307 65.138538 
L 182.40005 65.138538 
L 184.519794 65.138538 
L 186.639537 65.138538 
L 188.759281 65.138538 
L 190.879024 65.138538 
L 192.998768 65.138538 
L 195.118511 65.138538 
L 197.238255 65.138538 
L 199.357998 65.138538 
L 201.477741 65.138538 
L 203.597485 65.138538 
L 205.717228 65.138538 
L 207.836972 65.138538 
L 209.956715 65.138538 
L 212.076459 65.138538 
L 214.196202 46.147451 
L 216.315946 46.147451 
L 218.435689 46.147451 
L 220.555432 46.147451 
L 222.675176 46.147451 
L 224.794919 46.147451 
L 226.914663 46.147451 
L 229.034406 46.147451 
L 231.15415 46.147451 
L 233.273893 46.147451 
L 235.393637 46.147451 
L 237.51338 46.147451 
L 239.633124 46.147451 
L 241.752867 46.147451 
L 243.87261 46.147451 
L 245.992354 46.147451 
L 248.112097 46.147451 
L 250.231841 46.147451 
L 252.351584 46.147451 
L 254.471328 46.147451 
L 256.591071 46.147451 
L 258.710815 46.147451 
L 260.830558 46.147451 
L 262.950302 27.156364 
" style="fill:none;stroke:#1f77b4;stroke-linecap:square;stroke-width:1.5;"/>
   </g>
   <g id="line2d_26">
    <path clip-path="url(#pe888438325)" d="M 52.056505 271.327487 
L 53.139611 108.546738 
L 54.222717 108.546738 
L 55.305824 108.546738 
L 56.38893 108.546738 
L 57.472037 108.546738 
L 58.555143 108.546738 
L 59.63825 108.546738 
L 60.721356 108.546738 
L 61.804462 108.546738 
L 62.887569 108.546738 
L 63.970675 108.546738 
L 65.053782 108.546738 
L 66.136888 108.546738 
L 67.219995 108.546738 
L 68.303101 108.546738 
L 69.386208 108.546738 
L 70.469314 108.546738 
L 71.55242 108.546738 
L 72.635527 108.546738 
L 73.718633 108.546738 
L 74.80174 108.546738 
L 75.884846 108.546738 
L 76.967953 108.546738 
L 78.051059 108.546738 
L 79.134165 108.546738 
L 80.217272 108.546738 
L 81.300378 108.546738 
L 82.383485 108.546738 
L 83.466591 108.546738 
L 84.549698 108.546738 
L 85.632804 108.546738 
L 86.715911 108.546738 
L 87.799017 108.546738 
L 88.882123 108.546738 
L 89.96523 108.546738 
L 91.048336 108.546738 
L 92.131443 108.546738 
L 93.214549 108.546738 
L 94.297656 108.546738 
L 95.380762 108.546738 
L 96.463869 108.546738 
L 97.546975 108.546738 
L 98.630081 108.546738 
L 99.713188 108.546738 
L 100.796294 108.546738 
L 101.879401 108.546738 
L 102.962507 108.546738 
L 104.045614 108.546738 
L 105.12872 108.546738 
L 106.211826 108.546738 
L 107.294933 108.546738 
L 108.378039 108.546738 
L 109.461146 108.546738 
L 110.544252 108.546738 
L 111.627359 108.546738 
L 112.710465 108.546738 
L 113.793572 108.546738 
L 114.876678 108.546738 
L 115.959784 108.546738 
L 117.042891 108.546738 
L 118.125997 108.546738 
L 119.209104 108.546738 
L 120.29221 108.546738 
L 121.375317 108.546738 
L 122.458423 108.546738 
L 123.54153 108.546738 
L 124.624636 108.546738 
L 125.707742 108.546738 
L 126.790849 108.546738 
L 127.873955 108.546738 
L 128.957062 108.546738 
L 130.040168 108.546738 
L 131.123275 108.546738 
L 132.206381 108.546738 
L 133.289487 108.546738 
L 134.372594 108.546738 
L 135.4557 108.546738 
L 136.538807 108.546738 
L 137.621913 108.546738 
L 138.70502 108.546738 
L 139.788126 108.546738 
L 140.871233 108.546738 
L 141.954339 108.546738 
L 143.037445 108.546738 
L 144.120552 108.546738 
L 145.203658 108.546738 
L 146.286765 108.546738 
L 147.369871 108.546738 
L 148.452978 108.546738 
L 149.536084 108.546738 
L 150.619191 108.546738 
L 151.702297 108.546738 
L 152.785403 108.546738 
L 153.86851 108.546738 
L 154.951616 108.546738 
L 156.034723 108.546738 
L 157.117829 108.546738 
L 158.200936 108.546738 
L 159.284042 27.156364 
" style="fill:none;stroke:#ff7f0e;stroke-linecap:square;stroke-width:1.5;"/>
   </g>
   <g id="line2d_27">
    <path clip-path="url(#pe888438325)" d="M 54.300071 271.327487 
L 57.614113 271.327487 
L 60.928155 255.049412 
L 64.242196 255.049412 
L 67.556238 238.771337 
L 70.87028 238.771337 
L 74.184322 238.771337 
L 77.498364 238.771337 
L 80.812406 238.771337 
L 84.126448 222.493262 
L 87.440489 222.493262 
L 90.754531 222.493262 
L 94.068573 222.493262 
L 97.382615 222.493262 
L 100.696657 222.493262 
L 104.010699 189.937112 
L 107.32474 189.937112 
L 110.638782 189.937112 
L 113.952824 189.937112 
L 117.266866 157.380963 
L 120.580908 157.380963 
L 123.89495 157.380963 
L 127.208992 157.380963 
L 130.523033 157.380963 
L 133.837075 141.102888 
L 137.151117 141.102888 
L 140.465159 141.102888 
L 143.779201 141.102888 
L 147.093243 141.102888 
L 150.407285 141.102888 
L 153.721326 141.102888 
L 157.035368 141.102888 
L 160.34941 141.102888 
L 163.663452 124.824813 
L 166.977494 124.824813 
L 170.291536 124.824813 
L 173.605577 124.824813 
L 176.919619 124.824813 
L 180.233661 124.824813 
L 183.547703 124.824813 
L 186.861745 124.824813 
L 190.175787 124.824813 
L 193.489829 124.824813 
L 196.80387 124.824813 
L 200.117912 124.824813 
L 203.431954 124.824813 
L 206.745996 124.824813 
L 210.060038 124.824813 
L 213.37408 124.824813 
L 216.688122 124.824813 
L 220.002163 108.546738 
L 223.316205 108.546738 
L 226.630247 108.546738 
L 229.944289 108.546738 
L 233.258331 108.546738 
L 236.572373 108.546738 
L 239.886414 108.546738 
L 243.200456 108.546738 
L 246.514498 108.546738 
L 249.82854 108.546738 
L 253.142582 108.546738 
L 256.456624 108.546738 
L 259.770666 108.546738 
L 263.084707 108.546738 
L 266.398749 108.546738 
L 269.712791 108.546738 
L 273.026833 108.546738 
L 276.340875 108.546738 
L 279.654917 108.546738 
L 282.968959 108.546738 
L 286.283 108.546738 
L 289.597042 92.268663 
L 292.911084 92.268663 
L 296.225126 92.268663 
L 299.539168 92.268663 
L 302.85321 92.268663 
L 306.167251 92.268663 
L 309.481293 92.268663 
L 312.795335 92.268663 
L 316.109377 92.268663 
L 319.423419 92.268663 
L 322.737461 92.268663 
L 326.051503 92.268663 
L 329.365544 92.268663 
L 332.679586 92.268663 
L 335.993628 92.268663 
L 339.30767 92.268663 
L 342.621712 92.268663 
L 345.935754 92.268663 
L 349.249796 92.268663 
L 352.563837 92.268663 
L 355.877879 92.268663 
L 359.191921 92.268663 
L 362.505963 75.990588 
L 365.820005 43.434439 
L 369.134047 43.434439 
L 372.448088 43.434439 
L 375.76213 43.434439 
L 379.076172 43.434439 
L 382.390214 27.156364 
" style="fill:none;stroke:#2ca02c;stroke-linecap:square;stroke-width:1.5;"/>
   </g>
   <g id="line2d_28">
    <path clip-path="url(#pe888438325)" d="M 54.280436 271.327487 
L 57.587566 255.049412 
L 60.894695 255.049412 
L 64.201825 255.049412 
L 67.508954 238.771337 
L 70.816084 238.771337 
L 74.123213 238.771337 
L 77.430343 238.771337 
L 80.737473 238.771337 
L 84.044602 238.771337 
L 87.351732 238.771337 
L 90.658861 238.771337 
L 93.965991 238.771337 
L 97.27312 238.771337 
L 100.58025 238.771337 
L 103.887379 206.215187 
L 107.194509 206.215187 
L 110.501638 206.215187 
L 113.808768 206.215187 
L 117.115897 173.659037 
L 120.423027 173.659037 
L 123.730157 173.659037 
L 127.037286 173.659037 
L 130.344416 173.659037 
L 133.651545 141.102888 
L 136.958675 141.102888 
L 140.265804 141.102888 
L 143.572934 141.102888 
L 146.880063 141.102888 
L 150.187193 141.102888 
L 153.494322 141.102888 
L 156.801452 141.102888 
L 160.108581 141.102888 
L 163.415711 141.102888 
L 166.722841 124.824813 
L 170.02997 124.824813 
L 173.3371 124.824813 
L 176.644229 124.824813 
L 179.951359 124.824813 
L 183.258488 124.824813 
L 186.565618 124.824813 
L 189.872747 124.824813 
L 193.179877 124.824813 
L 196.487006 124.824813 
L 199.794136 124.824813 
L 203.101265 124.824813 
L 206.408395 124.824813 
L 209.715525 124.824813 
L 213.022654 124.824813 
L 216.329784 124.824813 
L 219.636913 124.824813 
L 222.944043 108.546738 
L 226.251172 108.546738 
L 229.558302 108.546738 
L 232.865431 108.546738 
L 236.172561 108.546738 
L 239.47969 108.546738 
L 242.78682 108.546738 
L 246.093949 108.546738 
L 249.401079 108.546738 
L 252.708209 108.546738 
L 256.015338 108.546738 
L 259.322468 108.546738 
L 262.629597 108.546738 
L 265.936727 108.546738 
L 269.243856 108.546738 
L 272.550986 108.546738 
L 275.858115 108.546738 
L 279.165245 108.546738 
L 282.472374 108.546738 
L 285.779504 108.546738 
L 289.086633 108.546738 
L 292.393763 108.546738 
L 295.700893 92.268663 
L 299.008022 92.268663 
L 302.315152 92.268663 
L 305.622281 92.268663 
L 308.929411 92.268663 
L 312.23654 92.268663 
L 315.54367 92.268663 
L 318.850799 92.268663 
L 322.157929 92.268663 
L 325.465058 92.268663 
L 328.772188 92.268663 
L 332.079317 92.268663 
L 335.386447 92.268663 
L 338.693576 92.268663 
L 342.000706 92.268663 
L 345.307836 92.268663 
L 348.614965 92.268663 
L 351.922095 92.268663 
L 355.229224 92.268663 
L 358.536354 92.268663 
L 361.843483 75.990588 
L 365.150613 59.712513 
L 368.457742 59.712513 
L 371.764872 59.712513 
L 375.072001 59.712513 
L 378.379131 59.712513 
L 381.68626 27.156364 
" style="fill:none;stroke:#d62728;stroke-linecap:square;stroke-width:1.5;"/>
   </g>
   <g id="line2d_29">
    <path clip-path="url(#pe888438325)" d="M 54.622425 303.883636 
L 58.317013 287.605561 
L 62.0116 287.605561 
L 65.706188 271.327487 
L 69.400775 271.327487 
L 73.095363 271.327487 
L 76.78995 255.049412 
L 80.484538 255.049412 
L 84.179126 255.049412 
L 87.873713 255.049412 
L 91.568301 255.049412 
L 95.262888 255.049412 
L 98.957476 238.771337 
L 102.652063 222.493262 
L 106.346651 222.493262 
L 110.041239 222.493262 
L 113.735826 222.493262 
L 117.430414 206.215187 
L 121.125001 206.215187 
L 124.819589 206.215187 
L 128.514176 206.215187 
L 132.208764 189.937112 
L 135.903352 189.937112 
L 139.597939 189.937112 
L 143.292527 189.937112 
L 146.987114 189.937112 
L 150.681702 189.937112 
L 154.376289 173.659037 
L 158.070877 173.659037 
L 161.765465 173.659037 
L 165.460052 173.659037 
L 169.15464 173.659037 
L 172.849227 173.659037 
L 176.543815 173.659037 
L 180.238402 173.659037 
L 183.93299 173.659037 
L 187.627578 157.380963 
L 191.322165 157.380963 
L 195.016753 157.380963 
L 198.71134 157.380963 
L 202.405928 157.380963 
L 206.100515 157.380963 
L 209.795103 157.380963 
L 213.489691 157.380963 
L 217.184278 157.380963 
L 220.878866 157.380963 
L 224.573453 157.380963 
L 228.268041 157.380963 
L 231.962628 157.380963 
L 235.657216 157.380963 
L 239.351804 157.380963 
L 243.046391 157.380963 
L 246.740979 157.380963 
L 250.435566 141.102888 
L 254.130154 141.102888 
L 257.824741 141.102888 
L 261.519329 141.102888 
L 265.213917 141.102888 
L 268.908504 141.102888 
L 272.603092 141.102888 
L 276.297679 141.102888 
L 279.992267 141.102888 
L 283.686854 141.102888 
L 287.381442 141.102888 
L 291.07603 141.102888 
L 294.770617 141.102888 
L 298.465205 141.102888 
L 302.159792 141.102888 
L 305.85438 141.102888 
L 309.548967 141.102888 
L 313.243555 141.102888 
L 316.938143 141.102888 
L 320.63273 141.102888 
L 324.327318 141.102888 
L 328.021905 124.824813 
L 331.716493 124.824813 
L 335.41108 124.824813 
L 339.105668 124.824813 
L 342.800256 124.824813 
L 346.494843 124.824813 
L 350.189431 124.824813 
L 353.884018 124.824813 
L 357.578606 124.824813 
L 361.273193 124.824813 
L 364.967781 124.824813 
L 368.662369 124.824813 
L 372.356956 124.824813 
L 376.051544 124.824813 
L 379.746131 124.824813 
L 383.440719 124.824813 
L 387.135306 124.824813 
L 390.829894 124.824813 
L 394.524482 108.546738 
L 398.219069 75.990588 
L 401.913657 59.712513 
L 405.608244 43.434439 
L 409.302832 43.434439 
L 412.997419 43.434439 
L 416.692007 43.434439 
L 420.386595 27.156364 
" style="fill:none;stroke:#9467bd;stroke-linecap:square;stroke-width:1.5;"/>
   </g>
   <g id="patch_3">
    <path d="M 33.64 317.72 
L 33.64 13.32 
" style="fill:none;stroke:#000000;stroke-linecap:square;stroke-linejoin:miter;stroke-width:0.8;"/>
   </g>
   <g id="patch_4">
    <path d="M 438.803099 317.72 
L 438.803099 13.32 
" style="fill:none;stroke:#000000;stroke-linecap:square;stroke-linejoin:miter;stroke-width:0.8;"/>
   </g>
   <g id="patch_5">
    <path d="M 33.64 317.72 
L 438.803099 317.72 
" style="fill:none;stroke:#000000;stroke-linecap:square;stroke-linejoin:miter;stroke-width:0.8;"/>
   </g>
   <g id="patch_6">
    <path d="M 33.64 13.32 
L 438.803099 13.32 
" style="fill:none;stroke:#000000;stroke-linecap:square;stroke-linejoin:miter;stroke-width:0.8;"/>
   </g>
   <g id="legend_1">
    <g id="patch_7">
     <path d="M 330.781224 312.72 
L 431.803099 312.72 
Q 433.803099 312.72 433.803099 310.72 
L 433.803099 182.340312 
Q 433.803099 180.340312 431.803099 180.340312 
L 330.781224 180.340312 
Q 328.781224 180.340312 328.781224 182.340312 
L 328.781224 310.72 
Q 328.781224 312.72 330.781224 312.72 
z
" style="fill:#ffffff;opacity:0.8;stroke:#cccccc;stroke-linejoin:miter;"/>
    </g>
    <g id="line2d_30">
     <path d="M 332.781224 195.0775 
L 352.781224 195.0775 
" style="fill:none;stroke:#1f77b4;stroke-linecap:square;stroke-width:1.5;"/>
    </g>
    <g id="line2d_31"/>
    <g id="text_13">
     <!-- Baseline  -->
     <defs>
      <path d="M 19.671875 34.8125 
L 19.671875 8.109375 
L 35.5 8.109375 
Q 43.453125 8.109375 47.28125 11.40625 
Q 51.125 14.703125 51.125 21.484375 
Q 51.125 28.328125 47.28125 31.5625 
Q 43.453125 34.8125 35.5 34.8125 
z
M 19.671875 64.796875 
L 19.671875 42.828125 
L 34.28125 42.828125 
Q 41.5 42.828125 45.03125 45.53125 
Q 48.578125 48.25 48.578125 53.8125 
Q 48.578125 59.328125 45.03125 62.0625 
Q 41.5 64.796875 34.28125 64.796875 
z
M 9.8125 72.90625 
L 35.015625 72.90625 
Q 46.296875 72.90625 52.390625 68.21875 
Q 58.5 63.53125 58.5 54.890625 
Q 58.5 48.1875 55.375 44.234375 
Q 52.25 40.28125 46.1875 39.3125 
Q 53.46875 37.75 57.5 32.78125 
Q 61.53125 27.828125 61.53125 20.40625 
Q 61.53125 10.640625 54.890625 5.3125 
Q 48.25 0 35.984375 0 
L 9.8125 0 
z
" id="DejaVuSans-66"/>
      <path d="M 34.28125 27.484375 
Q 23.390625 27.484375 19.1875 25 
Q 14.984375 22.515625 14.984375 16.5 
Q 14.984375 11.71875 18.140625 8.90625 
Q 21.296875 6.109375 26.703125 6.109375 
Q 34.1875 6.109375 38.703125 11.40625 
Q 43.21875 16.703125 43.21875 25.484375 
L 43.21875 27.484375 
z
M 52.203125 31.203125 
L 52.203125 0 
L 43.21875 0 
L 43.21875 8.296875 
Q 40.140625 3.328125 35.546875 0.953125 
Q 30.953125 -1.421875 24.3125 -1.421875 
Q 15.921875 -1.421875 10.953125 3.296875 
Q 6 8.015625 6 15.921875 
Q 6 25.140625 12.171875 29.828125 
Q 18.359375 34.515625 30.609375 34.515625 
L 43.21875 34.515625 
L 43.21875 35.40625 
Q 43.21875 41.609375 39.140625 45 
Q 35.0625 48.390625 27.6875 48.390625 
Q 23 48.390625 18.546875 47.265625 
Q 14.109375 46.140625 10.015625 43.890625 
L 10.015625 52.203125 
Q 14.9375 54.109375 19.578125 55.046875 
Q 24.21875 56 28.609375 56 
Q 40.484375 56 46.34375 49.84375 
Q 52.203125 43.703125 52.203125 31.203125 
z
" id="DejaVuSans-97"/>
      <path d="M 44.28125 53.078125 
L 44.28125 44.578125 
Q 40.484375 46.53125 36.375 47.5 
Q 32.28125 48.484375 27.875 48.484375 
Q 21.1875 48.484375 17.84375 46.4375 
Q 14.5 44.390625 14.5 40.28125 
Q 14.5 37.15625 16.890625 35.375 
Q 19.28125 33.59375 26.515625 31.984375 
L 29.59375 31.296875 
Q 39.15625 29.25 43.1875 25.515625 
Q 47.21875 21.78125 47.21875 15.09375 
Q 47.21875 7.46875 41.1875 3.015625 
Q 35.15625 -1.421875 24.609375 -1.421875 
Q 20.21875 -1.421875 15.453125 -0.5625 
Q 10.6875 0.296875 5.421875 2 
L 5.421875 11.28125 
Q 10.40625 8.6875 15.234375 7.390625 
Q 20.0625 6.109375 24.8125 6.109375 
Q 31.15625 6.109375 34.5625 8.28125 
Q 37.984375 10.453125 37.984375 14.40625 
Q 37.984375 18.0625 35.515625 20.015625 
Q 33.0625 21.96875 24.703125 23.78125 
L 21.578125 24.515625 
Q 13.234375 26.265625 9.515625 29.90625 
Q 5.8125 33.546875 5.8125 39.890625 
Q 5.8125 47.609375 11.28125 51.796875 
Q 16.75 56 26.8125 56 
Q 31.78125 56 36.171875 55.265625 
Q 40.578125 54.546875 44.28125 53.078125 
z
" id="DejaVuSans-115"/>
      <path d="M 56.203125 29.59375 
L 56.203125 25.203125 
L 14.890625 25.203125 
Q 15.484375 15.921875 20.484375 11.0625 
Q 25.484375 6.203125 34.421875 6.203125 
Q 39.59375 6.203125 44.453125 7.46875 
Q 49.3125 8.734375 54.109375 11.28125 
L 54.109375 2.78125 
Q 49.265625 0.734375 44.1875 -0.34375 
Q 39.109375 -1.421875 33.890625 -1.421875 
Q 20.796875 -1.421875 13.15625 6.1875 
Q 5.515625 13.8125 5.515625 26.8125 
Q 5.515625 40.234375 12.765625 48.109375 
Q 20.015625 56 32.328125 56 
Q 43.359375 56 49.78125 48.890625 
Q 56.203125 41.796875 56.203125 29.59375 
z
M 47.21875 32.234375 
Q 47.125 39.59375 43.09375 43.984375 
Q 39.0625 48.390625 32.421875 48.390625 
Q 24.90625 48.390625 20.390625 44.140625 
Q 15.875 39.890625 15.1875 32.171875 
z
" id="DejaVuSans-101"/>
      <path d="M 9.421875 75.984375 
L 18.40625 75.984375 
L 18.40625 0 
L 9.421875 0 
z
" id="DejaVuSans-108"/>
      <path d="M 9.421875 54.6875 
L 18.40625 54.6875 
L 18.40625 0 
L 9.421875 0 
z
M 9.421875 75.984375 
L 18.40625 75.984375 
L 18.40625 64.59375 
L 9.421875 64.59375 
z
" id="DejaVuSans-105"/>
      <path d="M 54.890625 33.015625 
L 54.890625 0 
L 45.90625 0 
L 45.90625 32.71875 
Q 45.90625 40.484375 42.875 44.328125 
Q 39.84375 48.1875 33.796875 48.1875 
Q 26.515625 48.1875 22.3125 43.546875 
Q 18.109375 38.921875 18.109375 30.90625 
L 18.109375 0 
L 9.078125 0 
L 9.078125 54.6875 
L 18.109375 54.6875 
L 18.109375 46.1875 
Q 21.34375 51.125 25.703125 53.5625 
Q 30.078125 56 35.796875 56 
Q 45.21875 56 50.046875 50.171875 
Q 54.890625 44.34375 54.890625 33.015625 
z
" id="DejaVuSans-110"/>
      <path id="DejaVuSans-32"/>
     </defs>
     <g transform="translate(360.781224 191.93875)scale(0.1 -0.1)">
      <use xlink:href="#DejaVuSans-66"/>
      <use x="68.603516" xlink:href="#DejaVuSans-97"/>
      <use x="129.882812" xlink:href="#DejaVuSans-115"/>
      <use x="181.982422" xlink:href="#DejaVuSans-101"/>
      <use x="243.505859" xlink:href="#DejaVuSans-108"/>
      <use x="271.289062" xlink:href="#DejaVuSans-105"/>
      <use x="299.072266" xlink:href="#DejaVuSans-110"/>
      <use x="362.451172" xlink:href="#DejaVuSans-101"/>
      <use x="423.974609" xlink:href="#DejaVuSans-32"/>
     </g>
     <!-- Performance -->
     <defs>
      <path d="M 19.671875 64.796875 
L 19.671875 37.40625 
L 32.078125 37.40625 
Q 38.96875 37.40625 42.71875 40.96875 
Q 46.484375 44.53125 46.484375 51.125 
Q 46.484375 57.671875 42.71875 61.234375 
Q 38.96875 64.796875 32.078125 64.796875 
z
M 9.8125 72.90625 
L 32.078125 72.90625 
Q 44.34375 72.90625 50.609375 67.359375 
Q 56.890625 61.8125 56.890625 51.125 
Q 56.890625 40.328125 50.609375 34.8125 
Q 44.34375 29.296875 32.078125 29.296875 
L 19.671875 29.296875 
L 19.671875 0 
L 9.8125 0 
z
" id="DejaVuSans-80"/>
      <path d="M 41.109375 46.296875 
Q 39.59375 47.171875 37.8125 47.578125 
Q 36.03125 48 33.890625 48 
Q 26.265625 48 22.1875 43.046875 
Q 18.109375 38.09375 18.109375 28.8125 
L 18.109375 0 
L 9.078125 0 
L 9.078125 54.6875 
L 18.109375 54.6875 
L 18.109375 46.1875 
Q 20.953125 51.171875 25.484375 53.578125 
Q 30.03125 56 36.53125 56 
Q 37.453125 56 38.578125 55.875 
Q 39.703125 55.765625 41.0625 55.515625 
z
" id="DejaVuSans-114"/>
      <path d="M 37.109375 75.984375 
L 37.109375 68.5 
L 28.515625 68.5 
Q 23.6875 68.5 21.796875 66.546875 
Q 19.921875 64.59375 19.921875 59.515625 
L 19.921875 54.6875 
L 34.71875 54.6875 
L 34.71875 47.703125 
L 19.921875 47.703125 
L 19.921875 0 
L 10.890625 0 
L 10.890625 47.703125 
L 2.296875 47.703125 
L 2.296875 54.6875 
L 10.890625 54.6875 
L 10.890625 58.5 
Q 10.890625 67.625 15.140625 71.796875 
Q 19.390625 75.984375 28.609375 75.984375 
z
" id="DejaVuSans-102"/>
      <path d="M 30.609375 48.390625 
Q 23.390625 48.390625 19.1875 42.75 
Q 14.984375 37.109375 14.984375 27.296875 
Q 14.984375 17.484375 19.15625 11.84375 
Q 23.34375 6.203125 30.609375 6.203125 
Q 37.796875 6.203125 41.984375 11.859375 
Q 46.1875 17.53125 46.1875 27.296875 
Q 46.1875 37.015625 41.984375 42.703125 
Q 37.796875 48.390625 30.609375 48.390625 
z
M 30.609375 56 
Q 42.328125 56 49.015625 48.375 
Q 55.71875 40.765625 55.71875 27.296875 
Q 55.71875 13.875 49.015625 6.21875 
Q 42.328125 -1.421875 30.609375 -1.421875 
Q 18.84375 -1.421875 12.171875 6.21875 
Q 5.515625 13.875 5.515625 27.296875 
Q 5.515625 40.765625 12.171875 48.375 
Q 18.84375 56 30.609375 56 
z
" id="DejaVuSans-111"/>
      <path d="M 52 44.1875 
Q 55.375 50.25 60.0625 53.125 
Q 64.75 56 71.09375 56 
Q 79.640625 56 84.28125 50.015625 
Q 88.921875 44.046875 88.921875 33.015625 
L 88.921875 0 
L 79.890625 0 
L 79.890625 32.71875 
Q 79.890625 40.578125 77.09375 44.375 
Q 74.3125 48.1875 68.609375 48.1875 
Q 61.625 48.1875 57.5625 43.546875 
Q 53.515625 38.921875 53.515625 30.90625 
L 53.515625 0 
L 44.484375 0 
L 44.484375 32.71875 
Q 44.484375 40.625 41.703125 44.40625 
Q 38.921875 48.1875 33.109375 48.1875 
Q 26.21875 48.1875 22.15625 43.53125 
Q 18.109375 38.875 18.109375 30.90625 
L 18.109375 0 
L 9.078125 0 
L 9.078125 54.6875 
L 18.109375 54.6875 
L 18.109375 46.1875 
Q 21.1875 51.21875 25.484375 53.609375 
Q 29.78125 56 35.6875 56 
Q 41.65625 56 45.828125 52.96875 
Q 50 49.953125 52 44.1875 
z
" id="DejaVuSans-109"/>
      <path d="M 48.78125 52.59375 
L 48.78125 44.1875 
Q 44.96875 46.296875 41.140625 47.34375 
Q 37.3125 48.390625 33.40625 48.390625 
Q 24.65625 48.390625 19.8125 42.84375 
Q 14.984375 37.3125 14.984375 27.296875 
Q 14.984375 17.28125 19.8125 11.734375 
Q 24.65625 6.203125 33.40625 6.203125 
Q 37.3125 6.203125 41.140625 7.25 
Q 44.96875 8.296875 48.78125 10.40625 
L 48.78125 2.09375 
Q 45.015625 0.34375 40.984375 -0.53125 
Q 36.96875 -1.421875 32.421875 -1.421875 
Q 20.0625 -1.421875 12.78125 6.34375 
Q 5.515625 14.109375 5.515625 27.296875 
Q 5.515625 40.671875 12.859375 48.328125 
Q 20.21875 56 33.015625 56 
Q 37.15625 56 41.109375 55.140625 
Q 45.0625 54.296875 48.78125 52.59375 
z
" id="DejaVuSans-99"/>
     </defs>
     <g transform="translate(360.781224 203.136562)scale(0.1 -0.1)">
      <use xlink:href="#DejaVuSans-80"/>
      <use x="60.255859" xlink:href="#DejaVuSans-101"/>
      <use x="121.779297" xlink:href="#DejaVuSans-114"/>
      <use x="162.892578" xlink:href="#DejaVuSans-102"/>
      <use x="198.097656" xlink:href="#DejaVuSans-111"/>
      <use x="259.279297" xlink:href="#DejaVuSans-114"/>
      <use x="300.376953" xlink:href="#DejaVuSans-109"/>
      <use x="397.789062" xlink:href="#DejaVuSans-97"/>
      <use x="459.068359" xlink:href="#DejaVuSans-110"/>
      <use x="522.447266" xlink:href="#DejaVuSans-99"/>
      <use x="577.427734" xlink:href="#DejaVuSans-101"/>
     </g>
    </g>
    <g id="line2d_32">
     <path d="M 332.781224 220.953437 
L 352.781224 220.953437 
" style="fill:none;stroke:#ff7f0e;stroke-linecap:square;stroke-width:1.5;"/>
    </g>
    <g id="line2d_33"/>
    <g id="text_14">
     <!-- Memory limit  -->
     <defs>
      <path d="M 9.8125 72.90625 
L 24.515625 72.90625 
L 43.109375 23.296875 
L 61.8125 72.90625 
L 76.515625 72.90625 
L 76.515625 0 
L 66.890625 0 
L 66.890625 64.015625 
L 48.09375 14.015625 
L 38.1875 14.015625 
L 19.390625 64.015625 
L 19.390625 0 
L 9.8125 0 
z
" id="DejaVuSans-77"/>
      <path d="M 32.171875 -5.078125 
Q 28.375 -14.84375 24.75 -17.8125 
Q 21.140625 -20.796875 15.09375 -20.796875 
L 7.90625 -20.796875 
L 7.90625 -13.28125 
L 13.1875 -13.28125 
Q 16.890625 -13.28125 18.9375 -11.515625 
Q 21 -9.765625 23.484375 -3.21875 
L 25.09375 0.875 
L 2.984375 54.6875 
L 12.5 54.6875 
L 29.59375 11.921875 
L 46.6875 54.6875 
L 56.203125 54.6875 
z
" id="DejaVuSans-121"/>
      <path d="M 18.3125 70.21875 
L 18.3125 54.6875 
L 36.8125 54.6875 
L 36.8125 47.703125 
L 18.3125 47.703125 
L 18.3125 18.015625 
Q 18.3125 11.328125 20.140625 9.421875 
Q 21.96875 7.515625 27.59375 7.515625 
L 36.8125 7.515625 
L 36.8125 0 
L 27.59375 0 
Q 17.1875 0 13.234375 3.875 
Q 9.28125 7.765625 9.28125 18.015625 
L 9.28125 47.703125 
L 2.6875 47.703125 
L 2.6875 54.6875 
L 9.28125 54.6875 
L 9.28125 70.21875 
z
" id="DejaVuSans-116"/>
     </defs>
     <g transform="translate(360.781224 217.814687)scale(0.1 -0.1)">
      <use xlink:href="#DejaVuSans-77"/>
      <use x="86.279297" xlink:href="#DejaVuSans-101"/>
      <use x="147.802734" xlink:href="#DejaVuSans-109"/>
      <use x="245.214844" xlink:href="#DejaVuSans-111"/>
      <use x="306.396484" xlink:href="#DejaVuSans-114"/>
      <use x="347.509766" xlink:href="#DejaVuSans-121"/>
      <use x="406.689453" xlink:href="#DejaVuSans-32"/>
      <use x="438.476562" xlink:href="#DejaVuSans-108"/>
      <use x="466.259766" xlink:href="#DejaVuSans-105"/>
      <use x="494.042969" xlink:href="#DejaVuSans-109"/>
      <use x="591.455078" xlink:href="#DejaVuSans-105"/>
      <use x="619.238281" xlink:href="#DejaVuSans-116"/>
      <use x="658.447266" xlink:href="#DejaVuSans-32"/>
     </g>
     <!-- at 1mb -->
     <defs>
      <path d="M 48.6875 27.296875 
Q 48.6875 37.203125 44.609375 42.84375 
Q 40.53125 48.484375 33.40625 48.484375 
Q 26.265625 48.484375 22.1875 42.84375 
Q 18.109375 37.203125 18.109375 27.296875 
Q 18.109375 17.390625 22.1875 11.75 
Q 26.265625 6.109375 33.40625 6.109375 
Q 40.53125 6.109375 44.609375 11.75 
Q 48.6875 17.390625 48.6875 27.296875 
z
M 18.109375 46.390625 
Q 20.953125 51.265625 25.265625 53.625 
Q 29.59375 56 35.59375 56 
Q 45.5625 56 51.78125 48.09375 
Q 58.015625 40.1875 58.015625 27.296875 
Q 58.015625 14.40625 51.78125 6.484375 
Q 45.5625 -1.421875 35.59375 -1.421875 
Q 29.59375 -1.421875 25.265625 0.953125 
Q 20.953125 3.328125 18.109375 8.203125 
L 18.109375 0 
L 9.078125 0 
L 9.078125 75.984375 
L 18.109375 75.984375 
z
" id="DejaVuSans-98"/>
     </defs>
     <g transform="translate(360.781224 229.0125)scale(0.1 -0.1)">
      <use xlink:href="#DejaVuSans-97"/>
      <use x="61.279297" xlink:href="#DejaVuSans-116"/>
      <use x="100.488281" xlink:href="#DejaVuSans-32"/>
      <use x="132.275391" xlink:href="#DejaVuSans-49"/>
      <use x="195.898438" xlink:href="#DejaVuSans-109"/>
      <use x="293.310547" xlink:href="#DejaVuSans-98"/>
     </g>
    </g>
    <g id="line2d_34">
     <path d="M 332.781224 246.829375 
L 352.781224 246.829375 
" style="fill:none;stroke:#2ca02c;stroke-linecap:square;stroke-width:1.5;"/>
    </g>
    <g id="line2d_35"/>
    <g id="text_15">
     <!-- Memory limit  -->
     <g transform="translate(360.781224 243.690625)scale(0.1 -0.1)">
      <use xlink:href="#DejaVuSans-77"/>
      <use x="86.279297" xlink:href="#DejaVuSans-101"/>
      <use x="147.802734" xlink:href="#DejaVuSans-109"/>
      <use x="245.214844" xlink:href="#DejaVuSans-111"/>
      <use x="306.396484" xlink:href="#DejaVuSans-114"/>
      <use x="347.509766" xlink:href="#DejaVuSans-121"/>
      <use x="406.689453" xlink:href="#DejaVuSans-32"/>
      <use x="438.476562" xlink:href="#DejaVuSans-108"/>
      <use x="466.259766" xlink:href="#DejaVuSans-105"/>
      <use x="494.042969" xlink:href="#DejaVuSans-109"/>
      <use x="591.455078" xlink:href="#DejaVuSans-105"/>
      <use x="619.238281" xlink:href="#DejaVuSans-116"/>
      <use x="658.447266" xlink:href="#DejaVuSans-32"/>
     </g>
     <!-- at 5mb -->
     <g transform="translate(360.781224 254.888437)scale(0.1 -0.1)">
      <use xlink:href="#DejaVuSans-97"/>
      <use x="61.279297" xlink:href="#DejaVuSans-116"/>
      <use x="100.488281" xlink:href="#DejaVuSans-32"/>
      <use x="132.275391" xlink:href="#DejaVuSans-53"/>
      <use x="195.898438" xlink:href="#DejaVuSans-109"/>
      <use x="293.310547" xlink:href="#DejaVuSans-98"/>
     </g>
    </g>
    <g id="line2d_36">
     <path d="M 332.781224 272.705312 
L 352.781224 272.705312 
" style="fill:none;stroke:#d62728;stroke-linecap:square;stroke-width:1.5;"/>
    </g>
    <g id="line2d_37"/>
    <g id="text_16">
     <!-- Memory limit  -->
     <g transform="translate(360.781224 269.566562)scale(0.1 -0.1)">
      <use xlink:href="#DejaVuSans-77"/>
      <use x="86.279297" xlink:href="#DejaVuSans-101"/>
      <use x="147.802734" xlink:href="#DejaVuSans-109"/>
      <use x="245.214844" xlink:href="#DejaVuSans-111"/>
      <use x="306.396484" xlink:href="#DejaVuSans-114"/>
      <use x="347.509766" xlink:href="#DejaVuSans-121"/>
      <use x="406.689453" xlink:href="#DejaVuSans-32"/>
      <use x="438.476562" xlink:href="#DejaVuSans-108"/>
      <use x="466.259766" xlink:href="#DejaVuSans-105"/>
      <use x="494.042969" xlink:href="#DejaVuSans-109"/>
      <use x="591.455078" xlink:href="#DejaVuSans-105"/>
      <use x="619.238281" xlink:href="#DejaVuSans-116"/>
      <use x="658.447266" xlink:href="#DejaVuSans-32"/>
     </g>
     <!-- at 10mb -->
     <g transform="translate(360.781224 280.764375)scale(0.1 -0.1)">
      <use xlink:href="#DejaVuSans-97"/>
      <use x="61.279297" xlink:href="#DejaVuSans-116"/>
      <use x="100.488281" xlink:href="#DejaVuSans-32"/>
      <use x="132.275391" xlink:href="#DejaVuSans-49"/>
      <use x="195.898438" xlink:href="#DejaVuSans-48"/>
      <use x="259.521484" xlink:href="#DejaVuSans-109"/>
      <use x="356.933594" xlink:href="#DejaVuSans-98"/>
     </g>
    </g>
    <g id="line2d_38">
     <path d="M 332.781224 298.58125 
L 352.781224 298.58125 
" style="fill:none;stroke:#9467bd;stroke-linecap:square;stroke-width:1.5;"/>
    </g>
    <g id="line2d_39"/>
    <g id="text_17">
     <!-- Memory limit  -->
     <g transform="translate(360.781224 295.4425)scale(0.1 -0.1)">
      <use xlink:href="#DejaVuSans-77"/>
      <use x="86.279297" xlink:href="#DejaVuSans-101"/>
      <use x="147.802734" xlink:href="#DejaVuSans-109"/>
      <use x="245.214844" xlink:href="#DejaVuSans-111"/>
      <use x="306.396484" xlink:href="#DejaVuSans-114"/>
      <use x="347.509766" xlink:href="#DejaVuSans-121"/>
      <use x="406.689453" xlink:href="#DejaVuSans-32"/>
      <use x="438.476562" xlink:href="#DejaVuSans-108"/>
      <use x="466.259766" xlink:href="#DejaVuSans-105"/>
      <use x="494.042969" xlink:href="#DejaVuSans-109"/>
      <use x="591.455078" xlink:href="#DejaVuSans-105"/>
      <use x="619.238281" xlink:href="#DejaVuSans-116"/>
      <use x="658.447266" xlink:href="#DejaVuSans-32"/>
     </g>
     <!-- at 15mb -->
     <g transform="translate(360.781224 306.640312)scale(0.1 -0.1)">
      <use xlink:href="#DejaVuSans-97"/>
      <use x="61.279297" xlink:href="#DejaVuSans-116"/>
      <use x="100.488281" xlink:href="#DejaVuSans-32"/>
      <use x="132.275391" xlink:href="#DejaVuSans-49"/>
      <use x="195.898438" xlink:href="#DejaVuSans-53"/>
      <use x="259.521484" xlink:href="#DejaVuSans-109"/>
      <use x="356.933594" xlink:href="#DejaVuSans-98"/>
     </g>
    </g>
   </g>
  </g>
 </g>
 <defs>
  <clipPath id="pe888438325">
   <rect height="304.4" width="405.163099" x="33.64" y="13.32"/>
  </clipPath>
 </defs>
</svg>
