<?xml version="1.0" encoding="utf-8" standalone="no"?>
<!DOCTYPE svg PUBLIC "-//W3C//DTD SVG 1.1//EN"
  "http://www.w3.org/Graphics/SVG/1.1/DTD/svg11.dtd">
<!-- Created with matplotlib (https://matplotlib.org/) -->
<svg height="345.6pt" version="1.1" viewBox="0 0 460.8 345.6" width="460.8pt" xmlns="http://www.w3.org/2000/svg" xmlns:xlink="http://www.w3.org/1999/xlink">
 <defs>
  <style type="text/css">
*{stroke-linecap:butt;stroke-linejoin:round;}
  </style>
 </defs>
 <g id="figure_1">
  <g id="patch_1">
   <path d="M 0 345.6 
L 460.8 345.6 
L 460.8 0 
L 0 0 
z
" style="fill:#ffffff;"/>
  </g>
  <g id="axes_1">
   <g id="patch_2">
    <path d="M 33.64 317.72 
L 447.48 317.72 
L 447.48 13.32 
L 33.64 13.32 
z
" style="fill:#ffffff;"/>
   </g>
   <g id="matplotlib.axis_1">
    <g id="xtick_1">
     <g id="line2d_1">
      <path clip-path="url(#pf86f306e95)" d="M 52.375848 317.72 
L 52.375848 13.32 
" style="fill:none;stroke:#b0b0b0;stroke-linecap:square;stroke-width:0.8;"/>
     </g>
     <g id="line2d_2">
      <defs>
       <path d="M 0 0 
L 0 3.5 
" id="mb2250cb6c8" style="stroke:#000000;stroke-width:0.8;"/>
      </defs>
      <g>
       <use style="stroke:#000000;stroke-width:0.8;" x="52.375848" xlink:href="#mb2250cb6c8" y="317.72"/>
      </g>
     </g>
     <g id="text_1">
      <!-- 0 -->
      <defs>
       <path d="M 31.78125 66.40625 
Q 24.171875 66.40625 20.328125 58.90625 
Q 16.5 51.421875 16.5 36.375 
Q 16.5 21.390625 20.328125 13.890625 
Q 24.171875 6.390625 31.78125 6.390625 
Q 39.453125 6.390625 43.28125 13.890625 
Q 47.125 21.390625 47.125 36.375 
Q 47.125 51.421875 43.28125 58.90625 
Q 39.453125 66.40625 31.78125 66.40625 
z
M 31.78125 74.21875 
Q 44.046875 74.21875 50.515625 64.515625 
Q 56.984375 54.828125 56.984375 36.375 
Q 56.984375 17.96875 50.515625 8.265625 
Q 44.046875 -1.421875 31.78125 -1.421875 
Q 19.53125 -1.421875 13.0625 8.265625 
Q 6.59375 17.96875 6.59375 36.375 
Q 6.59375 54.828125 13.0625 64.515625 
Q 19.53125 74.21875 31.78125 74.21875 
z
" id="DejaVuSans-48"/>
      </defs>
      <g transform="translate(49.194598 332.318437)scale(0.1 -0.1)">
       <use xlink:href="#DejaVuSans-48"/>
      </g>
     </g>
    </g>
    <g id="xtick_2">
     <g id="line2d_3">
      <path clip-path="url(#pf86f306e95)" d="M 103.471765 317.72 
L 103.471765 13.32 
" style="fill:none;stroke:#b0b0b0;stroke-linecap:square;stroke-width:0.8;"/>
     </g>
     <g id="line2d_4">
      <g>
       <use style="stroke:#000000;stroke-width:0.8;" x="103.471765" xlink:href="#mb2250cb6c8" y="317.72"/>
      </g>
     </g>
     <g id="text_2">
      <!-- 100000 -->
      <defs>
       <path d="M 12.40625 8.296875 
L 28.515625 8.296875 
L 28.515625 63.921875 
L 10.984375 60.40625 
L 10.984375 69.390625 
L 28.421875 72.90625 
L 38.28125 72.90625 
L 38.28125 8.296875 
L 54.390625 8.296875 
L 54.390625 0 
L 12.40625 0 
z
" id="DejaVuSans-49"/>
      </defs>
      <g transform="translate(84.384265 332.318437)scale(0.1 -0.1)">
       <use xlink:href="#DejaVuSans-49"/>
       <use x="63.623047" xlink:href="#DejaVuSans-48"/>
       <use x="127.246094" xlink:href="#DejaVuSans-48"/>
       <use x="190.869141" xlink:href="#DejaVuSans-48"/>
       <use x="254.492188" xlink:href="#DejaVuSans-48"/>
       <use x="318.115234" xlink:href="#DejaVuSans-48"/>
      </g>
     </g>
    </g>
    <g id="xtick_3">
     <g id="line2d_5">
      <path clip-path="url(#pf86f306e95)" d="M 154.567683 317.72 
L 154.567683 13.32 
" style="fill:none;stroke:#b0b0b0;stroke-linecap:square;stroke-width:0.8;"/>
     </g>
     <g id="line2d_6">
      <g>
       <use style="stroke:#000000;stroke-width:0.8;" x="154.567683" xlink:href="#mb2250cb6c8" y="317.72"/>
      </g>
     </g>
     <g id="text_3">
      <!-- 200000 -->
      <defs>
       <path d="M 19.1875 8.296875 
L 53.609375 8.296875 
L 53.609375 0 
L 7.328125 0 
L 7.328125 8.296875 
Q 12.9375 14.109375 22.625 23.890625 
Q 32.328125 33.6875 34.8125 36.53125 
Q 39.546875 41.84375 41.421875 45.53125 
Q 43.3125 49.21875 43.3125 52.78125 
Q 43.3125 58.59375 39.234375 62.25 
Q 35.15625 65.921875 28.609375 65.921875 
Q 23.96875 65.921875 18.8125 64.3125 
Q 13.671875 62.703125 7.8125 59.421875 
L 7.8125 69.390625 
Q 13.765625 71.78125 18.9375 73 
Q 24.125 74.21875 28.421875 74.21875 
Q 39.75 74.21875 46.484375 68.546875 
Q 53.21875 62.890625 53.21875 53.421875 
Q 53.21875 48.921875 51.53125 44.890625 
Q 49.859375 40.875 45.40625 35.40625 
Q 44.1875 33.984375 37.640625 27.21875 
Q 31.109375 20.453125 19.1875 8.296875 
z
" id="DejaVuSans-50"/>
      </defs>
      <g transform="translate(135.480183 332.318437)scale(0.1 -0.1)">
       <use xlink:href="#DejaVuSans-50"/>
       <use x="63.623047" xlink:href="#DejaVuSans-48"/>
       <use x="127.246094" xlink:href="#DejaVuSans-48"/>
       <use x="190.869141" xlink:href="#DejaVuSans-48"/>
       <use x="254.492188" xlink:href="#DejaVuSans-48"/>
       <use x="318.115234" xlink:href="#DejaVuSans-48"/>
      </g>
     </g>
    </g>
    <g id="xtick_4">
     <g id="line2d_7">
      <path clip-path="url(#pf86f306e95)" d="M 205.6636 317.72 
L 205.6636 13.32 
" style="fill:none;stroke:#b0b0b0;stroke-linecap:square;stroke-width:0.8;"/>
     </g>
     <g id="line2d_8">
      <g>
       <use style="stroke:#000000;stroke-width:0.8;" x="205.6636" xlink:href="#mb2250cb6c8" y="317.72"/>
      </g>
     </g>
     <g id="text_4">
      <!-- 300000 -->
      <defs>
       <path d="M 40.578125 39.3125 
Q 47.65625 37.796875 51.625 33 
Q 55.609375 28.21875 55.609375 21.1875 
Q 55.609375 10.40625 48.1875 4.484375 
Q 40.765625 -1.421875 27.09375 -1.421875 
Q 22.515625 -1.421875 17.65625 -0.515625 
Q 12.796875 0.390625 7.625 2.203125 
L 7.625 11.71875 
Q 11.71875 9.328125 16.59375 8.109375 
Q 21.484375 6.890625 26.8125 6.890625 
Q 36.078125 6.890625 40.9375 10.546875 
Q 45.796875 14.203125 45.796875 21.1875 
Q 45.796875 27.640625 41.28125 31.265625 
Q 36.765625 34.90625 28.71875 34.90625 
L 20.21875 34.90625 
L 20.21875 43.015625 
L 29.109375 43.015625 
Q 36.375 43.015625 40.234375 45.921875 
Q 44.09375 48.828125 44.09375 54.296875 
Q 44.09375 59.90625 40.109375 62.90625 
Q 36.140625 65.921875 28.71875 65.921875 
Q 24.65625 65.921875 20.015625 65.03125 
Q 15.375 64.15625 9.8125 62.3125 
L 9.8125 71.09375 
Q 15.4375 72.65625 20.34375 73.4375 
Q 25.25 74.21875 29.59375 74.21875 
Q 40.828125 74.21875 47.359375 69.109375 
Q 53.90625 64.015625 53.90625 55.328125 
Q 53.90625 49.265625 50.4375 45.09375 
Q 46.96875 40.921875 40.578125 39.3125 
z
" id="DejaVuSans-51"/>
      </defs>
      <g transform="translate(186.5761 332.318437)scale(0.1 -0.1)">
       <use xlink:href="#DejaVuSans-51"/>
       <use x="63.623047" xlink:href="#DejaVuSans-48"/>
       <use x="127.246094" xlink:href="#DejaVuSans-48"/>
       <use x="190.869141" xlink:href="#DejaVuSans-48"/>
       <use x="254.492188" xlink:href="#DejaVuSans-48"/>
       <use x="318.115234" xlink:href="#DejaVuSans-48"/>
      </g>
     </g>
    </g>
    <g id="xtick_5">
     <g id="line2d_9">
      <path clip-path="url(#pf86f306e95)" d="M 256.759517 317.72 
L 256.759517 13.32 
" style="fill:none;stroke:#b0b0b0;stroke-linecap:square;stroke-width:0.8;"/>
     </g>
     <g id="line2d_10">
      <g>
       <use style="stroke:#000000;stroke-width:0.8;" x="256.759517" xlink:href="#mb2250cb6c8" y="317.72"/>
      </g>
     </g>
     <g id="text_5">
      <!-- 400000 -->
      <defs>
       <path d="M 37.796875 64.3125 
L 12.890625 25.390625 
L 37.796875 25.390625 
z
M 35.203125 72.90625 
L 47.609375 72.90625 
L 47.609375 25.390625 
L 58.015625 25.390625 
L 58.015625 17.1875 
L 47.609375 17.1875 
L 47.609375 0 
L 37.796875 0 
L 37.796875 17.1875 
L 4.890625 17.1875 
L 4.890625 26.703125 
z
" id="DejaVuSans-52"/>
      </defs>
      <g transform="translate(237.672017 332.318437)scale(0.1 -0.1)">
       <use xlink:href="#DejaVuSans-52"/>
       <use x="63.623047" xlink:href="#DejaVuSans-48"/>
       <use x="127.246094" xlink:href="#DejaVuSans-48"/>
       <use x="190.869141" xlink:href="#DejaVuSans-48"/>
       <use x="254.492188" xlink:href="#DejaVuSans-48"/>
       <use x="318.115234" xlink:href="#DejaVuSans-48"/>
      </g>
     </g>
    </g>
    <g id="xtick_6">
     <g id="line2d_11">
      <path clip-path="url(#pf86f306e95)" d="M 307.855435 317.72 
L 307.855435 13.32 
" style="fill:none;stroke:#b0b0b0;stroke-linecap:square;stroke-width:0.8;"/>
     </g>
     <g id="line2d_12">
      <g>
       <use style="stroke:#000000;stroke-width:0.8;" x="307.855435" xlink:href="#mb2250cb6c8" y="317.72"/>
      </g>
     </g>
     <g id="text_6">
      <!-- 500000 -->
      <defs>
       <path d="M 10.796875 72.90625 
L 49.515625 72.90625 
L 49.515625 64.59375 
L 19.828125 64.59375 
L 19.828125 46.734375 
Q 21.96875 47.46875 24.109375 47.828125 
Q 26.265625 48.1875 28.421875 48.1875 
Q 40.625 48.1875 47.75 41.5 
Q 54.890625 34.8125 54.890625 23.390625 
Q 54.890625 11.625 47.5625 5.09375 
Q 40.234375 -1.421875 26.90625 -1.421875 
Q 22.3125 -1.421875 17.546875 -0.640625 
Q 12.796875 0.140625 7.71875 1.703125 
L 7.71875 11.625 
Q 12.109375 9.234375 16.796875 8.0625 
Q 21.484375 6.890625 26.703125 6.890625 
Q 35.15625 6.890625 40.078125 11.328125 
Q 45.015625 15.765625 45.015625 23.390625 
Q 45.015625 31 40.078125 35.4375 
Q 35.15625 39.890625 26.703125 39.890625 
Q 22.75 39.890625 18.8125 39.015625 
Q 14.890625 38.140625 10.796875 36.28125 
z
" id="DejaVuSans-53"/>
      </defs>
      <g transform="translate(288.767935 332.318437)scale(0.1 -0.1)">
       <use xlink:href="#DejaVuSans-53"/>
       <use x="63.623047" xlink:href="#DejaVuSans-48"/>
       <use x="127.246094" xlink:href="#DejaVuSans-48"/>
       <use x="190.869141" xlink:href="#DejaVuSans-48"/>
       <use x="254.492188" xlink:href="#DejaVuSans-48"/>
       <use x="318.115234" xlink:href="#DejaVuSans-48"/>
      </g>
     </g>
    </g>
    <g id="xtick_7">
     <g id="line2d_13">
      <path clip-path="url(#pf86f306e95)" d="M 358.951352 317.72 
L 358.951352 13.32 
" style="fill:none;stroke:#b0b0b0;stroke-linecap:square;stroke-width:0.8;"/>
     </g>
     <g id="line2d_14">
      <g>
       <use style="stroke:#000000;stroke-width:0.8;" x="358.951352" xlink:href="#mb2250cb6c8" y="317.72"/>
      </g>
     </g>
     <g id="text_7">
      <!-- 600000 -->
      <defs>
       <path d="M 33.015625 40.375 
Q 26.375 40.375 22.484375 35.828125 
Q 18.609375 31.296875 18.609375 23.390625 
Q 18.609375 15.53125 22.484375 10.953125 
Q 26.375 6.390625 33.015625 6.390625 
Q 39.65625 6.390625 43.53125 10.953125 
Q 47.40625 15.53125 47.40625 23.390625 
Q 47.40625 31.296875 43.53125 35.828125 
Q 39.65625 40.375 33.015625 40.375 
z
M 52.59375 71.296875 
L 52.59375 62.3125 
Q 48.875 64.0625 45.09375 64.984375 
Q 41.3125 65.921875 37.59375 65.921875 
Q 27.828125 65.921875 22.671875 59.328125 
Q 17.53125 52.734375 16.796875 39.40625 
Q 19.671875 43.65625 24.015625 45.921875 
Q 28.375 48.1875 33.59375 48.1875 
Q 44.578125 48.1875 50.953125 41.515625 
Q 57.328125 34.859375 57.328125 23.390625 
Q 57.328125 12.15625 50.6875 5.359375 
Q 44.046875 -1.421875 33.015625 -1.421875 
Q 20.359375 -1.421875 13.671875 8.265625 
Q 6.984375 17.96875 6.984375 36.375 
Q 6.984375 53.65625 15.1875 63.9375 
Q 23.390625 74.21875 37.203125 74.21875 
Q 40.921875 74.21875 44.703125 73.484375 
Q 48.484375 72.75 52.59375 71.296875 
z
" id="DejaVuSans-54"/>
      </defs>
      <g transform="translate(339.863852 332.318437)scale(0.1 -0.1)">
       <use xlink:href="#DejaVuSans-54"/>
       <use x="63.623047" xlink:href="#DejaVuSans-48"/>
       <use x="127.246094" xlink:href="#DejaVuSans-48"/>
       <use x="190.869141" xlink:href="#DejaVuSans-48"/>
       <use x="254.492188" xlink:href="#DejaVuSans-48"/>
       <use x="318.115234" xlink:href="#DejaVuSans-48"/>
      </g>
     </g>
    </g>
    <g id="xtick_8">
     <g id="line2d_15">
      <path clip-path="url(#pf86f306e95)" d="M 410.047269 317.72 
L 410.047269 13.32 
" style="fill:none;stroke:#b0b0b0;stroke-linecap:square;stroke-width:0.8;"/>
     </g>
     <g id="line2d_16">
      <g>
       <use style="stroke:#000000;stroke-width:0.8;" x="410.047269" xlink:href="#mb2250cb6c8" y="317.72"/>
      </g>
     </g>
     <g id="text_8">
      <!-- 700000 -->
      <defs>
       <path d="M 8.203125 72.90625 
L 55.078125 72.90625 
L 55.078125 68.703125 
L 28.609375 0 
L 18.3125 0 
L 43.21875 64.59375 
L 8.203125 64.59375 
z
" id="DejaVuSans-55"/>
      </defs>
      <g transform="translate(390.959769 332.318437)scale(0.1 -0.1)">
       <use xlink:href="#DejaVuSans-55"/>
       <use x="63.623047" xlink:href="#DejaVuSans-48"/>
       <use x="127.246094" xlink:href="#DejaVuSans-48"/>
       <use x="190.869141" xlink:href="#DejaVuSans-48"/>
       <use x="254.492188" xlink:href="#DejaVuSans-48"/>
       <use x="318.115234" xlink:href="#DejaVuSans-48"/>
      </g>
     </g>
    </g>
   </g>
   <g id="matplotlib.axis_2">
    <g id="ytick_1">
     <g id="line2d_17">
      <path clip-path="url(#pf86f306e95)" d="M 33.64 285.435152 
L 447.48 285.435152 
" style="fill:none;stroke:#b0b0b0;stroke-linecap:square;stroke-width:0.8;"/>
     </g>
     <g id="line2d_18">
      <defs>
       <path d="M 0 0 
L -3.5 0 
" id="m889ff2757f" style="stroke:#000000;stroke-width:0.8;"/>
      </defs>
      <g>
       <use style="stroke:#000000;stroke-width:0.8;" x="33.64" xlink:href="#m889ff2757f" y="285.435152"/>
      </g>
     </g>
     <g id="text_9">
      <!-- 0.2 -->
      <defs>
       <path d="M 10.6875 12.40625 
L 21 12.40625 
L 21 0 
L 10.6875 0 
z
" id="DejaVuSans-46"/>
      </defs>
      <g transform="translate(10.736875 289.23437)scale(0.1 -0.1)">
       <use xlink:href="#DejaVuSans-48"/>
       <use x="63.623047" xlink:href="#DejaVuSans-46"/>
       <use x="95.410156" xlink:href="#DejaVuSans-50"/>
      </g>
     </g>
    </g>
    <g id="ytick_2">
     <g id="line2d_19">
      <path clip-path="url(#pf86f306e95)" d="M 33.64 220.865455 
L 447.48 220.865455 
" style="fill:none;stroke:#b0b0b0;stroke-linecap:square;stroke-width:0.8;"/>
     </g>
     <g id="line2d_20">
      <g>
       <use style="stroke:#000000;stroke-width:0.8;" x="33.64" xlink:href="#m889ff2757f" y="220.865455"/>
      </g>
     </g>
     <g id="text_10">
      <!-- 0.4 -->
      <g transform="translate(10.736875 224.664673)scale(0.1 -0.1)">
       <use xlink:href="#DejaVuSans-48"/>
       <use x="63.623047" xlink:href="#DejaVuSans-46"/>
       <use x="95.410156" xlink:href="#DejaVuSans-52"/>
      </g>
     </g>
    </g>
    <g id="ytick_3">
     <g id="line2d_21">
      <path clip-path="url(#pf86f306e95)" d="M 33.64 156.295758 
L 447.48 156.295758 
" style="fill:none;stroke:#b0b0b0;stroke-linecap:square;stroke-width:0.8;"/>
     </g>
     <g id="line2d_22">
      <g>
       <use style="stroke:#000000;stroke-width:0.8;" x="33.64" xlink:href="#m889ff2757f" y="156.295758"/>
      </g>
     </g>
     <g id="text_11">
      <!-- 0.6 -->
      <g transform="translate(10.736875 160.094976)scale(0.1 -0.1)">
       <use xlink:href="#DejaVuSans-48"/>
       <use x="63.623047" xlink:href="#DejaVuSans-46"/>
       <use x="95.410156" xlink:href="#DejaVuSans-54"/>
      </g>
     </g>
    </g>
    <g id="ytick_4">
     <g id="line2d_23">
      <path clip-path="url(#pf86f306e95)" d="M 33.64 91.726061 
L 447.48 91.726061 
" style="fill:none;stroke:#b0b0b0;stroke-linecap:square;stroke-width:0.8;"/>
     </g>
     <g id="line2d_24">
      <g>
       <use style="stroke:#000000;stroke-width:0.8;" x="33.64" xlink:href="#m889ff2757f" y="91.726061"/>
      </g>
     </g>
     <g id="text_12">
      <!-- 0.8 -->
      <defs>
       <path d="M 31.78125 34.625 
Q 24.75 34.625 20.71875 30.859375 
Q 16.703125 27.09375 16.703125 20.515625 
Q 16.703125 13.921875 20.71875 10.15625 
Q 24.75 6.390625 31.78125 6.390625 
Q 38.8125 6.390625 42.859375 10.171875 
Q 46.921875 13.96875 46.921875 20.515625 
Q 46.921875 27.09375 42.890625 30.859375 
Q 38.875 34.625 31.78125 34.625 
z
M 21.921875 38.8125 
Q 15.578125 40.375 12.03125 44.71875 
Q 8.5 49.078125 8.5 55.328125 
Q 8.5 64.0625 14.71875 69.140625 
Q 20.953125 74.21875 31.78125 74.21875 
Q 42.671875 74.21875 48.875 69.140625 
Q 55.078125 64.0625 55.078125 55.328125 
Q 55.078125 49.078125 51.53125 44.71875 
Q 48 40.375 41.703125 38.8125 
Q 48.828125 37.15625 52.796875 32.3125 
Q 56.78125 27.484375 56.78125 20.515625 
Q 56.78125 9.90625 50.3125 4.234375 
Q 43.84375 -1.421875 31.78125 -1.421875 
Q 19.734375 -1.421875 13.25 4.234375 
Q 6.78125 9.90625 6.78125 20.515625 
Q 6.78125 27.484375 10.78125 32.3125 
Q 14.796875 37.15625 21.921875 38.8125 
z
M 18.3125 54.390625 
Q 18.3125 48.734375 21.84375 45.5625 
Q 25.390625 42.390625 31.78125 42.390625 
Q 38.140625 42.390625 41.71875 45.5625 
Q 45.3125 48.734375 45.3125 54.390625 
Q 45.3125 60.0625 41.71875 63.234375 
Q 38.140625 66.40625 31.78125 66.40625 
Q 25.390625 66.40625 21.84375 63.234375 
Q 18.3125 60.0625 18.3125 54.390625 
z
" id="DejaVuSans-56"/>
      </defs>
      <g transform="translate(10.736875 95.525279)scale(0.1 -0.1)">
       <use xlink:href="#DejaVuSans-48"/>
       <use x="63.623047" xlink:href="#DejaVuSans-46"/>
       <use x="95.410156" xlink:href="#DejaVuSans-56"/>
      </g>
     </g>
    </g>
    <g id="ytick_5">
     <g id="line2d_25">
      <path clip-path="url(#pf86f306e95)" d="M 33.64 27.156364 
L 447.48 27.156364 
" style="fill:none;stroke:#b0b0b0;stroke-linecap:square;stroke-width:0.8;"/>
     </g>
     <g id="line2d_26">
      <g>
       <use style="stroke:#000000;stroke-width:0.8;" x="33.64" xlink:href="#m889ff2757f" y="27.156364"/>
      </g>
     </g>
     <g id="text_13">
      <!-- 1.0 -->
      <g transform="translate(10.736875 30.955582)scale(0.1 -0.1)">
       <use xlink:href="#DejaVuSans-49"/>
       <use x="63.623047" xlink:href="#DejaVuSans-46"/>
       <use x="95.410156" xlink:href="#DejaVuSans-48"/>
      </g>
     </g>
    </g>
   </g>
   <g id="line2d_27">
    <path clip-path="url(#pf86f306e95)" d="M 52.450909 167.057374 
L 52.521565 145.534141 
L 52.59222 134.772525 
L 52.662876 134.772525 
L 52.733532 134.772525 
L 52.804187 124.010909 
L 52.874843 124.010909 
L 52.945498 124.010909 
L 53.016154 124.010909 
L 53.08681 124.010909 
L 53.157465 124.010909 
L 53.228121 113.249293 
L 53.298776 113.249293 
L 53.369432 113.249293 
L 53.440088 113.249293 
L 53.510743 113.249293 
L 53.581399 113.249293 
L 53.652055 113.249293 
L 53.72271 113.249293 
L 53.793366 113.249293 
L 53.864021 113.249293 
L 53.934677 113.249293 
L 54.005333 113.249293 
L 54.075988 91.726061 
L 54.146644 91.726061 
L 54.217299 91.726061 
L 54.287955 91.726061 
L 54.358611 91.726061 
L 54.429266 91.726061 
L 54.499922 91.726061 
L 54.570578 80.964444 
L 54.641233 70.202828 
L 54.711889 70.202828 
L 54.782544 70.202828 
L 54.8532 70.202828 
L 54.923856 70.202828 
L 54.994511 70.202828 
L 55.065167 70.202828 
L 55.135822 59.441212 
L 55.206478 59.441212 
L 55.277134 59.441212 
L 55.347789 59.441212 
L 55.418445 59.441212 
L 55.4891 59.441212 
L 55.559756 59.441212 
L 55.630412 59.441212 
L 55.701067 59.441212 
L 55.771723 59.441212 
L 55.842379 59.441212 
L 55.913034 48.679596 
L 55.98369 48.679596 
L 56.054345 48.679596 
L 56.125001 48.679596 
L 56.195657 48.679596 
L 56.266312 48.679596 
L 56.336968 48.679596 
L 56.407623 48.679596 
L 56.478279 48.679596 
L 56.548935 48.679596 
L 56.61959 48.679596 
L 56.690246 48.679596 
L 56.760902 48.679596 
L 56.831557 48.679596 
L 56.902213 48.679596 
L 56.972868 48.679596 
L 57.043524 48.679596 
L 57.11418 48.679596 
L 57.184835 48.679596 
L 57.255491 48.679596 
L 57.326146 48.679596 
L 57.396802 48.679596 
L 57.467458 48.679596 
L 57.538113 48.679596 
L 57.608769 48.679596 
L 57.679425 48.679596 
L 57.75008 48.679596 
L 57.820736 37.91798 
L 57.891391 37.91798 
L 57.962047 37.91798 
L 58.032703 37.91798 
L 58.103358 37.91798 
L 58.174014 37.91798 
L 58.244669 37.91798 
L 58.315325 37.91798 
L 58.385981 37.91798 
L 58.456636 37.91798 
L 58.527292 37.91798 
L 58.597947 37.91798 
L 58.668603 37.91798 
L 58.739259 37.91798 
L 58.809914 37.91798 
L 58.88057 37.91798 
L 58.951226 37.91798 
L 59.021881 37.91798 
L 59.092537 37.91798 
L 59.163192 37.91798 
L 59.233848 37.91798 
L 59.304504 37.91798 
L 59.375159 37.91798 
L 59.445815 27.156364 
" style="fill:none;stroke:#1f77b4;stroke-linecap:square;stroke-width:1.5;"/>
   </g>
   <g id="line2d_28">
    <path clip-path="url(#pf86f306e95)" d="M 56.141861 303.883636 
L 59.904762 285.435152 
L 63.667663 276.210909 
L 67.430565 276.210909 
L 71.193466 276.210909 
L 74.956367 257.762424 
L 78.719268 257.762424 
L 82.48217 257.762424 
L 86.245071 257.762424 
L 90.007972 248.538182 
L 93.770874 248.538182 
L 97.533775 239.313939 
L 101.296676 239.313939 
L 105.059578 239.313939 
L 108.822479 239.313939 
L 112.58538 239.313939 
L 116.348282 239.313939 
L 120.111183 230.089697 
L 123.874084 230.089697 
L 127.636986 230.089697 
L 131.399887 230.089697 
L 135.162788 220.865455 
L 138.92569 220.865455 
L 142.688591 220.865455 
L 146.451492 220.865455 
L 150.214393 220.865455 
L 153.977295 211.641212 
L 157.740196 211.641212 
L 161.503097 211.641212 
L 165.265999 211.641212 
L 169.0289 211.641212 
L 172.791801 202.41697 
L 176.554703 202.41697 
L 180.317604 202.41697 
L 184.080505 193.192727 
L 187.843407 193.192727 
L 191.606308 193.192727 
L 195.369209 193.192727 
L 199.132111 183.968485 
L 202.895012 183.968485 
L 206.657913 183.968485 
L 210.420815 183.968485 
L 214.183716 183.968485 
L 217.946617 174.744242 
L 221.709518 174.744242 
L 225.47242 174.744242 
L 229.235321 165.52 
L 232.998222 165.52 
L 236.761124 165.52 
L 240.524025 165.52 
L 244.286926 165.52 
L 248.049828 165.52 
L 251.812729 165.52 
L 255.57563 165.52 
L 259.338532 156.295758 
L 263.101433 156.295758 
L 266.864334 156.295758 
L 270.627236 156.295758 
L 274.390137 156.295758 
L 278.153038 147.071515 
L 281.91594 147.071515 
L 285.678841 137.847273 
L 289.441742 137.847273 
L 293.204644 137.847273 
L 296.967545 137.847273 
L 300.730446 128.62303 
L 304.493347 128.62303 
L 308.256249 128.62303 
L 312.01915 128.62303 
L 315.782051 119.398788 
L 319.544953 119.398788 
L 323.307854 119.398788 
L 327.070755 110.174545 
L 330.833657 110.174545 
L 334.596558 110.174545 
L 338.359459 100.950303 
L 342.122361 100.950303 
L 345.885262 100.950303 
L 349.648163 100.950303 
L 353.411065 91.726061 
L 357.173966 91.726061 
L 360.936867 91.726061 
L 364.699769 82.501818 
L 368.46267 73.277576 
L 372.225571 73.277576 
L 375.988472 73.277576 
L 379.751374 73.277576 
L 383.514275 73.277576 
L 387.277176 64.053333 
L 391.040078 64.053333 
L 394.802979 54.829091 
L 398.56588 54.829091 
L 402.328782 54.829091 
L 406.091683 45.604848 
L 409.854584 45.604848 
L 413.617486 45.604848 
L 417.380387 45.604848 
L 421.143288 36.380606 
L 424.90619 36.380606 
L 428.669091 27.156364 
" style="fill:none;stroke:#ff7f0e;stroke-linecap:square;stroke-width:1.5;"/>
   </g>
   <g id="line2d_29">
    <path clip-path="url(#pf86f306e95)" d="M 52.487704 165.52 
L 52.596716 165.52 
L 52.705729 165.52 
L 52.814741 156.295758 
L 52.923753 156.295758 
L 53.032766 156.295758 
L 53.141778 147.071515 
L 53.25079 147.071515 
L 53.359802 147.071515 
L 53.468815 137.847273 
L 53.577827 137.847273 
L 53.686839 137.847273 
L 53.795851 137.847273 
L 53.904864 137.847273 
L 54.013876 137.847273 
L 54.122888 128.62303 
L 54.2319 128.62303 
L 54.340913 128.62303 
L 54.449925 128.62303 
L 54.558937 119.398788 
L 54.667949 110.174545 
L 54.776962 110.174545 
L 54.885974 110.174545 
L 54.994986 110.174545 
L 55.103998 100.950303 
L 55.213011 91.726061 
L 55.322023 91.726061 
L 55.431035 91.726061 
L 55.540048 91.726061 
L 55.64906 91.726061 
L 55.758072 91.726061 
L 55.867084 91.726061 
L 55.976097 91.726061 
L 56.085109 91.726061 
L 56.194121 91.726061 
L 56.303133 91.726061 
L 56.412146 91.726061 
L 56.521158 91.726061 
L 56.63017 91.726061 
L 56.739182 82.501818 
L 56.848195 82.501818 
L 56.957207 82.501818 
L 57.066219 82.501818 
L 57.175231 82.501818 
L 57.284244 82.501818 
L 57.393256 82.501818 
L 57.502268 82.501818 
L 57.611281 82.501818 
L 57.720293 82.501818 
L 57.829305 82.501818 
L 57.938317 82.501818 
L 58.04733 82.501818 
L 58.156342 82.501818 
L 58.265354 82.501818 
L 58.374366 82.501818 
L 58.483379 82.501818 
L 58.592391 82.501818 
L 58.701403 82.501818 
L 58.810415 82.501818 
L 58.919428 82.501818 
L 59.02844 82.501818 
L 59.137452 82.501818 
L 59.246464 73.277576 
L 59.355477 73.277576 
L 59.464489 73.277576 
L 59.573501 73.277576 
L 59.682513 73.277576 
L 59.791526 73.277576 
L 59.900538 73.277576 
L 60.00955 73.277576 
L 60.118563 73.277576 
L 60.227575 73.277576 
L 60.336587 73.277576 
L 60.445599 73.277576 
L 60.554612 73.277576 
L 60.663624 73.277576 
L 60.772636 73.277576 
L 60.881648 73.277576 
L 60.990661 73.277576 
L 61.099673 73.277576 
L 61.208685 73.277576 
L 61.317697 73.277576 
L 61.42671 73.277576 
L 61.535722 73.277576 
L 61.644734 73.277576 
L 61.753746 64.053333 
L 61.862759 64.053333 
L 61.971771 64.053333 
L 62.080783 64.053333 
L 62.189795 64.053333 
L 62.298808 64.053333 
L 62.40782 64.053333 
L 62.516832 64.053333 
L 62.625845 64.053333 
L 62.734857 54.829091 
L 62.843869 45.604848 
L 62.952881 45.604848 
L 63.061894 36.380606 
L 63.170906 36.380606 
L 63.279918 27.156364 
" style="fill:none;stroke:#2ca02c;stroke-linecap:square;stroke-width:1.5;"/>
   </g>
   <g id="line2d_30">
    <path clip-path="url(#pf86f306e95)" d="M 52.488518 165.52 
L 52.598368 165.52 
L 52.708217 165.52 
L 52.818067 156.295758 
L 52.927916 156.295758 
L 53.037765 156.295758 
L 53.147615 147.071515 
L 53.257464 147.071515 
L 53.367313 147.071515 
L 53.477163 137.847273 
L 53.587012 137.847273 
L 53.696862 137.847273 
L 53.806711 137.847273 
L 53.91656 137.847273 
L 54.02641 128.62303 
L 54.136259 128.62303 
L 54.246109 128.62303 
L 54.355958 128.62303 
L 54.465807 128.62303 
L 54.575657 110.174545 
L 54.685506 110.174545 
L 54.795355 110.174545 
L 54.905205 110.174545 
L 55.015054 100.950303 
L 55.124904 100.950303 
L 55.234753 100.950303 
L 55.344602 100.950303 
L 55.454452 91.726061 
L 55.564301 82.501818 
L 55.67415 82.501818 
L 55.784 82.501818 
L 55.893849 82.501818 
L 56.003699 82.501818 
L 56.113548 82.501818 
L 56.223397 82.501818 
L 56.333247 82.501818 
L 56.443096 82.501818 
L 56.552946 82.501818 
L 56.662795 82.501818 
L 56.772644 82.501818 
L 56.882494 82.501818 
L 56.992343 73.277576 
L 57.102192 73.277576 
L 57.212042 73.277576 
L 57.321891 73.277576 
L 57.431741 73.277576 
L 57.54159 73.277576 
L 57.651439 73.277576 
L 57.761289 73.277576 
L 57.871138 73.277576 
L 57.980987 73.277576 
L 58.090837 73.277576 
L 58.200686 73.277576 
L 58.310536 73.277576 
L 58.420385 73.277576 
L 58.530234 73.277576 
L 58.640084 73.277576 
L 58.749933 73.277576 
L 58.859783 73.277576 
L 58.969632 73.277576 
L 59.079481 73.277576 
L 59.189331 73.277576 
L 59.29918 73.277576 
L 59.409029 64.053333 
L 59.518879 64.053333 
L 59.628728 64.053333 
L 59.738578 64.053333 
L 59.848427 64.053333 
L 59.958276 64.053333 
L 60.068126 64.053333 
L 60.177975 64.053333 
L 60.287824 64.053333 
L 60.397674 64.053333 
L 60.507523 64.053333 
L 60.617373 64.053333 
L 60.727222 64.053333 
L 60.837071 64.053333 
L 60.946921 64.053333 
L 61.05677 64.053333 
L 61.16662 64.053333 
L 61.276469 64.053333 
L 61.386318 64.053333 
L 61.496168 64.053333 
L 61.606017 64.053333 
L 61.715866 64.053333 
L 61.825716 64.053333 
L 61.935565 64.053333 
L 62.045415 64.053333 
L 62.155264 64.053333 
L 62.265113 64.053333 
L 62.374963 64.053333 
L 62.484812 64.053333 
L 62.594661 45.604848 
L 62.704511 45.604848 
L 62.81436 45.604848 
L 62.92421 36.380606 
L 63.034059 36.380606 
L 63.143908 36.380606 
L 63.253758 36.380606 
L 63.363607 27.156364 
" style="fill:none;stroke:#d62728;stroke-linecap:square;stroke-width:1.5;"/>
   </g>
   <g id="line2d_31">
    <path clip-path="url(#pf86f306e95)" d="M 52.488186 165.52 
L 52.597753 156.295758 
L 52.707319 156.295758 
L 52.816886 147.071515 
L 52.926452 147.071515 
L 53.036018 147.071515 
L 53.145585 147.071515 
L 53.255151 137.847273 
L 53.364718 137.847273 
L 53.474284 137.847273 
L 53.583851 137.847273 
L 53.693417 137.847273 
L 53.802983 137.847273 
L 53.91255 137.847273 
L 54.022116 137.847273 
L 54.131683 128.62303 
L 54.241249 128.62303 
L 54.350816 128.62303 
L 54.460382 119.398788 
L 54.569948 100.950303 
L 54.679515 100.950303 
L 54.789081 100.950303 
L 54.898648 100.950303 
L 55.008214 100.950303 
L 55.11778 91.726061 
L 55.227347 91.726061 
L 55.336913 91.726061 
L 55.44648 91.726061 
L 55.556046 91.726061 
L 55.665613 91.726061 
L 55.775179 82.501818 
L 55.884745 82.501818 
L 55.994312 82.501818 
L 56.103878 82.501818 
L 56.213445 73.277576 
L 56.323011 73.277576 
L 56.432578 73.277576 
L 56.542144 73.277576 
L 56.65171 73.277576 
L 56.761277 64.053333 
L 56.870843 64.053333 
L 56.98041 64.053333 
L 57.089976 64.053333 
L 57.199542 64.053333 
L 57.309109 64.053333 
L 57.418675 64.053333 
L 57.528242 64.053333 
L 57.637808 64.053333 
L 57.747375 64.053333 
L 57.856941 64.053333 
L 57.966507 64.053333 
L 58.076074 64.053333 
L 58.18564 64.053333 
L 58.295207 64.053333 
L 58.404773 64.053333 
L 58.51434 64.053333 
L 58.623906 64.053333 
L 58.733472 64.053333 
L 58.843039 54.829091 
L 58.952605 54.829091 
L 59.062172 54.829091 
L 59.171738 54.829091 
L 59.281304 54.829091 
L 59.390871 54.829091 
L 59.500437 54.829091 
L 59.610004 54.829091 
L 59.71957 54.829091 
L 59.829137 54.829091 
L 59.938703 54.829091 
L 60.048269 54.829091 
L 60.157836 54.829091 
L 60.267402 54.829091 
L 60.376969 54.829091 
L 60.486535 54.829091 
L 60.596102 54.829091 
L 60.705668 54.829091 
L 60.815234 54.829091 
L 60.924801 54.829091 
L 61.034367 54.829091 
L 61.143934 54.829091 
L 61.2535 54.829091 
L 61.363066 54.829091 
L 61.472633 54.829091 
L 61.582199 54.829091 
L 61.691766 54.829091 
L 61.801332 54.829091 
L 61.910899 54.829091 
L 62.020465 54.829091 
L 62.130031 54.829091 
L 62.239598 54.829091 
L 62.349164 54.829091 
L 62.458731 54.829091 
L 62.568297 54.829091 
L 62.677864 36.380606 
L 62.78743 36.380606 
L 62.896996 36.380606 
L 63.006563 36.380606 
L 63.116129 36.380606 
L 63.225696 36.380606 
L 63.335262 27.156364 
" style="fill:none;stroke:#9467bd;stroke-linecap:square;stroke-width:1.5;"/>
   </g>
   <g id="patch_3">
    <path d="M 33.64 317.72 
L 33.64 13.32 
" style="fill:none;stroke:#000000;stroke-linecap:square;stroke-linejoin:miter;stroke-width:0.8;"/>
   </g>
   <g id="patch_4">
    <path d="M 447.48 317.72 
L 447.48 13.32 
" style="fill:none;stroke:#000000;stroke-linecap:square;stroke-linejoin:miter;stroke-width:0.8;"/>
   </g>
   <g id="patch_5">
    <path d="M 33.64 317.72 
L 447.48 317.72 
" style="fill:none;stroke:#000000;stroke-linecap:square;stroke-linejoin:miter;stroke-width:0.8;"/>
   </g>
   <g id="patch_6">
    <path d="M 33.64 13.32 
L 447.48 13.32 
" style="fill:none;stroke:#000000;stroke-linecap:square;stroke-linejoin:miter;stroke-width:0.8;"/>
   </g>
   <g id="legend_1">
    <g id="patch_7">
     <path d="M 344.584688 312.72 
L 440.48 312.72 
Q 442.48 312.72 442.48 310.72 
L 442.48 182.340312 
Q 442.48 180.340312 440.48 180.340312 
L 344.584688 180.340312 
Q 342.584688 180.340312 342.584688 182.340312 
L 342.584688 310.72 
Q 342.584688 312.72 344.584688 312.72 
z
" style="fill:#ffffff;opacity:0.8;stroke:#cccccc;stroke-linejoin:miter;"/>
    </g>
    <g id="line2d_32">
     <path d="M 346.584688 195.0775 
L 366.584688 195.0775 
" style="fill:none;stroke:#1f77b4;stroke-linecap:square;stroke-width:1.5;"/>
    </g>
    <g id="line2d_33"/>
    <g id="text_14">
     <!-- Baseline  -->
     <defs>
      <path d="M 19.671875 34.8125 
L 19.671875 8.109375 
L 35.5 8.109375 
Q 43.453125 8.109375 47.28125 11.40625 
Q 51.125 14.703125 51.125 21.484375 
Q 51.125 28.328125 47.28125 31.5625 
Q 43.453125 34.8125 35.5 34.8125 
z
M 19.671875 64.796875 
L 19.671875 42.828125 
L 34.28125 42.828125 
Q 41.5 42.828125 45.03125 45.53125 
Q 48.578125 48.25 48.578125 53.8125 
Q 48.578125 59.328125 45.03125 62.0625 
Q 41.5 64.796875 34.28125 64.796875 
z
M 9.8125 72.90625 
L 35.015625 72.90625 
Q 46.296875 72.90625 52.390625 68.21875 
Q 58.5 63.53125 58.5 54.890625 
Q 58.5 48.1875 55.375 44.234375 
Q 52.25 40.28125 46.1875 39.3125 
Q 53.46875 37.75 57.5 32.78125 
Q 61.53125 27.828125 61.53125 20.40625 
Q 61.53125 10.640625 54.890625 5.3125 
Q 48.25 0 35.984375 0 
L 9.8125 0 
z
" id="DejaVuSans-66"/>
      <path d="M 34.28125 27.484375 
Q 23.390625 27.484375 19.1875 25 
Q 14.984375 22.515625 14.984375 16.5 
Q 14.984375 11.71875 18.140625 8.90625 
Q 21.296875 6.109375 26.703125 6.109375 
Q 34.1875 6.109375 38.703125 11.40625 
Q 43.21875 16.703125 43.21875 25.484375 
L 43.21875 27.484375 
z
M 52.203125 31.203125 
L 52.203125 0 
L 43.21875 0 
L 43.21875 8.296875 
Q 40.140625 3.328125 35.546875 0.953125 
Q 30.953125 -1.421875 24.3125 -1.421875 
Q 15.921875 -1.421875 10.953125 3.296875 
Q 6 8.015625 6 15.921875 
Q 6 25.140625 12.171875 29.828125 
Q 18.359375 34.515625 30.609375 34.515625 
L 43.21875 34.515625 
L 43.21875 35.40625 
Q 43.21875 41.609375 39.140625 45 
Q 35.0625 48.390625 27.6875 48.390625 
Q 23 48.390625 18.546875 47.265625 
Q 14.109375 46.140625 10.015625 43.890625 
L 10.015625 52.203125 
Q 14.9375 54.109375 19.578125 55.046875 
Q 24.21875 56 28.609375 56 
Q 40.484375 56 46.34375 49.84375 
Q 52.203125 43.703125 52.203125 31.203125 
z
" id="DejaVuSans-97"/>
      <path d="M 44.28125 53.078125 
L 44.28125 44.578125 
Q 40.484375 46.53125 36.375 47.5 
Q 32.28125 48.484375 27.875 48.484375 
Q 21.1875 48.484375 17.84375 46.4375 
Q 14.5 44.390625 14.5 40.28125 
Q 14.5 37.15625 16.890625 35.375 
Q 19.28125 33.59375 26.515625 31.984375 
L 29.59375 31.296875 
Q 39.15625 29.25 43.1875 25.515625 
Q 47.21875 21.78125 47.21875 15.09375 
Q 47.21875 7.46875 41.1875 3.015625 
Q 35.15625 -1.421875 24.609375 -1.421875 
Q 20.21875 -1.421875 15.453125 -0.5625 
Q 10.6875 0.296875 5.421875 2 
L 5.421875 11.28125 
Q 10.40625 8.6875 15.234375 7.390625 
Q 20.0625 6.109375 24.8125 6.109375 
Q 31.15625 6.109375 34.5625 8.28125 
Q 37.984375 10.453125 37.984375 14.40625 
Q 37.984375 18.0625 35.515625 20.015625 
Q 33.0625 21.96875 24.703125 23.78125 
L 21.578125 24.515625 
Q 13.234375 26.265625 9.515625 29.90625 
Q 5.8125 33.546875 5.8125 39.890625 
Q 5.8125 47.609375 11.28125 51.796875 
Q 16.75 56 26.8125 56 
Q 31.78125 56 36.171875 55.265625 
Q 40.578125 54.546875 44.28125 53.078125 
z
" id="DejaVuSans-115"/>
      <path d="M 56.203125 29.59375 
L 56.203125 25.203125 
L 14.890625 25.203125 
Q 15.484375 15.921875 20.484375 11.0625 
Q 25.484375 6.203125 34.421875 6.203125 
Q 39.59375 6.203125 44.453125 7.46875 
Q 49.3125 8.734375 54.109375 11.28125 
L 54.109375 2.78125 
Q 49.265625 0.734375 44.1875 -0.34375 
Q 39.109375 -1.421875 33.890625 -1.421875 
Q 20.796875 -1.421875 13.15625 6.1875 
Q 5.515625 13.8125 5.515625 26.8125 
Q 5.515625 40.234375 12.765625 48.109375 
Q 20.015625 56 32.328125 56 
Q 43.359375 56 49.78125 48.890625 
Q 56.203125 41.796875 56.203125 29.59375 
z
M 47.21875 32.234375 
Q 47.125 39.59375 43.09375 43.984375 
Q 39.0625 48.390625 32.421875 48.390625 
Q 24.90625 48.390625 20.390625 44.140625 
Q 15.875 39.890625 15.1875 32.171875 
z
" id="DejaVuSans-101"/>
      <path d="M 9.421875 75.984375 
L 18.40625 75.984375 
L 18.40625 0 
L 9.421875 0 
z
" id="DejaVuSans-108"/>
      <path d="M 9.421875 54.6875 
L 18.40625 54.6875 
L 18.40625 0 
L 9.421875 0 
z
M 9.421875 75.984375 
L 18.40625 75.984375 
L 18.40625 64.59375 
L 9.421875 64.59375 
z
" id="DejaVuSans-105"/>
      <path d="M 54.890625 33.015625 
L 54.890625 0 
L 45.90625 0 
L 45.90625 32.71875 
Q 45.90625 40.484375 42.875 44.328125 
Q 39.84375 48.1875 33.796875 48.1875 
Q 26.515625 48.1875 22.3125 43.546875 
Q 18.109375 38.921875 18.109375 30.90625 
L 18.109375 0 
L 9.078125 0 
L 9.078125 54.6875 
L 18.109375 54.6875 
L 18.109375 46.1875 
Q 21.34375 51.125 25.703125 53.5625 
Q 30.078125 56 35.796875 56 
Q 45.21875 56 50.046875 50.171875 
Q 54.890625 44.34375 54.890625 33.015625 
z
" id="DejaVuSans-110"/>
      <path id="DejaVuSans-32"/>
     </defs>
     <g transform="translate(374.584688 191.93875)scale(0.1 -0.1)">
      <use xlink:href="#DejaVuSans-66"/>
      <use x="68.603516" xlink:href="#DejaVuSans-97"/>
      <use x="129.882812" xlink:href="#DejaVuSans-115"/>
      <use x="181.982422" xlink:href="#DejaVuSans-101"/>
      <use x="243.505859" xlink:href="#DejaVuSans-108"/>
      <use x="271.289062" xlink:href="#DejaVuSans-105"/>
      <use x="299.072266" xlink:href="#DejaVuSans-110"/>
      <use x="362.451172" xlink:href="#DejaVuSans-101"/>
      <use x="423.974609" xlink:href="#DejaVuSans-32"/>
     </g>
     <!-- Performance -->
     <defs>
      <path d="M 19.671875 64.796875 
L 19.671875 37.40625 
L 32.078125 37.40625 
Q 38.96875 37.40625 42.71875 40.96875 
Q 46.484375 44.53125 46.484375 51.125 
Q 46.484375 57.671875 42.71875 61.234375 
Q 38.96875 64.796875 32.078125 64.796875 
z
M 9.8125 72.90625 
L 32.078125 72.90625 
Q 44.34375 72.90625 50.609375 67.359375 
Q 56.890625 61.8125 56.890625 51.125 
Q 56.890625 40.328125 50.609375 34.8125 
Q 44.34375 29.296875 32.078125 29.296875 
L 19.671875 29.296875 
L 19.671875 0 
L 9.8125 0 
z
" id="DejaVuSans-80"/>
      <path d="M 41.109375 46.296875 
Q 39.59375 47.171875 37.8125 47.578125 
Q 36.03125 48 33.890625 48 
Q 26.265625 48 22.1875 43.046875 
Q 18.109375 38.09375 18.109375 28.8125 
L 18.109375 0 
L 9.078125 0 
L 9.078125 54.6875 
L 18.109375 54.6875 
L 18.109375 46.1875 
Q 20.953125 51.171875 25.484375 53.578125 
Q 30.03125 56 36.53125 56 
Q 37.453125 56 38.578125 55.875 
Q 39.703125 55.765625 41.0625 55.515625 
z
" id="DejaVuSans-114"/>
      <path d="M 37.109375 75.984375 
L 37.109375 68.5 
L 28.515625 68.5 
Q 23.6875 68.5 21.796875 66.546875 
Q 19.921875 64.59375 19.921875 59.515625 
L 19.921875 54.6875 
L 34.71875 54.6875 
L 34.71875 47.703125 
L 19.921875 47.703125 
L 19.921875 0 
L 10.890625 0 
L 10.890625 47.703125 
L 2.296875 47.703125 
L 2.296875 54.6875 
L 10.890625 54.6875 
L 10.890625 58.5 
Q 10.890625 67.625 15.140625 71.796875 
Q 19.390625 75.984375 28.609375 75.984375 
z
" id="DejaVuSans-102"/>
      <path d="M 30.609375 48.390625 
Q 23.390625 48.390625 19.1875 42.75 
Q 14.984375 37.109375 14.984375 27.296875 
Q 14.984375 17.484375 19.15625 11.84375 
Q 23.34375 6.203125 30.609375 6.203125 
Q 37.796875 6.203125 41.984375 11.859375 
Q 46.1875 17.53125 46.1875 27.296875 
Q 46.1875 37.015625 41.984375 42.703125 
Q 37.796875 48.390625 30.609375 48.390625 
z
M 30.609375 56 
Q 42.328125 56 49.015625 48.375 
Q 55.71875 40.765625 55.71875 27.296875 
Q 55.71875 13.875 49.015625 6.21875 
Q 42.328125 -1.421875 30.609375 -1.421875 
Q 18.84375 -1.421875 12.171875 6.21875 
Q 5.515625 13.875 5.515625 27.296875 
Q 5.515625 40.765625 12.171875 48.375 
Q 18.84375 56 30.609375 56 
z
" id="DejaVuSans-111"/>
      <path d="M 52 44.1875 
Q 55.375 50.25 60.0625 53.125 
Q 64.75 56 71.09375 56 
Q 79.640625 56 84.28125 50.015625 
Q 88.921875 44.046875 88.921875 33.015625 
L 88.921875 0 
L 79.890625 0 
L 79.890625 32.71875 
Q 79.890625 40.578125 77.09375 44.375 
Q 74.3125 48.1875 68.609375 48.1875 
Q 61.625 48.1875 57.5625 43.546875 
Q 53.515625 38.921875 53.515625 30.90625 
L 53.515625 0 
L 44.484375 0 
L 44.484375 32.71875 
Q 44.484375 40.625 41.703125 44.40625 
Q 38.921875 48.1875 33.109375 48.1875 
Q 26.21875 48.1875 22.15625 43.53125 
Q 18.109375 38.875 18.109375 30.90625 
L 18.109375 0 
L 9.078125 0 
L 9.078125 54.6875 
L 18.109375 54.6875 
L 18.109375 46.1875 
Q 21.1875 51.21875 25.484375 53.609375 
Q 29.78125 56 35.6875 56 
Q 41.65625 56 45.828125 52.96875 
Q 50 49.953125 52 44.1875 
z
" id="DejaVuSans-109"/>
      <path d="M 48.78125 52.59375 
L 48.78125 44.1875 
Q 44.96875 46.296875 41.140625 47.34375 
Q 37.3125 48.390625 33.40625 48.390625 
Q 24.65625 48.390625 19.8125 42.84375 
Q 14.984375 37.3125 14.984375 27.296875 
Q 14.984375 17.28125 19.8125 11.734375 
Q 24.65625 6.203125 33.40625 6.203125 
Q 37.3125 6.203125 41.140625 7.25 
Q 44.96875 8.296875 48.78125 10.40625 
L 48.78125 2.09375 
Q 45.015625 0.34375 40.984375 -0.53125 
Q 36.96875 -1.421875 32.421875 -1.421875 
Q 20.0625 -1.421875 12.78125 6.34375 
Q 5.515625 14.109375 5.515625 27.296875 
Q 5.515625 40.671875 12.859375 48.328125 
Q 20.21875 56 33.015625 56 
Q 37.15625 56 41.109375 55.140625 
Q 45.0625 54.296875 48.78125 52.59375 
z
" id="DejaVuSans-99"/>
     </defs>
     <g transform="translate(374.584688 203.136562)scale(0.1 -0.1)">
      <use xlink:href="#DejaVuSans-80"/>
      <use x="60.255859" xlink:href="#DejaVuSans-101"/>
      <use x="121.779297" xlink:href="#DejaVuSans-114"/>
      <use x="162.892578" xlink:href="#DejaVuSans-102"/>
      <use x="198.097656" xlink:href="#DejaVuSans-111"/>
      <use x="259.279297" xlink:href="#DejaVuSans-114"/>
      <use x="300.376953" xlink:href="#DejaVuSans-109"/>
      <use x="397.789062" xlink:href="#DejaVuSans-97"/>
      <use x="459.068359" xlink:href="#DejaVuSans-110"/>
      <use x="522.447266" xlink:href="#DejaVuSans-99"/>
      <use x="577.427734" xlink:href="#DejaVuSans-101"/>
     </g>
    </g>
    <g id="line2d_34">
     <path d="M 346.584688 220.953437 
L 366.584688 220.953437 
" style="fill:none;stroke:#ff7f0e;stroke-linecap:square;stroke-width:1.5;"/>
    </g>
    <g id="line2d_35"/>
    <g id="text_15">
     <!-- CPU at 20% -->
     <defs>
      <path d="M 64.40625 67.28125 
L 64.40625 56.890625 
Q 59.421875 61.53125 53.78125 63.8125 
Q 48.140625 66.109375 41.796875 66.109375 
Q 29.296875 66.109375 22.65625 58.46875 
Q 16.015625 50.828125 16.015625 36.375 
Q 16.015625 21.96875 22.65625 14.328125 
Q 29.296875 6.6875 41.796875 6.6875 
Q 48.140625 6.6875 53.78125 8.984375 
Q 59.421875 11.28125 64.40625 15.921875 
L 64.40625 5.609375 
Q 59.234375 2.09375 53.4375 0.328125 
Q 47.65625 -1.421875 41.21875 -1.421875 
Q 24.65625 -1.421875 15.125 8.703125 
Q 5.609375 18.84375 5.609375 36.375 
Q 5.609375 53.953125 15.125 64.078125 
Q 24.65625 74.21875 41.21875 74.21875 
Q 47.75 74.21875 53.53125 72.484375 
Q 59.328125 70.75 64.40625 67.28125 
z
" id="DejaVuSans-67"/>
      <path d="M 8.6875 72.90625 
L 18.609375 72.90625 
L 18.609375 28.609375 
Q 18.609375 16.890625 22.84375 11.734375 
Q 27.09375 6.59375 36.625 6.59375 
Q 46.09375 6.59375 50.34375 11.734375 
Q 54.59375 16.890625 54.59375 28.609375 
L 54.59375 72.90625 
L 64.5 72.90625 
L 64.5 27.390625 
Q 64.5 13.140625 57.4375 5.859375 
Q 50.390625 -1.421875 36.625 -1.421875 
Q 22.796875 -1.421875 15.734375 5.859375 
Q 8.6875 13.140625 8.6875 27.390625 
z
" id="DejaVuSans-85"/>
      <path d="M 18.3125 70.21875 
L 18.3125 54.6875 
L 36.8125 54.6875 
L 36.8125 47.703125 
L 18.3125 47.703125 
L 18.3125 18.015625 
Q 18.3125 11.328125 20.140625 9.421875 
Q 21.96875 7.515625 27.59375 7.515625 
L 36.8125 7.515625 
L 36.8125 0 
L 27.59375 0 
Q 17.1875 0 13.234375 3.875 
Q 9.28125 7.765625 9.28125 18.015625 
L 9.28125 47.703125 
L 2.6875 47.703125 
L 2.6875 54.6875 
L 9.28125 54.6875 
L 9.28125 70.21875 
z
" id="DejaVuSans-116"/>
      <path d="M 72.703125 32.078125 
Q 68.453125 32.078125 66.03125 28.46875 
Q 63.625 24.859375 63.625 18.40625 
Q 63.625 12.0625 66.03125 8.421875 
Q 68.453125 4.78125 72.703125 4.78125 
Q 76.859375 4.78125 79.265625 8.421875 
Q 81.6875 12.0625 81.6875 18.40625 
Q 81.6875 24.8125 79.265625 28.4375 
Q 76.859375 32.078125 72.703125 32.078125 
z
M 72.703125 38.28125 
Q 80.421875 38.28125 84.953125 32.90625 
Q 89.5 27.546875 89.5 18.40625 
Q 89.5 9.28125 84.9375 3.921875 
Q 80.375 -1.421875 72.703125 -1.421875 
Q 64.890625 -1.421875 60.34375 3.921875 
Q 55.8125 9.28125 55.8125 18.40625 
Q 55.8125 27.59375 60.375 32.9375 
Q 64.9375 38.28125 72.703125 38.28125 
z
M 22.3125 68.015625 
Q 18.109375 68.015625 15.6875 64.375 
Q 13.28125 60.75 13.28125 54.390625 
Q 13.28125 47.953125 15.671875 44.328125 
Q 18.0625 40.71875 22.3125 40.71875 
Q 26.5625 40.71875 28.96875 44.328125 
Q 31.390625 47.953125 31.390625 54.390625 
Q 31.390625 60.6875 28.953125 64.34375 
Q 26.515625 68.015625 22.3125 68.015625 
z
M 66.40625 74.21875 
L 74.21875 74.21875 
L 28.609375 -1.421875 
L 20.796875 -1.421875 
z
M 22.3125 74.21875 
Q 30.03125 74.21875 34.609375 68.875 
Q 39.203125 63.53125 39.203125 54.390625 
Q 39.203125 45.171875 34.640625 39.84375 
Q 30.078125 34.515625 22.3125 34.515625 
Q 14.546875 34.515625 10.03125 39.859375 
Q 5.515625 45.21875 5.515625 54.390625 
Q 5.515625 63.484375 10.046875 68.84375 
Q 14.59375 74.21875 22.3125 74.21875 
z
" id="DejaVuSans-37"/>
     </defs>
     <g transform="translate(374.584688 217.814687)scale(0.1 -0.1)">
      <use xlink:href="#DejaVuSans-67"/>
      <use x="69.824219" xlink:href="#DejaVuSans-80"/>
      <use x="130.126953" xlink:href="#DejaVuSans-85"/>
      <use x="203.320312" xlink:href="#DejaVuSans-32"/>
      <use x="235.107422" xlink:href="#DejaVuSans-97"/>
      <use x="296.386719" xlink:href="#DejaVuSans-116"/>
      <use x="335.595703" xlink:href="#DejaVuSans-32"/>
      <use x="367.382812" xlink:href="#DejaVuSans-50"/>
      <use x="431.005859" xlink:href="#DejaVuSans-48"/>
      <use x="494.628906" xlink:href="#DejaVuSans-37"/>
     </g>
     <!-- Contention -->
     <g transform="translate(374.584688 229.0125)scale(0.1 -0.1)">
      <use xlink:href="#DejaVuSans-67"/>
      <use x="69.824219" xlink:href="#DejaVuSans-111"/>
      <use x="131.005859" xlink:href="#DejaVuSans-110"/>
      <use x="194.384766" xlink:href="#DejaVuSans-116"/>
      <use x="233.59375" xlink:href="#DejaVuSans-101"/>
      <use x="295.117188" xlink:href="#DejaVuSans-110"/>
      <use x="358.496094" xlink:href="#DejaVuSans-116"/>
      <use x="397.705078" xlink:href="#DejaVuSans-105"/>
      <use x="425.488281" xlink:href="#DejaVuSans-111"/>
      <use x="486.669922" xlink:href="#DejaVuSans-110"/>
     </g>
    </g>
    <g id="line2d_36">
     <path d="M 346.584688 246.829375 
L 366.584688 246.829375 
" style="fill:none;stroke:#2ca02c;stroke-linecap:square;stroke-width:1.5;"/>
    </g>
    <g id="line2d_37"/>
    <g id="text_16">
     <!-- CPU at 40% -->
     <g transform="translate(374.584688 243.690625)scale(0.1 -0.1)">
      <use xlink:href="#DejaVuSans-67"/>
      <use x="69.824219" xlink:href="#DejaVuSans-80"/>
      <use x="130.126953" xlink:href="#DejaVuSans-85"/>
      <use x="203.320312" xlink:href="#DejaVuSans-32"/>
      <use x="235.107422" xlink:href="#DejaVuSans-97"/>
      <use x="296.386719" xlink:href="#DejaVuSans-116"/>
      <use x="335.595703" xlink:href="#DejaVuSans-32"/>
      <use x="367.382812" xlink:href="#DejaVuSans-52"/>
      <use x="431.005859" xlink:href="#DejaVuSans-48"/>
      <use x="494.628906" xlink:href="#DejaVuSans-37"/>
     </g>
     <!-- Contention -->
     <g transform="translate(374.584688 254.888437)scale(0.1 -0.1)">
      <use xlink:href="#DejaVuSans-67"/>
      <use x="69.824219" xlink:href="#DejaVuSans-111"/>
      <use x="131.005859" xlink:href="#DejaVuSans-110"/>
      <use x="194.384766" xlink:href="#DejaVuSans-116"/>
      <use x="233.59375" xlink:href="#DejaVuSans-101"/>
      <use x="295.117188" xlink:href="#DejaVuSans-110"/>
      <use x="358.496094" xlink:href="#DejaVuSans-116"/>
      <use x="397.705078" xlink:href="#DejaVuSans-105"/>
      <use x="425.488281" xlink:href="#DejaVuSans-111"/>
      <use x="486.669922" xlink:href="#DejaVuSans-110"/>
     </g>
    </g>
    <g id="line2d_38">
     <path d="M 346.584688 272.705312 
L 366.584688 272.705312 
" style="fill:none;stroke:#d62728;stroke-linecap:square;stroke-width:1.5;"/>
    </g>
    <g id="line2d_39"/>
    <g id="text_17">
     <!-- CPU at 60% -->
     <g transform="translate(374.584688 269.566562)scale(0.1 -0.1)">
      <use xlink:href="#DejaVuSans-67"/>
      <use x="69.824219" xlink:href="#DejaVuSans-80"/>
      <use x="130.126953" xlink:href="#DejaVuSans-85"/>
      <use x="203.320312" xlink:href="#DejaVuSans-32"/>
      <use x="235.107422" xlink:href="#DejaVuSans-97"/>
      <use x="296.386719" xlink:href="#DejaVuSans-116"/>
      <use x="335.595703" xlink:href="#DejaVuSans-32"/>
      <use x="367.382812" xlink:href="#DejaVuSans-54"/>
      <use x="431.005859" xlink:href="#DejaVuSans-48"/>
      <use x="494.628906" xlink:href="#DejaVuSans-37"/>
     </g>
     <!-- Contention -->
     <g transform="translate(374.584688 280.764375)scale(0.1 -0.1)">
      <use xlink:href="#DejaVuSans-67"/>
      <use x="69.824219" xlink:href="#DejaVuSans-111"/>
      <use x="131.005859" xlink:href="#DejaVuSans-110"/>
      <use x="194.384766" xlink:href="#DejaVuSans-116"/>
      <use x="233.59375" xlink:href="#DejaVuSans-101"/>
      <use x="295.117188" xlink:href="#DejaVuSans-110"/>
      <use x="358.496094" xlink:href="#DejaVuSans-116"/>
      <use x="397.705078" xlink:href="#DejaVuSans-105"/>
      <use x="425.488281" xlink:href="#DejaVuSans-111"/>
      <use x="486.669922" xlink:href="#DejaVuSans-110"/>
     </g>
    </g>
    <g id="line2d_40">
     <path d="M 346.584688 298.58125 
L 366.584688 298.58125 
" style="fill:none;stroke:#9467bd;stroke-linecap:square;stroke-width:1.5;"/>
    </g>
    <g id="line2d_41"/>
    <g id="text_18">
     <!-- CPU at 80% -->
     <g transform="translate(374.584688 295.4425)scale(0.1 -0.1)">
      <use xlink:href="#DejaVuSans-67"/>
      <use x="69.824219" xlink:href="#DejaVuSans-80"/>
      <use x="130.126953" xlink:href="#DejaVuSans-85"/>
      <use x="203.320312" xlink:href="#DejaVuSans-32"/>
      <use x="235.107422" xlink:href="#DejaVuSans-97"/>
      <use x="296.386719" xlink:href="#DejaVuSans-116"/>
      <use x="335.595703" xlink:href="#DejaVuSans-32"/>
      <use x="367.382812" xlink:href="#DejaVuSans-56"/>
      <use x="431.005859" xlink:href="#DejaVuSans-48"/>
      <use x="494.628906" xlink:href="#DejaVuSans-37"/>
     </g>
     <!-- Contention -->
     <g transform="translate(374.584688 306.640312)scale(0.1 -0.1)">
      <use xlink:href="#DejaVuSans-67"/>
      <use x="69.824219" xlink:href="#DejaVuSans-111"/>
      <use x="131.005859" xlink:href="#DejaVuSans-110"/>
      <use x="194.384766" xlink:href="#DejaVuSans-116"/>
      <use x="233.59375" xlink:href="#DejaVuSans-101"/>
      <use x="295.117188" xlink:href="#DejaVuSans-110"/>
      <use x="358.496094" xlink:href="#DejaVuSans-116"/>
      <use x="397.705078" xlink:href="#DejaVuSans-105"/>
      <use x="425.488281" xlink:href="#DejaVuSans-111"/>
      <use x="486.669922" xlink:href="#DejaVuSans-110"/>
     </g>
    </g>
   </g>
  </g>
 </g>
 <defs>
  <clipPath id="pf86f306e95">
   <rect height="304.4" width="413.84" x="33.64" y="13.32"/>
  </clipPath>
 </defs>
</svg>
