<?xml version="1.0" encoding="utf-8" standalone="no"?>
<!DOCTYPE svg PUBLIC "-//W3C//DTD SVG 1.1//EN"
  "http://www.w3.org/Graphics/SVG/1.1/DTD/svg11.dtd">
<!-- Created with matplotlib (https://matplotlib.org/) -->
<svg height="345.6pt" version="1.1" viewBox="0 0 460.8 345.6" width="460.8pt" xmlns="http://www.w3.org/2000/svg" xmlns:xlink="http://www.w3.org/1999/xlink">
 <defs>
  <style type="text/css">
*{stroke-linecap:butt;stroke-linejoin:round;}
  </style>
 </defs>
 <g id="figure_1">
  <g id="patch_1">
   <path d="M 0 345.6 
L 460.8 345.6 
L 460.8 0 
L 0 0 
z
" style="fill:#ffffff;"/>
  </g>
  <g id="axes_1">
   <g id="patch_2">
    <path d="M 33.64 317.72 
L 447.48 317.72 
L 447.48 13.32 
L 33.64 13.32 
z
" style="fill:#ffffff;"/>
   </g>
   <g id="matplotlib.axis_1">
    <g id="xtick_1">
     <g id="line2d_1">
      <path clip-path="url(#p63d3de930d)" d="M 50.22182 317.72 
L 50.22182 13.32 
" style="fill:none;stroke:#b0b0b0;stroke-linecap:square;stroke-width:0.8;"/>
     </g>
     <g id="line2d_2">
      <defs>
       <path d="M 0 0 
L 0 3.5 
" id="m562affa478" style="stroke:#000000;stroke-width:0.8;"/>
      </defs>
      <g>
       <use style="stroke:#000000;stroke-width:0.8;" x="50.22182" xlink:href="#m562affa478" y="317.72"/>
      </g>
     </g>
     <g id="text_1">
      <!-- 0 -->
      <defs>
       <path d="M 31.78125 66.40625 
Q 24.171875 66.40625 20.328125 58.90625 
Q 16.5 51.421875 16.5 36.375 
Q 16.5 21.390625 20.328125 13.890625 
Q 24.171875 6.390625 31.78125 6.390625 
Q 39.453125 6.390625 43.28125 13.890625 
Q 47.125 21.390625 47.125 36.375 
Q 47.125 51.421875 43.28125 58.90625 
Q 39.453125 66.40625 31.78125 66.40625 
z
M 31.78125 74.21875 
Q 44.046875 74.21875 50.515625 64.515625 
Q 56.984375 54.828125 56.984375 36.375 
Q 56.984375 17.96875 50.515625 8.265625 
Q 44.046875 -1.421875 31.78125 -1.421875 
Q 19.53125 -1.421875 13.0625 8.265625 
Q 6.59375 17.96875 6.59375 36.375 
Q 6.59375 54.828125 13.0625 64.515625 
Q 19.53125 74.21875 31.78125 74.21875 
z
" id="DejaVuSans-48"/>
      </defs>
      <g transform="translate(47.04057 332.318437)scale(0.1 -0.1)">
       <use xlink:href="#DejaVuSans-48"/>
      </g>
     </g>
    </g>
    <g id="xtick_2">
     <g id="line2d_3">
      <path clip-path="url(#p63d3de930d)" d="M 126.091607 317.72 
L 126.091607 13.32 
" style="fill:none;stroke:#b0b0b0;stroke-linecap:square;stroke-width:0.8;"/>
     </g>
     <g id="line2d_4">
      <g>
       <use style="stroke:#000000;stroke-width:0.8;" x="126.091607" xlink:href="#m562affa478" y="317.72"/>
      </g>
     </g>
     <g id="text_2">
      <!-- 5000 -->
      <defs>
       <path d="M 10.796875 72.90625 
L 49.515625 72.90625 
L 49.515625 64.59375 
L 19.828125 64.59375 
L 19.828125 46.734375 
Q 21.96875 47.46875 24.109375 47.828125 
Q 26.265625 48.1875 28.421875 48.1875 
Q 40.625 48.1875 47.75 41.5 
Q 54.890625 34.8125 54.890625 23.390625 
Q 54.890625 11.625 47.5625 5.09375 
Q 40.234375 -1.421875 26.90625 -1.421875 
Q 22.3125 -1.421875 17.546875 -0.640625 
Q 12.796875 0.140625 7.71875 1.703125 
L 7.71875 11.625 
Q 12.109375 9.234375 16.796875 8.0625 
Q 21.484375 6.890625 26.703125 6.890625 
Q 35.15625 6.890625 40.078125 11.328125 
Q 45.015625 15.765625 45.015625 23.390625 
Q 45.015625 31 40.078125 35.4375 
Q 35.15625 39.890625 26.703125 39.890625 
Q 22.75 39.890625 18.8125 39.015625 
Q 14.890625 38.140625 10.796875 36.28125 
z
" id="DejaVuSans-53"/>
      </defs>
      <g transform="translate(113.366607 332.318437)scale(0.1 -0.1)">
       <use xlink:href="#DejaVuSans-53"/>
       <use x="63.623047" xlink:href="#DejaVuSans-48"/>
       <use x="127.246094" xlink:href="#DejaVuSans-48"/>
       <use x="190.869141" xlink:href="#DejaVuSans-48"/>
      </g>
     </g>
    </g>
    <g id="xtick_3">
     <g id="line2d_5">
      <path clip-path="url(#p63d3de930d)" d="M 201.961394 317.72 
L 201.961394 13.32 
" style="fill:none;stroke:#b0b0b0;stroke-linecap:square;stroke-width:0.8;"/>
     </g>
     <g id="line2d_6">
      <g>
       <use style="stroke:#000000;stroke-width:0.8;" x="201.961394" xlink:href="#m562affa478" y="317.72"/>
      </g>
     </g>
     <g id="text_3">
      <!-- 10000 -->
      <defs>
       <path d="M 12.40625 8.296875 
L 28.515625 8.296875 
L 28.515625 63.921875 
L 10.984375 60.40625 
L 10.984375 69.390625 
L 28.421875 72.90625 
L 38.28125 72.90625 
L 38.28125 8.296875 
L 54.390625 8.296875 
L 54.390625 0 
L 12.40625 0 
z
" id="DejaVuSans-49"/>
      </defs>
      <g transform="translate(186.055144 332.318437)scale(0.1 -0.1)">
       <use xlink:href="#DejaVuSans-49"/>
       <use x="63.623047" xlink:href="#DejaVuSans-48"/>
       <use x="127.246094" xlink:href="#DejaVuSans-48"/>
       <use x="190.869141" xlink:href="#DejaVuSans-48"/>
       <use x="254.492188" xlink:href="#DejaVuSans-48"/>
      </g>
     </g>
    </g>
    <g id="xtick_4">
     <g id="line2d_7">
      <path clip-path="url(#p63d3de930d)" d="M 277.831181 317.72 
L 277.831181 13.32 
" style="fill:none;stroke:#b0b0b0;stroke-linecap:square;stroke-width:0.8;"/>
     </g>
     <g id="line2d_8">
      <g>
       <use style="stroke:#000000;stroke-width:0.8;" x="277.831181" xlink:href="#m562affa478" y="317.72"/>
      </g>
     </g>
     <g id="text_4">
      <!-- 15000 -->
      <g transform="translate(261.924931 332.318437)scale(0.1 -0.1)">
       <use xlink:href="#DejaVuSans-49"/>
       <use x="63.623047" xlink:href="#DejaVuSans-53"/>
       <use x="127.246094" xlink:href="#DejaVuSans-48"/>
       <use x="190.869141" xlink:href="#DejaVuSans-48"/>
       <use x="254.492188" xlink:href="#DejaVuSans-48"/>
      </g>
     </g>
    </g>
    <g id="xtick_5">
     <g id="line2d_9">
      <path clip-path="url(#p63d3de930d)" d="M 353.700968 317.72 
L 353.700968 13.32 
" style="fill:none;stroke:#b0b0b0;stroke-linecap:square;stroke-width:0.8;"/>
     </g>
     <g id="line2d_10">
      <g>
       <use style="stroke:#000000;stroke-width:0.8;" x="353.700968" xlink:href="#m562affa478" y="317.72"/>
      </g>
     </g>
     <g id="text_5">
      <!-- 20000 -->
      <defs>
       <path d="M 19.1875 8.296875 
L 53.609375 8.296875 
L 53.609375 0 
L 7.328125 0 
L 7.328125 8.296875 
Q 12.9375 14.109375 22.625 23.890625 
Q 32.328125 33.6875 34.8125 36.53125 
Q 39.546875 41.84375 41.421875 45.53125 
Q 43.3125 49.21875 43.3125 52.78125 
Q 43.3125 58.59375 39.234375 62.25 
Q 35.15625 65.921875 28.609375 65.921875 
Q 23.96875 65.921875 18.8125 64.3125 
Q 13.671875 62.703125 7.8125 59.421875 
L 7.8125 69.390625 
Q 13.765625 71.78125 18.9375 73 
Q 24.125 74.21875 28.421875 74.21875 
Q 39.75 74.21875 46.484375 68.546875 
Q 53.21875 62.890625 53.21875 53.421875 
Q 53.21875 48.921875 51.53125 44.890625 
Q 49.859375 40.875 45.40625 35.40625 
Q 44.1875 33.984375 37.640625 27.21875 
Q 31.109375 20.453125 19.1875 8.296875 
z
" id="DejaVuSans-50"/>
      </defs>
      <g transform="translate(337.794718 332.318437)scale(0.1 -0.1)">
       <use xlink:href="#DejaVuSans-50"/>
       <use x="63.623047" xlink:href="#DejaVuSans-48"/>
       <use x="127.246094" xlink:href="#DejaVuSans-48"/>
       <use x="190.869141" xlink:href="#DejaVuSans-48"/>
       <use x="254.492188" xlink:href="#DejaVuSans-48"/>
      </g>
     </g>
    </g>
    <g id="xtick_6">
     <g id="line2d_11">
      <path clip-path="url(#p63d3de930d)" d="M 429.570754 317.72 
L 429.570754 13.32 
" style="fill:none;stroke:#b0b0b0;stroke-linecap:square;stroke-width:0.8;"/>
     </g>
     <g id="line2d_12">
      <g>
       <use style="stroke:#000000;stroke-width:0.8;" x="429.570754" xlink:href="#m562affa478" y="317.72"/>
      </g>
     </g>
     <g id="text_6">
      <!-- 25000 -->
      <g transform="translate(413.664504 332.318437)scale(0.1 -0.1)">
       <use xlink:href="#DejaVuSans-50"/>
       <use x="63.623047" xlink:href="#DejaVuSans-53"/>
       <use x="127.246094" xlink:href="#DejaVuSans-48"/>
       <use x="190.869141" xlink:href="#DejaVuSans-48"/>
       <use x="254.492188" xlink:href="#DejaVuSans-48"/>
      </g>
     </g>
    </g>
   </g>
   <g id="matplotlib.axis_2">
    <g id="ytick_1">
     <g id="line2d_13">
      <path clip-path="url(#p63d3de930d)" d="M 33.64 312.022674 
L 447.48 312.022674 
" style="fill:none;stroke:#b0b0b0;stroke-linecap:square;stroke-width:0.8;"/>
     </g>
     <g id="line2d_14">
      <defs>
       <path d="M 0 0 
L -3.5 0 
" id="me145875c4f" style="stroke:#000000;stroke-width:0.8;"/>
      </defs>
      <g>
       <use style="stroke:#000000;stroke-width:0.8;" x="33.64" xlink:href="#me145875c4f" y="312.022674"/>
      </g>
     </g>
     <g id="text_7">
      <!-- 0.5 -->
      <defs>
       <path d="M 10.6875 12.40625 
L 21 12.40625 
L 21 0 
L 10.6875 0 
z
" id="DejaVuSans-46"/>
      </defs>
      <g transform="translate(10.736875 315.821893)scale(0.1 -0.1)">
       <use xlink:href="#DejaVuSans-48"/>
       <use x="63.623047" xlink:href="#DejaVuSans-46"/>
       <use x="95.410156" xlink:href="#DejaVuSans-53"/>
      </g>
     </g>
    </g>
    <g id="ytick_2">
     <g id="line2d_15">
      <path clip-path="url(#p63d3de930d)" d="M 33.64 255.049412 
L 447.48 255.049412 
" style="fill:none;stroke:#b0b0b0;stroke-linecap:square;stroke-width:0.8;"/>
     </g>
     <g id="line2d_16">
      <g>
       <use style="stroke:#000000;stroke-width:0.8;" x="33.64" xlink:href="#me145875c4f" y="255.049412"/>
      </g>
     </g>
     <g id="text_8">
      <!-- 0.6 -->
      <defs>
       <path d="M 33.015625 40.375 
Q 26.375 40.375 22.484375 35.828125 
Q 18.609375 31.296875 18.609375 23.390625 
Q 18.609375 15.53125 22.484375 10.953125 
Q 26.375 6.390625 33.015625 6.390625 
Q 39.65625 6.390625 43.53125 10.953125 
Q 47.40625 15.53125 47.40625 23.390625 
Q 47.40625 31.296875 43.53125 35.828125 
Q 39.65625 40.375 33.015625 40.375 
z
M 52.59375 71.296875 
L 52.59375 62.3125 
Q 48.875 64.0625 45.09375 64.984375 
Q 41.3125 65.921875 37.59375 65.921875 
Q 27.828125 65.921875 22.671875 59.328125 
Q 17.53125 52.734375 16.796875 39.40625 
Q 19.671875 43.65625 24.015625 45.921875 
Q 28.375 48.1875 33.59375 48.1875 
Q 44.578125 48.1875 50.953125 41.515625 
Q 57.328125 34.859375 57.328125 23.390625 
Q 57.328125 12.15625 50.6875 5.359375 
Q 44.046875 -1.421875 33.015625 -1.421875 
Q 20.359375 -1.421875 13.671875 8.265625 
Q 6.984375 17.96875 6.984375 36.375 
Q 6.984375 53.65625 15.1875 63.9375 
Q 23.390625 74.21875 37.203125 74.21875 
Q 40.921875 74.21875 44.703125 73.484375 
Q 48.484375 72.75 52.59375 71.296875 
z
" id="DejaVuSans-54"/>
      </defs>
      <g transform="translate(10.736875 258.848631)scale(0.1 -0.1)">
       <use xlink:href="#DejaVuSans-48"/>
       <use x="63.623047" xlink:href="#DejaVuSans-46"/>
       <use x="95.410156" xlink:href="#DejaVuSans-54"/>
      </g>
     </g>
    </g>
    <g id="ytick_3">
     <g id="line2d_17">
      <path clip-path="url(#p63d3de930d)" d="M 33.64 198.07615 
L 447.48 198.07615 
" style="fill:none;stroke:#b0b0b0;stroke-linecap:square;stroke-width:0.8;"/>
     </g>
     <g id="line2d_18">
      <g>
       <use style="stroke:#000000;stroke-width:0.8;" x="33.64" xlink:href="#me145875c4f" y="198.07615"/>
      </g>
     </g>
     <g id="text_9">
      <!-- 0.7 -->
      <defs>
       <path d="M 8.203125 72.90625 
L 55.078125 72.90625 
L 55.078125 68.703125 
L 28.609375 0 
L 18.3125 0 
L 43.21875 64.59375 
L 8.203125 64.59375 
z
" id="DejaVuSans-55"/>
      </defs>
      <g transform="translate(10.736875 201.875368)scale(0.1 -0.1)">
       <use xlink:href="#DejaVuSans-48"/>
       <use x="63.623047" xlink:href="#DejaVuSans-46"/>
       <use x="95.410156" xlink:href="#DejaVuSans-55"/>
      </g>
     </g>
    </g>
    <g id="ytick_4">
     <g id="line2d_19">
      <path clip-path="url(#p63d3de930d)" d="M 33.64 141.102888 
L 447.48 141.102888 
" style="fill:none;stroke:#b0b0b0;stroke-linecap:square;stroke-width:0.8;"/>
     </g>
     <g id="line2d_20">
      <g>
       <use style="stroke:#000000;stroke-width:0.8;" x="33.64" xlink:href="#me145875c4f" y="141.102888"/>
      </g>
     </g>
     <g id="text_10">
      <!-- 0.8 -->
      <defs>
       <path d="M 31.78125 34.625 
Q 24.75 34.625 20.71875 30.859375 
Q 16.703125 27.09375 16.703125 20.515625 
Q 16.703125 13.921875 20.71875 10.15625 
Q 24.75 6.390625 31.78125 6.390625 
Q 38.8125 6.390625 42.859375 10.171875 
Q 46.921875 13.96875 46.921875 20.515625 
Q 46.921875 27.09375 42.890625 30.859375 
Q 38.875 34.625 31.78125 34.625 
z
M 21.921875 38.8125 
Q 15.578125 40.375 12.03125 44.71875 
Q 8.5 49.078125 8.5 55.328125 
Q 8.5 64.0625 14.71875 69.140625 
Q 20.953125 74.21875 31.78125 74.21875 
Q 42.671875 74.21875 48.875 69.140625 
Q 55.078125 64.0625 55.078125 55.328125 
Q 55.078125 49.078125 51.53125 44.71875 
Q 48 40.375 41.703125 38.8125 
Q 48.828125 37.15625 52.796875 32.3125 
Q 56.78125 27.484375 56.78125 20.515625 
Q 56.78125 9.90625 50.3125 4.234375 
Q 43.84375 -1.421875 31.78125 -1.421875 
Q 19.734375 -1.421875 13.25 4.234375 
Q 6.78125 9.90625 6.78125 20.515625 
Q 6.78125 27.484375 10.78125 32.3125 
Q 14.796875 37.15625 21.921875 38.8125 
z
M 18.3125 54.390625 
Q 18.3125 48.734375 21.84375 45.5625 
Q 25.390625 42.390625 31.78125 42.390625 
Q 38.140625 42.390625 41.71875 45.5625 
Q 45.3125 48.734375 45.3125 54.390625 
Q 45.3125 60.0625 41.71875 63.234375 
Q 38.140625 66.40625 31.78125 66.40625 
Q 25.390625 66.40625 21.84375 63.234375 
Q 18.3125 60.0625 18.3125 54.390625 
z
" id="DejaVuSans-56"/>
      </defs>
      <g transform="translate(10.736875 144.902106)scale(0.1 -0.1)">
       <use xlink:href="#DejaVuSans-48"/>
       <use x="63.623047" xlink:href="#DejaVuSans-46"/>
       <use x="95.410156" xlink:href="#DejaVuSans-56"/>
      </g>
     </g>
    </g>
    <g id="ytick_5">
     <g id="line2d_21">
      <path clip-path="url(#p63d3de930d)" d="M 33.64 84.129626 
L 447.48 84.129626 
" style="fill:none;stroke:#b0b0b0;stroke-linecap:square;stroke-width:0.8;"/>
     </g>
     <g id="line2d_22">
      <g>
       <use style="stroke:#000000;stroke-width:0.8;" x="33.64" xlink:href="#me145875c4f" y="84.129626"/>
      </g>
     </g>
     <g id="text_11">
      <!-- 0.9 -->
      <defs>
       <path d="M 10.984375 1.515625 
L 10.984375 10.5 
Q 14.703125 8.734375 18.5 7.8125 
Q 22.3125 6.890625 25.984375 6.890625 
Q 35.75 6.890625 40.890625 13.453125 
Q 46.046875 20.015625 46.78125 33.40625 
Q 43.953125 29.203125 39.59375 26.953125 
Q 35.25 24.703125 29.984375 24.703125 
Q 19.046875 24.703125 12.671875 31.3125 
Q 6.296875 37.9375 6.296875 49.421875 
Q 6.296875 60.640625 12.9375 67.421875 
Q 19.578125 74.21875 30.609375 74.21875 
Q 43.265625 74.21875 49.921875 64.515625 
Q 56.59375 54.828125 56.59375 36.375 
Q 56.59375 19.140625 48.40625 8.859375 
Q 40.234375 -1.421875 26.421875 -1.421875 
Q 22.703125 -1.421875 18.890625 -0.6875 
Q 15.09375 0.046875 10.984375 1.515625 
z
M 30.609375 32.421875 
Q 37.25 32.421875 41.125 36.953125 
Q 45.015625 41.5 45.015625 49.421875 
Q 45.015625 57.28125 41.125 61.84375 
Q 37.25 66.40625 30.609375 66.40625 
Q 23.96875 66.40625 20.09375 61.84375 
Q 16.21875 57.28125 16.21875 49.421875 
Q 16.21875 41.5 20.09375 36.953125 
Q 23.96875 32.421875 30.609375 32.421875 
z
" id="DejaVuSans-57"/>
      </defs>
      <g transform="translate(10.736875 87.928844)scale(0.1 -0.1)">
       <use xlink:href="#DejaVuSans-48"/>
       <use x="63.623047" xlink:href="#DejaVuSans-46"/>
       <use x="95.410156" xlink:href="#DejaVuSans-57"/>
      </g>
     </g>
    </g>
    <g id="ytick_6">
     <g id="line2d_23">
      <path clip-path="url(#p63d3de930d)" d="M 33.64 27.156364 
L 447.48 27.156364 
" style="fill:none;stroke:#b0b0b0;stroke-linecap:square;stroke-width:0.8;"/>
     </g>
     <g id="line2d_24">
      <g>
       <use style="stroke:#000000;stroke-width:0.8;" x="33.64" xlink:href="#me145875c4f" y="27.156364"/>
      </g>
     </g>
     <g id="text_12">
      <!-- 1.0 -->
      <g transform="translate(10.736875 30.955582)scale(0.1 -0.1)">
       <use xlink:href="#DejaVuSans-49"/>
       <use x="63.623047" xlink:href="#DejaVuSans-46"/>
       <use x="95.410156" xlink:href="#DejaVuSans-48"/>
      </g>
     </g>
    </g>
   </g>
   <g id="line2d_25">
    <path clip-path="url(#p63d3de930d)" d="M 52.450909 274.040499 
L 54.549169 236.058324 
L 56.647429 217.067237 
L 58.74569 217.067237 
L 60.84395 217.067237 
L 62.94221 198.07615 
L 65.04047 198.07615 
L 67.13873 198.07615 
L 69.23699 198.07615 
L 71.33525 198.07615 
L 73.433511 198.07615 
L 75.531771 179.085062 
L 77.630031 179.085062 
L 79.728291 179.085062 
L 81.826551 179.085062 
L 83.924811 179.085062 
L 86.023072 179.085062 
L 88.121332 179.085062 
L 90.219592 179.085062 
L 92.317852 179.085062 
L 94.416112 179.085062 
L 96.514372 179.085062 
L 98.612632 179.085062 
L 100.710893 141.102888 
L 102.809153 141.102888 
L 104.907413 141.102888 
L 107.005673 141.102888 
L 109.103933 141.102888 
L 111.202193 141.102888 
L 113.300454 141.102888 
L 115.398714 122.1118 
L 117.496974 103.120713 
L 119.595234 103.120713 
L 121.693494 103.120713 
L 123.791754 103.120713 
L 125.890014 103.120713 
L 127.988275 103.120713 
L 130.086535 103.120713 
L 132.184795 84.129626 
L 134.283055 84.129626 
L 136.381315 84.129626 
L 138.479575 84.129626 
L 140.577836 84.129626 
L 142.676096 84.129626 
L 144.774356 84.129626 
L 146.872616 84.129626 
L 148.970876 84.129626 
L 151.069136 84.129626 
L 153.167396 84.129626 
L 155.265657 65.138538 
L 157.363917 65.138538 
L 159.462177 65.138538 
L 161.560437 65.138538 
L 163.658697 65.138538 
L 165.756957 65.138538 
L 167.855218 65.138538 
L 169.953478 65.138538 
L 172.051738 65.138538 
L 174.149998 65.138538 
L 176.248258 65.138538 
L 178.346518 65.138538 
L 180.444778 65.138538 
L 182.543039 65.138538 
L 184.641299 65.138538 
L 186.739559 65.138538 
L 188.837819 65.138538 
L 190.936079 65.138538 
L 193.034339 65.138538 
L 195.1326 65.138538 
L 197.23086 65.138538 
L 199.32912 65.138538 
L 201.42738 65.138538 
L 203.52564 65.138538 
L 205.6239 65.138538 
L 207.72216 65.138538 
L 209.820421 65.138538 
L 211.918681 46.147451 
L 214.016941 46.147451 
L 216.115201 46.147451 
L 218.213461 46.147451 
L 220.311721 46.147451 
L 222.409982 46.147451 
L 224.508242 46.147451 
L 226.606502 46.147451 
L 228.704762 46.147451 
L 230.803022 46.147451 
L 232.901282 46.147451 
L 234.999542 46.147451 
L 237.097803 46.147451 
L 239.196063 46.147451 
L 241.294323 46.147451 
L 243.392583 46.147451 
L 245.490843 46.147451 
L 247.589103 46.147451 
L 249.687364 46.147451 
L 251.785624 46.147451 
L 253.883884 46.147451 
L 255.982144 46.147451 
L 258.080404 46.147451 
L 260.178664 27.156364 
" style="fill:none;stroke:#1f77b4;stroke-linecap:square;stroke-width:1.5;"/>
   </g>
   <g id="line2d_26">
    <path clip-path="url(#p63d3de930d)" d="M 53.762116 271.327487 
L 57.093531 271.327487 
L 60.424945 271.327487 
L 63.75636 255.049412 
L 67.087774 255.049412 
L 70.419189 255.049412 
L 73.750603 238.771337 
L 77.082017 238.771337 
L 80.413432 238.771337 
L 83.744846 238.771337 
L 87.076261 238.771337 
L 90.407675 238.771337 
L 93.73909 238.771337 
L 97.070504 238.771337 
L 100.401919 206.215187 
L 103.733333 206.215187 
L 107.064747 206.215187 
L 110.396162 206.215187 
L 113.727576 189.937112 
L 117.058991 173.659037 
L 120.390405 173.659037 
L 123.72182 173.659037 
L 127.053234 173.659037 
L 130.384648 157.380963 
L 133.716063 157.380963 
L 137.047477 157.380963 
L 140.378892 157.380963 
L 143.710306 157.380963 
L 147.041721 157.380963 
L 150.373135 157.380963 
L 153.70455 157.380963 
L 157.035964 157.380963 
L 160.367378 141.102888 
L 163.698793 141.102888 
L 167.030207 141.102888 
L 170.361622 141.102888 
L 173.693036 141.102888 
L 177.024451 141.102888 
L 180.355865 141.102888 
L 183.687279 141.102888 
L 187.018694 141.102888 
L 190.350108 141.102888 
L 193.681523 141.102888 
L 197.012937 141.102888 
L 200.344352 141.102888 
L 203.675766 141.102888 
L 207.00718 141.102888 
L 210.338595 124.824813 
L 213.670009 124.824813 
L 217.001424 124.824813 
L 220.332838 124.824813 
L 223.664253 124.824813 
L 226.995667 124.824813 
L 230.327082 124.824813 
L 233.658496 124.824813 
L 236.98991 124.824813 
L 240.321325 124.824813 
L 243.652739 124.824813 
L 246.984154 124.824813 
L 250.315568 124.824813 
L 253.646983 124.824813 
L 256.978397 124.824813 
L 260.309811 124.824813 
L 263.641226 124.824813 
L 266.97264 124.824813 
L 270.304055 124.824813 
L 273.635469 124.824813 
L 276.966884 124.824813 
L 280.298298 124.824813 
L 283.629713 108.546738 
L 286.961127 108.546738 
L 290.292541 108.546738 
L 293.623956 108.546738 
L 296.95537 108.546738 
L 300.286785 108.546738 
L 303.618199 108.546738 
L 306.949614 108.546738 
L 310.281028 108.546738 
L 313.612442 108.546738 
L 316.943857 108.546738 
L 320.275271 108.546738 
L 323.606686 108.546738 
L 326.9381 108.546738 
L 330.269515 108.546738 
L 333.600929 108.546738 
L 336.932344 108.546738 
L 340.263758 108.546738 
L 343.595172 108.546738 
L 346.926587 108.546738 
L 350.258001 108.546738 
L 353.589416 108.546738 
L 356.92083 108.546738 
L 360.252245 108.546738 
L 363.583659 92.268663 
L 366.915073 92.268663 
L 370.246488 92.268663 
L 373.577902 92.268663 
L 376.909317 75.990588 
L 380.240731 75.990588 
L 383.572146 27.156364 
" style="fill:none;stroke:#ff7f0e;stroke-linecap:square;stroke-width:1.5;"/>
   </g>
   <g id="line2d_27">
    <path clip-path="url(#p63d3de930d)" d="M 53.791616 287.605561 
L 57.15388 271.327487 
L 60.516143 271.327487 
L 63.878407 271.327487 
L 67.24067 255.049412 
L 70.602934 255.049412 
L 73.965197 255.049412 
L 77.327461 255.049412 
L 80.689725 238.771337 
L 84.051988 238.771337 
L 87.414252 238.771337 
L 90.776515 238.771337 
L 94.138779 238.771337 
L 97.501042 238.771337 
L 100.863306 238.771337 
L 104.22557 206.215187 
L 107.587833 206.215187 
L 110.950097 206.215187 
L 114.31236 206.215187 
L 117.674624 189.937112 
L 121.036887 189.937112 
L 124.399151 189.937112 
L 127.761414 189.937112 
L 131.123678 173.659037 
L 134.485942 173.659037 
L 137.848205 157.380963 
L 141.210469 157.380963 
L 144.572732 157.380963 
L 147.934996 157.380963 
L 151.297259 157.380963 
L 154.659523 157.380963 
L 158.021787 157.380963 
L 161.38405 157.380963 
L 164.746314 157.380963 
L 168.108577 141.102888 
L 171.470841 141.102888 
L 174.833104 141.102888 
L 178.195368 141.102888 
L 181.557631 141.102888 
L 184.919895 141.102888 
L 188.282159 141.102888 
L 191.644422 141.102888 
L 195.006686 141.102888 
L 198.368949 141.102888 
L 201.731213 141.102888 
L 205.093476 141.102888 
L 208.45574 141.102888 
L 211.818004 141.102888 
L 215.180267 141.102888 
L 218.542531 141.102888 
L 221.904794 124.824813 
L 225.267058 124.824813 
L 228.629321 124.824813 
L 231.991585 124.824813 
L 235.353848 124.824813 
L 238.716112 124.824813 
L 242.078376 124.824813 
L 245.440639 124.824813 
L 248.802903 124.824813 
L 252.165166 124.824813 
L 255.52743 124.824813 
L 258.889693 124.824813 
L 262.251957 124.824813 
L 265.614221 124.824813 
L 268.976484 124.824813 
L 272.338748 124.824813 
L 275.701011 124.824813 
L 279.063275 124.824813 
L 282.425538 124.824813 
L 285.787802 124.824813 
L 289.150065 108.546738 
L 292.512329 108.546738 
L 295.874593 108.546738 
L 299.236856 108.546738 
L 302.59912 108.546738 
L 305.961383 108.546738 
L 309.323647 108.546738 
L 312.68591 108.546738 
L 316.048174 108.546738 
L 319.410438 108.546738 
L 322.772701 108.546738 
L 326.134965 108.546738 
L 329.497228 108.546738 
L 332.859492 108.546738 
L 336.221755 108.546738 
L 339.584019 108.546738 
L 342.946282 108.546738 
L 346.308546 108.546738 
L 349.67081 108.546738 
L 353.033073 108.546738 
L 356.395337 108.546738 
L 359.7576 92.268663 
L 363.119864 75.990588 
L 366.482127 75.990588 
L 369.844391 75.990588 
L 373.206655 75.990588 
L 376.568918 75.990588 
L 379.931182 43.434439 
L 383.293445 43.434439 
L 386.655709 27.156364 
" style="fill:none;stroke:#2ca02c;stroke-linecap:square;stroke-width:1.5;"/>
   </g>
   <g id="line2d_28">
    <path clip-path="url(#p63d3de930d)" d="M 53.678958 287.605561 
L 57.050923 271.327487 
L 60.422889 271.327487 
L 63.794854 271.327487 
L 67.166819 271.327487 
L 70.538785 255.049412 
L 73.91075 238.771337 
L 77.282715 238.771337 
L 80.654681 238.771337 
L 84.026646 238.771337 
L 87.398611 238.771337 
L 90.770576 238.771337 
L 94.142542 238.771337 
L 97.514507 238.771337 
L 100.886472 222.493262 
L 104.258438 206.215187 
L 107.630403 206.215187 
L 111.002368 189.937112 
L 114.374333 173.659037 
L 117.746299 173.659037 
L 121.118264 173.659037 
L 124.490229 173.659037 
L 127.862195 173.659037 
L 131.23416 157.380963 
L 134.606125 157.380963 
L 137.97809 157.380963 
L 141.350056 157.380963 
L 144.722021 157.380963 
L 148.093986 157.380963 
L 151.465952 157.380963 
L 154.837917 157.380963 
L 158.209882 157.380963 
L 161.581848 141.102888 
L 164.953813 141.102888 
L 168.325778 141.102888 
L 171.697743 141.102888 
L 175.069709 141.102888 
L 178.441674 141.102888 
L 181.813639 141.102888 
L 185.185605 141.102888 
L 188.55757 141.102888 
L 191.929535 141.102888 
L 195.3015 141.102888 
L 198.673466 141.102888 
L 202.045431 141.102888 
L 205.417396 141.102888 
L 208.789362 141.102888 
L 212.161327 141.102888 
L 215.533292 124.824813 
L 218.905257 124.824813 
L 222.277223 124.824813 
L 225.649188 124.824813 
L 229.021153 124.824813 
L 232.393119 124.824813 
L 235.765084 124.824813 
L 239.137049 124.824813 
L 242.509014 124.824813 
L 245.88098 124.824813 
L 249.252945 124.824813 
L 252.62491 124.824813 
L 255.996876 124.824813 
L 259.368841 124.824813 
L 262.740806 124.824813 
L 266.112772 124.824813 
L 269.484737 124.824813 
L 272.856702 124.824813 
L 276.228667 124.824813 
L 279.600633 124.824813 
L 282.972598 108.546738 
L 286.344563 108.546738 
L 289.716529 108.546738 
L 293.088494 108.546738 
L 296.460459 108.546738 
L 299.832424 108.546738 
L 303.20439 108.546738 
L 306.576355 108.546738 
L 309.94832 108.546738 
L 313.320286 108.546738 
L 316.692251 108.546738 
L 320.064216 108.546738 
L 323.436181 108.546738 
L 326.808147 108.546738 
L 330.180112 108.546738 
L 333.552077 108.546738 
L 336.924043 108.546738 
L 340.296008 108.546738 
L 343.667973 108.546738 
L 347.039939 108.546738 
L 350.411904 108.546738 
L 353.783869 108.546738 
L 357.155834 108.546738 
L 360.5278 92.268663 
L 363.899765 92.268663 
L 367.27173 92.268663 
L 370.643696 75.990588 
L 374.015661 75.990588 
L 377.387626 59.712513 
L 380.759591 59.712513 
L 384.131557 43.434439 
L 387.503522 27.156364 
" style="fill:none;stroke:#d62728;stroke-linecap:square;stroke-width:1.5;"/>
   </g>
   <g id="line2d_29">
    <path clip-path="url(#p63d3de930d)" d="M 54.271387 303.883636 
L 58.053182 303.883636 
L 61.834977 303.883636 
L 65.616772 287.605561 
L 69.398567 287.605561 
L 73.180362 287.605561 
L 76.962157 271.327487 
L 80.743952 271.327487 
L 84.525747 271.327487 
L 88.307542 271.327487 
L 92.089337 271.327487 
L 95.871132 271.327487 
L 99.652927 255.049412 
L 103.434722 238.771337 
L 107.216517 238.771337 
L 110.998312 238.771337 
L 114.780107 238.771337 
L 118.561902 222.493262 
L 122.343697 222.493262 
L 126.125492 222.493262 
L 129.907287 206.215187 
L 133.689082 206.215187 
L 137.470877 189.937112 
L 141.252672 189.937112 
L 145.034467 189.937112 
L 148.816262 189.937112 
L 152.598057 189.937112 
L 156.379852 189.937112 
L 160.161647 189.937112 
L 163.943442 189.937112 
L 167.725236 189.937112 
L 171.507031 189.937112 
L 175.288826 173.659037 
L 179.070621 173.659037 
L 182.852416 173.659037 
L 186.634211 173.659037 
L 190.416006 173.659037 
L 194.197801 173.659037 
L 197.979596 173.659037 
L 201.761391 173.659037 
L 205.543186 173.659037 
L 209.324981 173.659037 
L 213.106776 173.659037 
L 216.888571 173.659037 
L 220.670366 173.659037 
L 224.452161 173.659037 
L 228.233956 157.380963 
L 232.015751 157.380963 
L 235.797546 157.380963 
L 239.579341 157.380963 
L 243.361136 157.380963 
L 247.142931 157.380963 
L 250.924726 157.380963 
L 254.706521 157.380963 
L 258.488316 157.380963 
L 262.270111 157.380963 
L 266.051906 157.380963 
L 269.833701 157.380963 
L 273.615496 157.380963 
L 277.397291 157.380963 
L 281.179086 157.380963 
L 284.960881 157.380963 
L 288.742676 157.380963 
L 292.524471 157.380963 
L 296.306266 157.380963 
L 300.088061 157.380963 
L 303.869856 157.380963 
L 307.651651 157.380963 
L 311.433446 157.380963 
L 315.215241 141.102888 
L 318.997036 141.102888 
L 322.778831 141.102888 
L 326.560626 141.102888 
L 330.342421 141.102888 
L 334.124216 141.102888 
L 337.906011 141.102888 
L 341.687806 141.102888 
L 345.469601 141.102888 
L 349.251396 141.102888 
L 353.033191 141.102888 
L 356.814986 141.102888 
L 360.596781 141.102888 
L 364.378576 141.102888 
L 368.160371 141.102888 
L 371.942166 141.102888 
L 375.723961 141.102888 
L 379.505756 141.102888 
L 383.287551 141.102888 
L 387.069346 141.102888 
L 390.851141 141.102888 
L 394.632936 141.102888 
L 398.414731 141.102888 
L 402.196526 92.268663 
L 405.978321 92.268663 
L 409.760116 92.268663 
L 413.541911 75.990588 
L 417.323706 75.990588 
L 421.105501 75.990588 
L 424.887296 43.434439 
L 428.669091 27.156364 
" style="fill:none;stroke:#9467bd;stroke-linecap:square;stroke-width:1.5;"/>
   </g>
   <g id="patch_3">
    <path d="M 33.64 317.72 
L 33.64 13.32 
" style="fill:none;stroke:#000000;stroke-linecap:square;stroke-linejoin:miter;stroke-width:0.8;"/>
   </g>
   <g id="patch_4">
    <path d="M 447.48 317.72 
L 447.48 13.32 
" style="fill:none;stroke:#000000;stroke-linecap:square;stroke-linejoin:miter;stroke-width:0.8;"/>
   </g>
   <g id="patch_5">
    <path d="M 33.64 317.72 
L 447.48 317.72 
" style="fill:none;stroke:#000000;stroke-linecap:square;stroke-linejoin:miter;stroke-width:0.8;"/>
   </g>
   <g id="patch_6">
    <path d="M 33.64 13.32 
L 447.48 13.32 
" style="fill:none;stroke:#000000;stroke-linecap:square;stroke-linejoin:miter;stroke-width:0.8;"/>
   </g>
   <g id="legend_1">
    <g id="patch_7">
     <path d="M 344.584688 312.72 
L 440.48 312.72 
Q 442.48 312.72 442.48 310.72 
L 442.48 182.340312 
Q 442.48 180.340312 440.48 180.340312 
L 344.584688 180.340312 
Q 342.584688 180.340312 342.584688 182.340312 
L 342.584688 310.72 
Q 342.584688 312.72 344.584688 312.72 
z
" style="fill:#ffffff;opacity:0.8;stroke:#cccccc;stroke-linejoin:miter;"/>
    </g>
    <g id="line2d_30">
     <path d="M 346.584688 195.0775 
L 366.584688 195.0775 
" style="fill:none;stroke:#1f77b4;stroke-linecap:square;stroke-width:1.5;"/>
    </g>
    <g id="line2d_31"/>
    <g id="text_13">
     <!-- Baseline  -->
     <defs>
      <path d="M 19.671875 34.8125 
L 19.671875 8.109375 
L 35.5 8.109375 
Q 43.453125 8.109375 47.28125 11.40625 
Q 51.125 14.703125 51.125 21.484375 
Q 51.125 28.328125 47.28125 31.5625 
Q 43.453125 34.8125 35.5 34.8125 
z
M 19.671875 64.796875 
L 19.671875 42.828125 
L 34.28125 42.828125 
Q 41.5 42.828125 45.03125 45.53125 
Q 48.578125 48.25 48.578125 53.8125 
Q 48.578125 59.328125 45.03125 62.0625 
Q 41.5 64.796875 34.28125 64.796875 
z
M 9.8125 72.90625 
L 35.015625 72.90625 
Q 46.296875 72.90625 52.390625 68.21875 
Q 58.5 63.53125 58.5 54.890625 
Q 58.5 48.1875 55.375 44.234375 
Q 52.25 40.28125 46.1875 39.3125 
Q 53.46875 37.75 57.5 32.78125 
Q 61.53125 27.828125 61.53125 20.40625 
Q 61.53125 10.640625 54.890625 5.3125 
Q 48.25 0 35.984375 0 
L 9.8125 0 
z
" id="DejaVuSans-66"/>
      <path d="M 34.28125 27.484375 
Q 23.390625 27.484375 19.1875 25 
Q 14.984375 22.515625 14.984375 16.5 
Q 14.984375 11.71875 18.140625 8.90625 
Q 21.296875 6.109375 26.703125 6.109375 
Q 34.1875 6.109375 38.703125 11.40625 
Q 43.21875 16.703125 43.21875 25.484375 
L 43.21875 27.484375 
z
M 52.203125 31.203125 
L 52.203125 0 
L 43.21875 0 
L 43.21875 8.296875 
Q 40.140625 3.328125 35.546875 0.953125 
Q 30.953125 -1.421875 24.3125 -1.421875 
Q 15.921875 -1.421875 10.953125 3.296875 
Q 6 8.015625 6 15.921875 
Q 6 25.140625 12.171875 29.828125 
Q 18.359375 34.515625 30.609375 34.515625 
L 43.21875 34.515625 
L 43.21875 35.40625 
Q 43.21875 41.609375 39.140625 45 
Q 35.0625 48.390625 27.6875 48.390625 
Q 23 48.390625 18.546875 47.265625 
Q 14.109375 46.140625 10.015625 43.890625 
L 10.015625 52.203125 
Q 14.9375 54.109375 19.578125 55.046875 
Q 24.21875 56 28.609375 56 
Q 40.484375 56 46.34375 49.84375 
Q 52.203125 43.703125 52.203125 31.203125 
z
" id="DejaVuSans-97"/>
      <path d="M 44.28125 53.078125 
L 44.28125 44.578125 
Q 40.484375 46.53125 36.375 47.5 
Q 32.28125 48.484375 27.875 48.484375 
Q 21.1875 48.484375 17.84375 46.4375 
Q 14.5 44.390625 14.5 40.28125 
Q 14.5 37.15625 16.890625 35.375 
Q 19.28125 33.59375 26.515625 31.984375 
L 29.59375 31.296875 
Q 39.15625 29.25 43.1875 25.515625 
Q 47.21875 21.78125 47.21875 15.09375 
Q 47.21875 7.46875 41.1875 3.015625 
Q 35.15625 -1.421875 24.609375 -1.421875 
Q 20.21875 -1.421875 15.453125 -0.5625 
Q 10.6875 0.296875 5.421875 2 
L 5.421875 11.28125 
Q 10.40625 8.6875 15.234375 7.390625 
Q 20.0625 6.109375 24.8125 6.109375 
Q 31.15625 6.109375 34.5625 8.28125 
Q 37.984375 10.453125 37.984375 14.40625 
Q 37.984375 18.0625 35.515625 20.015625 
Q 33.0625 21.96875 24.703125 23.78125 
L 21.578125 24.515625 
Q 13.234375 26.265625 9.515625 29.90625 
Q 5.8125 33.546875 5.8125 39.890625 
Q 5.8125 47.609375 11.28125 51.796875 
Q 16.75 56 26.8125 56 
Q 31.78125 56 36.171875 55.265625 
Q 40.578125 54.546875 44.28125 53.078125 
z
" id="DejaVuSans-115"/>
      <path d="M 56.203125 29.59375 
L 56.203125 25.203125 
L 14.890625 25.203125 
Q 15.484375 15.921875 20.484375 11.0625 
Q 25.484375 6.203125 34.421875 6.203125 
Q 39.59375 6.203125 44.453125 7.46875 
Q 49.3125 8.734375 54.109375 11.28125 
L 54.109375 2.78125 
Q 49.265625 0.734375 44.1875 -0.34375 
Q 39.109375 -1.421875 33.890625 -1.421875 
Q 20.796875 -1.421875 13.15625 6.1875 
Q 5.515625 13.8125 5.515625 26.8125 
Q 5.515625 40.234375 12.765625 48.109375 
Q 20.015625 56 32.328125 56 
Q 43.359375 56 49.78125 48.890625 
Q 56.203125 41.796875 56.203125 29.59375 
z
M 47.21875 32.234375 
Q 47.125 39.59375 43.09375 43.984375 
Q 39.0625 48.390625 32.421875 48.390625 
Q 24.90625 48.390625 20.390625 44.140625 
Q 15.875 39.890625 15.1875 32.171875 
z
" id="DejaVuSans-101"/>
      <path d="M 9.421875 75.984375 
L 18.40625 75.984375 
L 18.40625 0 
L 9.421875 0 
z
" id="DejaVuSans-108"/>
      <path d="M 9.421875 54.6875 
L 18.40625 54.6875 
L 18.40625 0 
L 9.421875 0 
z
M 9.421875 75.984375 
L 18.40625 75.984375 
L 18.40625 64.59375 
L 9.421875 64.59375 
z
" id="DejaVuSans-105"/>
      <path d="M 54.890625 33.015625 
L 54.890625 0 
L 45.90625 0 
L 45.90625 32.71875 
Q 45.90625 40.484375 42.875 44.328125 
Q 39.84375 48.1875 33.796875 48.1875 
Q 26.515625 48.1875 22.3125 43.546875 
Q 18.109375 38.921875 18.109375 30.90625 
L 18.109375 0 
L 9.078125 0 
L 9.078125 54.6875 
L 18.109375 54.6875 
L 18.109375 46.1875 
Q 21.34375 51.125 25.703125 53.5625 
Q 30.078125 56 35.796875 56 
Q 45.21875 56 50.046875 50.171875 
Q 54.890625 44.34375 54.890625 33.015625 
z
" id="DejaVuSans-110"/>
      <path id="DejaVuSans-32"/>
     </defs>
     <g transform="translate(374.584688 191.93875)scale(0.1 -0.1)">
      <use xlink:href="#DejaVuSans-66"/>
      <use x="68.603516" xlink:href="#DejaVuSans-97"/>
      <use x="129.882812" xlink:href="#DejaVuSans-115"/>
      <use x="181.982422" xlink:href="#DejaVuSans-101"/>
      <use x="243.505859" xlink:href="#DejaVuSans-108"/>
      <use x="271.289062" xlink:href="#DejaVuSans-105"/>
      <use x="299.072266" xlink:href="#DejaVuSans-110"/>
      <use x="362.451172" xlink:href="#DejaVuSans-101"/>
      <use x="423.974609" xlink:href="#DejaVuSans-32"/>
     </g>
     <!-- Performance -->
     <defs>
      <path d="M 19.671875 64.796875 
L 19.671875 37.40625 
L 32.078125 37.40625 
Q 38.96875 37.40625 42.71875 40.96875 
Q 46.484375 44.53125 46.484375 51.125 
Q 46.484375 57.671875 42.71875 61.234375 
Q 38.96875 64.796875 32.078125 64.796875 
z
M 9.8125 72.90625 
L 32.078125 72.90625 
Q 44.34375 72.90625 50.609375 67.359375 
Q 56.890625 61.8125 56.890625 51.125 
Q 56.890625 40.328125 50.609375 34.8125 
Q 44.34375 29.296875 32.078125 29.296875 
L 19.671875 29.296875 
L 19.671875 0 
L 9.8125 0 
z
" id="DejaVuSans-80"/>
      <path d="M 41.109375 46.296875 
Q 39.59375 47.171875 37.8125 47.578125 
Q 36.03125 48 33.890625 48 
Q 26.265625 48 22.1875 43.046875 
Q 18.109375 38.09375 18.109375 28.8125 
L 18.109375 0 
L 9.078125 0 
L 9.078125 54.6875 
L 18.109375 54.6875 
L 18.109375 46.1875 
Q 20.953125 51.171875 25.484375 53.578125 
Q 30.03125 56 36.53125 56 
Q 37.453125 56 38.578125 55.875 
Q 39.703125 55.765625 41.0625 55.515625 
z
" id="DejaVuSans-114"/>
      <path d="M 37.109375 75.984375 
L 37.109375 68.5 
L 28.515625 68.5 
Q 23.6875 68.5 21.796875 66.546875 
Q 19.921875 64.59375 19.921875 59.515625 
L 19.921875 54.6875 
L 34.71875 54.6875 
L 34.71875 47.703125 
L 19.921875 47.703125 
L 19.921875 0 
L 10.890625 0 
L 10.890625 47.703125 
L 2.296875 47.703125 
L 2.296875 54.6875 
L 10.890625 54.6875 
L 10.890625 58.5 
Q 10.890625 67.625 15.140625 71.796875 
Q 19.390625 75.984375 28.609375 75.984375 
z
" id="DejaVuSans-102"/>
      <path d="M 30.609375 48.390625 
Q 23.390625 48.390625 19.1875 42.75 
Q 14.984375 37.109375 14.984375 27.296875 
Q 14.984375 17.484375 19.15625 11.84375 
Q 23.34375 6.203125 30.609375 6.203125 
Q 37.796875 6.203125 41.984375 11.859375 
Q 46.1875 17.53125 46.1875 27.296875 
Q 46.1875 37.015625 41.984375 42.703125 
Q 37.796875 48.390625 30.609375 48.390625 
z
M 30.609375 56 
Q 42.328125 56 49.015625 48.375 
Q 55.71875 40.765625 55.71875 27.296875 
Q 55.71875 13.875 49.015625 6.21875 
Q 42.328125 -1.421875 30.609375 -1.421875 
Q 18.84375 -1.421875 12.171875 6.21875 
Q 5.515625 13.875 5.515625 27.296875 
Q 5.515625 40.765625 12.171875 48.375 
Q 18.84375 56 30.609375 56 
z
" id="DejaVuSans-111"/>
      <path d="M 52 44.1875 
Q 55.375 50.25 60.0625 53.125 
Q 64.75 56 71.09375 56 
Q 79.640625 56 84.28125 50.015625 
Q 88.921875 44.046875 88.921875 33.015625 
L 88.921875 0 
L 79.890625 0 
L 79.890625 32.71875 
Q 79.890625 40.578125 77.09375 44.375 
Q 74.3125 48.1875 68.609375 48.1875 
Q 61.625 48.1875 57.5625 43.546875 
Q 53.515625 38.921875 53.515625 30.90625 
L 53.515625 0 
L 44.484375 0 
L 44.484375 32.71875 
Q 44.484375 40.625 41.703125 44.40625 
Q 38.921875 48.1875 33.109375 48.1875 
Q 26.21875 48.1875 22.15625 43.53125 
Q 18.109375 38.875 18.109375 30.90625 
L 18.109375 0 
L 9.078125 0 
L 9.078125 54.6875 
L 18.109375 54.6875 
L 18.109375 46.1875 
Q 21.1875 51.21875 25.484375 53.609375 
Q 29.78125 56 35.6875 56 
Q 41.65625 56 45.828125 52.96875 
Q 50 49.953125 52 44.1875 
z
" id="DejaVuSans-109"/>
      <path d="M 48.78125 52.59375 
L 48.78125 44.1875 
Q 44.96875 46.296875 41.140625 47.34375 
Q 37.3125 48.390625 33.40625 48.390625 
Q 24.65625 48.390625 19.8125 42.84375 
Q 14.984375 37.3125 14.984375 27.296875 
Q 14.984375 17.28125 19.8125 11.734375 
Q 24.65625 6.203125 33.40625 6.203125 
Q 37.3125 6.203125 41.140625 7.25 
Q 44.96875 8.296875 48.78125 10.40625 
L 48.78125 2.09375 
Q 45.015625 0.34375 40.984375 -0.53125 
Q 36.96875 -1.421875 32.421875 -1.421875 
Q 20.0625 -1.421875 12.78125 6.34375 
Q 5.515625 14.109375 5.515625 27.296875 
Q 5.515625 40.671875 12.859375 48.328125 
Q 20.21875 56 33.015625 56 
Q 37.15625 56 41.109375 55.140625 
Q 45.0625 54.296875 48.78125 52.59375 
z
" id="DejaVuSans-99"/>
     </defs>
     <g transform="translate(374.584688 203.136562)scale(0.1 -0.1)">
      <use xlink:href="#DejaVuSans-80"/>
      <use x="60.255859" xlink:href="#DejaVuSans-101"/>
      <use x="121.779297" xlink:href="#DejaVuSans-114"/>
      <use x="162.892578" xlink:href="#DejaVuSans-102"/>
      <use x="198.097656" xlink:href="#DejaVuSans-111"/>
      <use x="259.279297" xlink:href="#DejaVuSans-114"/>
      <use x="300.376953" xlink:href="#DejaVuSans-109"/>
      <use x="397.789062" xlink:href="#DejaVuSans-97"/>
      <use x="459.068359" xlink:href="#DejaVuSans-110"/>
      <use x="522.447266" xlink:href="#DejaVuSans-99"/>
      <use x="577.427734" xlink:href="#DejaVuSans-101"/>
     </g>
    </g>
    <g id="line2d_32">
     <path d="M 346.584688 220.953437 
L 366.584688 220.953437 
" style="fill:none;stroke:#ff7f0e;stroke-linecap:square;stroke-width:1.5;"/>
    </g>
    <g id="line2d_33"/>
    <g id="text_14">
     <!-- CPU at 20% -->
     <defs>
      <path d="M 64.40625 67.28125 
L 64.40625 56.890625 
Q 59.421875 61.53125 53.78125 63.8125 
Q 48.140625 66.109375 41.796875 66.109375 
Q 29.296875 66.109375 22.65625 58.46875 
Q 16.015625 50.828125 16.015625 36.375 
Q 16.015625 21.96875 22.65625 14.328125 
Q 29.296875 6.6875 41.796875 6.6875 
Q 48.140625 6.6875 53.78125 8.984375 
Q 59.421875 11.28125 64.40625 15.921875 
L 64.40625 5.609375 
Q 59.234375 2.09375 53.4375 0.328125 
Q 47.65625 -1.421875 41.21875 -1.421875 
Q 24.65625 -1.421875 15.125 8.703125 
Q 5.609375 18.84375 5.609375 36.375 
Q 5.609375 53.953125 15.125 64.078125 
Q 24.65625 74.21875 41.21875 74.21875 
Q 47.75 74.21875 53.53125 72.484375 
Q 59.328125 70.75 64.40625 67.28125 
z
" id="DejaVuSans-67"/>
      <path d="M 8.6875 72.90625 
L 18.609375 72.90625 
L 18.609375 28.609375 
Q 18.609375 16.890625 22.84375 11.734375 
Q 27.09375 6.59375 36.625 6.59375 
Q 46.09375 6.59375 50.34375 11.734375 
Q 54.59375 16.890625 54.59375 28.609375 
L 54.59375 72.90625 
L 64.5 72.90625 
L 64.5 27.390625 
Q 64.5 13.140625 57.4375 5.859375 
Q 50.390625 -1.421875 36.625 -1.421875 
Q 22.796875 -1.421875 15.734375 5.859375 
Q 8.6875 13.140625 8.6875 27.390625 
z
" id="DejaVuSans-85"/>
      <path d="M 18.3125 70.21875 
L 18.3125 54.6875 
L 36.8125 54.6875 
L 36.8125 47.703125 
L 18.3125 47.703125 
L 18.3125 18.015625 
Q 18.3125 11.328125 20.140625 9.421875 
Q 21.96875 7.515625 27.59375 7.515625 
L 36.8125 7.515625 
L 36.8125 0 
L 27.59375 0 
Q 17.1875 0 13.234375 3.875 
Q 9.28125 7.765625 9.28125 18.015625 
L 9.28125 47.703125 
L 2.6875 47.703125 
L 2.6875 54.6875 
L 9.28125 54.6875 
L 9.28125 70.21875 
z
" id="DejaVuSans-116"/>
      <path d="M 72.703125 32.078125 
Q 68.453125 32.078125 66.03125 28.46875 
Q 63.625 24.859375 63.625 18.40625 
Q 63.625 12.0625 66.03125 8.421875 
Q 68.453125 4.78125 72.703125 4.78125 
Q 76.859375 4.78125 79.265625 8.421875 
Q 81.6875 12.0625 81.6875 18.40625 
Q 81.6875 24.8125 79.265625 28.4375 
Q 76.859375 32.078125 72.703125 32.078125 
z
M 72.703125 38.28125 
Q 80.421875 38.28125 84.953125 32.90625 
Q 89.5 27.546875 89.5 18.40625 
Q 89.5 9.28125 84.9375 3.921875 
Q 80.375 -1.421875 72.703125 -1.421875 
Q 64.890625 -1.421875 60.34375 3.921875 
Q 55.8125 9.28125 55.8125 18.40625 
Q 55.8125 27.59375 60.375 32.9375 
Q 64.9375 38.28125 72.703125 38.28125 
z
M 22.3125 68.015625 
Q 18.109375 68.015625 15.6875 64.375 
Q 13.28125 60.75 13.28125 54.390625 
Q 13.28125 47.953125 15.671875 44.328125 
Q 18.0625 40.71875 22.3125 40.71875 
Q 26.5625 40.71875 28.96875 44.328125 
Q 31.390625 47.953125 31.390625 54.390625 
Q 31.390625 60.6875 28.953125 64.34375 
Q 26.515625 68.015625 22.3125 68.015625 
z
M 66.40625 74.21875 
L 74.21875 74.21875 
L 28.609375 -1.421875 
L 20.796875 -1.421875 
z
M 22.3125 74.21875 
Q 30.03125 74.21875 34.609375 68.875 
Q 39.203125 63.53125 39.203125 54.390625 
Q 39.203125 45.171875 34.640625 39.84375 
Q 30.078125 34.515625 22.3125 34.515625 
Q 14.546875 34.515625 10.03125 39.859375 
Q 5.515625 45.21875 5.515625 54.390625 
Q 5.515625 63.484375 10.046875 68.84375 
Q 14.59375 74.21875 22.3125 74.21875 
z
" id="DejaVuSans-37"/>
     </defs>
     <g transform="translate(374.584688 217.814687)scale(0.1 -0.1)">
      <use xlink:href="#DejaVuSans-67"/>
      <use x="69.824219" xlink:href="#DejaVuSans-80"/>
      <use x="130.126953" xlink:href="#DejaVuSans-85"/>
      <use x="203.320312" xlink:href="#DejaVuSans-32"/>
      <use x="235.107422" xlink:href="#DejaVuSans-97"/>
      <use x="296.386719" xlink:href="#DejaVuSans-116"/>
      <use x="335.595703" xlink:href="#DejaVuSans-32"/>
      <use x="367.382812" xlink:href="#DejaVuSans-50"/>
      <use x="431.005859" xlink:href="#DejaVuSans-48"/>
      <use x="494.628906" xlink:href="#DejaVuSans-37"/>
     </g>
     <!-- Contention -->
     <g transform="translate(374.584688 229.0125)scale(0.1 -0.1)">
      <use xlink:href="#DejaVuSans-67"/>
      <use x="69.824219" xlink:href="#DejaVuSans-111"/>
      <use x="131.005859" xlink:href="#DejaVuSans-110"/>
      <use x="194.384766" xlink:href="#DejaVuSans-116"/>
      <use x="233.59375" xlink:href="#DejaVuSans-101"/>
      <use x="295.117188" xlink:href="#DejaVuSans-110"/>
      <use x="358.496094" xlink:href="#DejaVuSans-116"/>
      <use x="397.705078" xlink:href="#DejaVuSans-105"/>
      <use x="425.488281" xlink:href="#DejaVuSans-111"/>
      <use x="486.669922" xlink:href="#DejaVuSans-110"/>
     </g>
    </g>
    <g id="line2d_34">
     <path d="M 346.584688 246.829375 
L 366.584688 246.829375 
" style="fill:none;stroke:#2ca02c;stroke-linecap:square;stroke-width:1.5;"/>
    </g>
    <g id="line2d_35"/>
    <g id="text_15">
     <!-- CPU at 40% -->
     <defs>
      <path d="M 37.796875 64.3125 
L 12.890625 25.390625 
L 37.796875 25.390625 
z
M 35.203125 72.90625 
L 47.609375 72.90625 
L 47.609375 25.390625 
L 58.015625 25.390625 
L 58.015625 17.1875 
L 47.609375 17.1875 
L 47.609375 0 
L 37.796875 0 
L 37.796875 17.1875 
L 4.890625 17.1875 
L 4.890625 26.703125 
z
" id="DejaVuSans-52"/>
     </defs>
     <g transform="translate(374.584688 243.690625)scale(0.1 -0.1)">
      <use xlink:href="#DejaVuSans-67"/>
      <use x="69.824219" xlink:href="#DejaVuSans-80"/>
      <use x="130.126953" xlink:href="#DejaVuSans-85"/>
      <use x="203.320312" xlink:href="#DejaVuSans-32"/>
      <use x="235.107422" xlink:href="#DejaVuSans-97"/>
      <use x="296.386719" xlink:href="#DejaVuSans-116"/>
      <use x="335.595703" xlink:href="#DejaVuSans-32"/>
      <use x="367.382812" xlink:href="#DejaVuSans-52"/>
      <use x="431.005859" xlink:href="#DejaVuSans-48"/>
      <use x="494.628906" xlink:href="#DejaVuSans-37"/>
     </g>
     <!-- Contention -->
     <g transform="translate(374.584688 254.888437)scale(0.1 -0.1)">
      <use xlink:href="#DejaVuSans-67"/>
      <use x="69.824219" xlink:href="#DejaVuSans-111"/>
      <use x="131.005859" xlink:href="#DejaVuSans-110"/>
      <use x="194.384766" xlink:href="#DejaVuSans-116"/>
      <use x="233.59375" xlink:href="#DejaVuSans-101"/>
      <use x="295.117188" xlink:href="#DejaVuSans-110"/>
      <use x="358.496094" xlink:href="#DejaVuSans-116"/>
      <use x="397.705078" xlink:href="#DejaVuSans-105"/>
      <use x="425.488281" xlink:href="#DejaVuSans-111"/>
      <use x="486.669922" xlink:href="#DejaVuSans-110"/>
     </g>
    </g>
    <g id="line2d_36">
     <path d="M 346.584688 272.705312 
L 366.584688 272.705312 
" style="fill:none;stroke:#d62728;stroke-linecap:square;stroke-width:1.5;"/>
    </g>
    <g id="line2d_37"/>
    <g id="text_16">
     <!-- CPU at 60% -->
     <g transform="translate(374.584688 269.566562)scale(0.1 -0.1)">
      <use xlink:href="#DejaVuSans-67"/>
      <use x="69.824219" xlink:href="#DejaVuSans-80"/>
      <use x="130.126953" xlink:href="#DejaVuSans-85"/>
      <use x="203.320312" xlink:href="#DejaVuSans-32"/>
      <use x="235.107422" xlink:href="#DejaVuSans-97"/>
      <use x="296.386719" xlink:href="#DejaVuSans-116"/>
      <use x="335.595703" xlink:href="#DejaVuSans-32"/>
      <use x="367.382812" xlink:href="#DejaVuSans-54"/>
      <use x="431.005859" xlink:href="#DejaVuSans-48"/>
      <use x="494.628906" xlink:href="#DejaVuSans-37"/>
     </g>
     <!-- Contention -->
     <g transform="translate(374.584688 280.764375)scale(0.1 -0.1)">
      <use xlink:href="#DejaVuSans-67"/>
      <use x="69.824219" xlink:href="#DejaVuSans-111"/>
      <use x="131.005859" xlink:href="#DejaVuSans-110"/>
      <use x="194.384766" xlink:href="#DejaVuSans-116"/>
      <use x="233.59375" xlink:href="#DejaVuSans-101"/>
      <use x="295.117188" xlink:href="#DejaVuSans-110"/>
      <use x="358.496094" xlink:href="#DejaVuSans-116"/>
      <use x="397.705078" xlink:href="#DejaVuSans-105"/>
      <use x="425.488281" xlink:href="#DejaVuSans-111"/>
      <use x="486.669922" xlink:href="#DejaVuSans-110"/>
     </g>
    </g>
    <g id="line2d_38">
     <path d="M 346.584688 298.58125 
L 366.584688 298.58125 
" style="fill:none;stroke:#9467bd;stroke-linecap:square;stroke-width:1.5;"/>
    </g>
    <g id="line2d_39"/>
    <g id="text_17">
     <!-- CPU at 80% -->
     <g transform="translate(374.584688 295.4425)scale(0.1 -0.1)">
      <use xlink:href="#DejaVuSans-67"/>
      <use x="69.824219" xlink:href="#DejaVuSans-80"/>
      <use x="130.126953" xlink:href="#DejaVuSans-85"/>
      <use x="203.320312" xlink:href="#DejaVuSans-32"/>
      <use x="235.107422" xlink:href="#DejaVuSans-97"/>
      <use x="296.386719" xlink:href="#DejaVuSans-116"/>
      <use x="335.595703" xlink:href="#DejaVuSans-32"/>
      <use x="367.382812" xlink:href="#DejaVuSans-56"/>
      <use x="431.005859" xlink:href="#DejaVuSans-48"/>
      <use x="494.628906" xlink:href="#DejaVuSans-37"/>
     </g>
     <!-- Contention -->
     <g transform="translate(374.584688 306.640312)scale(0.1 -0.1)">
      <use xlink:href="#DejaVuSans-67"/>
      <use x="69.824219" xlink:href="#DejaVuSans-111"/>
      <use x="131.005859" xlink:href="#DejaVuSans-110"/>
      <use x="194.384766" xlink:href="#DejaVuSans-116"/>
      <use x="233.59375" xlink:href="#DejaVuSans-101"/>
      <use x="295.117188" xlink:href="#DejaVuSans-110"/>
      <use x="358.496094" xlink:href="#DejaVuSans-116"/>
      <use x="397.705078" xlink:href="#DejaVuSans-105"/>
      <use x="425.488281" xlink:href="#DejaVuSans-111"/>
      <use x="486.669922" xlink:href="#DejaVuSans-110"/>
     </g>
    </g>
   </g>
  </g>
 </g>
 <defs>
  <clipPath id="p63d3de930d">
   <rect height="304.4" width="413.84" x="33.64" y="13.32"/>
  </clipPath>
 </defs>
</svg>
