<?xml version="1.0" encoding="utf-8" standalone="no"?>
<!DOCTYPE svg PUBLIC "-//W3C//DTD SVG 1.1//EN"
  "http://www.w3.org/Graphics/SVG/1.1/DTD/svg11.dtd">
<!-- Created with matplotlib (https://matplotlib.org/) -->
<svg height="345.6pt" version="1.1" viewBox="0 0 460.8 345.6" width="460.8pt" xmlns="http://www.w3.org/2000/svg" xmlns:xlink="http://www.w3.org/1999/xlink">
 <defs>
  <style type="text/css">
*{stroke-linecap:butt;stroke-linejoin:round;}
  </style>
 </defs>
 <g id="figure_1">
  <g id="patch_1">
   <path d="M 0 345.6 
L 460.8 345.6 
L 460.8 0 
L 0 0 
z
" style="fill:#ffffff;"/>
  </g>
  <g id="axes_1">
   <g id="patch_2">
    <path d="M 33.64 317.72 
L 447.48 317.72 
L 447.48 13.32 
L 33.64 13.32 
z
" style="fill:#ffffff;"/>
   </g>
   <g id="matplotlib.axis_1">
    <g id="xtick_1">
     <g id="line2d_1">
      <path clip-path="url(#pc48a6c241b)" d="M 50.738646 317.72 
L 50.738646 13.32 
" style="fill:none;stroke:#b0b0b0;stroke-linecap:square;stroke-width:0.8;"/>
     </g>
     <g id="line2d_2">
      <defs>
       <path d="M 0 0 
L 0 3.5 
" id="m61da00a25d" style="stroke:#000000;stroke-width:0.8;"/>
      </defs>
      <g>
       <use style="stroke:#000000;stroke-width:0.8;" x="50.738646" xlink:href="#m61da00a25d" y="317.72"/>
      </g>
     </g>
     <g id="text_1">
      <!-- 0 -->
      <defs>
       <path d="M 31.78125 66.40625 
Q 24.171875 66.40625 20.328125 58.90625 
Q 16.5 51.421875 16.5 36.375 
Q 16.5 21.390625 20.328125 13.890625 
Q 24.171875 6.390625 31.78125 6.390625 
Q 39.453125 6.390625 43.28125 13.890625 
Q 47.125 21.390625 47.125 36.375 
Q 47.125 51.421875 43.28125 58.90625 
Q 39.453125 66.40625 31.78125 66.40625 
z
M 31.78125 74.21875 
Q 44.046875 74.21875 50.515625 64.515625 
Q 56.984375 54.828125 56.984375 36.375 
Q 56.984375 17.96875 50.515625 8.265625 
Q 44.046875 -1.421875 31.78125 -1.421875 
Q 19.53125 -1.421875 13.0625 8.265625 
Q 6.59375 17.96875 6.59375 36.375 
Q 6.59375 54.828125 13.0625 64.515625 
Q 19.53125 74.21875 31.78125 74.21875 
z
" id="DejaVuSans-48"/>
      </defs>
      <g transform="translate(47.557396 332.318437)scale(0.1 -0.1)">
       <use xlink:href="#DejaVuSans-48"/>
      </g>
     </g>
    </g>
    <g id="xtick_2">
     <g id="line2d_3">
      <path clip-path="url(#pc48a6c241b)" d="M 138.612354 317.72 
L 138.612354 13.32 
" style="fill:none;stroke:#b0b0b0;stroke-linecap:square;stroke-width:0.8;"/>
     </g>
     <g id="line2d_4">
      <g>
       <use style="stroke:#000000;stroke-width:0.8;" x="138.612354" xlink:href="#m61da00a25d" y="317.72"/>
      </g>
     </g>
     <g id="text_2">
      <!-- 5000 -->
      <defs>
       <path d="M 10.796875 72.90625 
L 49.515625 72.90625 
L 49.515625 64.59375 
L 19.828125 64.59375 
L 19.828125 46.734375 
Q 21.96875 47.46875 24.109375 47.828125 
Q 26.265625 48.1875 28.421875 48.1875 
Q 40.625 48.1875 47.75 41.5 
Q 54.890625 34.8125 54.890625 23.390625 
Q 54.890625 11.625 47.5625 5.09375 
Q 40.234375 -1.421875 26.90625 -1.421875 
Q 22.3125 -1.421875 17.546875 -0.640625 
Q 12.796875 0.140625 7.71875 1.703125 
L 7.71875 11.625 
Q 12.109375 9.234375 16.796875 8.0625 
Q 21.484375 6.890625 26.703125 6.890625 
Q 35.15625 6.890625 40.078125 11.328125 
Q 45.015625 15.765625 45.015625 23.390625 
Q 45.015625 31 40.078125 35.4375 
Q 35.15625 39.890625 26.703125 39.890625 
Q 22.75 39.890625 18.8125 39.015625 
Q 14.890625 38.140625 10.796875 36.28125 
z
" id="DejaVuSans-53"/>
      </defs>
      <g transform="translate(125.887354 332.318437)scale(0.1 -0.1)">
       <use xlink:href="#DejaVuSans-53"/>
       <use x="63.623047" xlink:href="#DejaVuSans-48"/>
       <use x="127.246094" xlink:href="#DejaVuSans-48"/>
       <use x="190.869141" xlink:href="#DejaVuSans-48"/>
      </g>
     </g>
    </g>
    <g id="xtick_3">
     <g id="line2d_5">
      <path clip-path="url(#pc48a6c241b)" d="M 226.486062 317.72 
L 226.486062 13.32 
" style="fill:none;stroke:#b0b0b0;stroke-linecap:square;stroke-width:0.8;"/>
     </g>
     <g id="line2d_6">
      <g>
       <use style="stroke:#000000;stroke-width:0.8;" x="226.486062" xlink:href="#m61da00a25d" y="317.72"/>
      </g>
     </g>
     <g id="text_3">
      <!-- 10000 -->
      <defs>
       <path d="M 12.40625 8.296875 
L 28.515625 8.296875 
L 28.515625 63.921875 
L 10.984375 60.40625 
L 10.984375 69.390625 
L 28.421875 72.90625 
L 38.28125 72.90625 
L 38.28125 8.296875 
L 54.390625 8.296875 
L 54.390625 0 
L 12.40625 0 
z
" id="DejaVuSans-49"/>
      </defs>
      <g transform="translate(210.579812 332.318437)scale(0.1 -0.1)">
       <use xlink:href="#DejaVuSans-49"/>
       <use x="63.623047" xlink:href="#DejaVuSans-48"/>
       <use x="127.246094" xlink:href="#DejaVuSans-48"/>
       <use x="190.869141" xlink:href="#DejaVuSans-48"/>
       <use x="254.492188" xlink:href="#DejaVuSans-48"/>
      </g>
     </g>
    </g>
    <g id="xtick_4">
     <g id="line2d_7">
      <path clip-path="url(#pc48a6c241b)" d="M 314.359771 317.72 
L 314.359771 13.32 
" style="fill:none;stroke:#b0b0b0;stroke-linecap:square;stroke-width:0.8;"/>
     </g>
     <g id="line2d_8">
      <g>
       <use style="stroke:#000000;stroke-width:0.8;" x="314.359771" xlink:href="#m61da00a25d" y="317.72"/>
      </g>
     </g>
     <g id="text_4">
      <!-- 15000 -->
      <g transform="translate(298.453521 332.318437)scale(0.1 -0.1)">
       <use xlink:href="#DejaVuSans-49"/>
       <use x="63.623047" xlink:href="#DejaVuSans-53"/>
       <use x="127.246094" xlink:href="#DejaVuSans-48"/>
       <use x="190.869141" xlink:href="#DejaVuSans-48"/>
       <use x="254.492188" xlink:href="#DejaVuSans-48"/>
      </g>
     </g>
    </g>
    <g id="xtick_5">
     <g id="line2d_9">
      <path clip-path="url(#pc48a6c241b)" d="M 402.233479 317.72 
L 402.233479 13.32 
" style="fill:none;stroke:#b0b0b0;stroke-linecap:square;stroke-width:0.8;"/>
     </g>
     <g id="line2d_10">
      <g>
       <use style="stroke:#000000;stroke-width:0.8;" x="402.233479" xlink:href="#m61da00a25d" y="317.72"/>
      </g>
     </g>
     <g id="text_5">
      <!-- 20000 -->
      <defs>
       <path d="M 19.1875 8.296875 
L 53.609375 8.296875 
L 53.609375 0 
L 7.328125 0 
L 7.328125 8.296875 
Q 12.9375 14.109375 22.625 23.890625 
Q 32.328125 33.6875 34.8125 36.53125 
Q 39.546875 41.84375 41.421875 45.53125 
Q 43.3125 49.21875 43.3125 52.78125 
Q 43.3125 58.59375 39.234375 62.25 
Q 35.15625 65.921875 28.609375 65.921875 
Q 23.96875 65.921875 18.8125 64.3125 
Q 13.671875 62.703125 7.8125 59.421875 
L 7.8125 69.390625 
Q 13.765625 71.78125 18.9375 73 
Q 24.125 74.21875 28.421875 74.21875 
Q 39.75 74.21875 46.484375 68.546875 
Q 53.21875 62.890625 53.21875 53.421875 
Q 53.21875 48.921875 51.53125 44.890625 
Q 49.859375 40.875 45.40625 35.40625 
Q 44.1875 33.984375 37.640625 27.21875 
Q 31.109375 20.453125 19.1875 8.296875 
z
" id="DejaVuSans-50"/>
      </defs>
      <g transform="translate(386.327229 332.318437)scale(0.1 -0.1)">
       <use xlink:href="#DejaVuSans-50"/>
       <use x="63.623047" xlink:href="#DejaVuSans-48"/>
       <use x="127.246094" xlink:href="#DejaVuSans-48"/>
       <use x="190.869141" xlink:href="#DejaVuSans-48"/>
       <use x="254.492188" xlink:href="#DejaVuSans-48"/>
      </g>
     </g>
    </g>
   </g>
   <g id="matplotlib.axis_2">
    <g id="ytick_1">
     <g id="line2d_11">
      <path clip-path="url(#pc48a6c241b)" d="M 33.64 303.883636 
L 447.48 303.883636 
" style="fill:none;stroke:#b0b0b0;stroke-linecap:square;stroke-width:0.8;"/>
     </g>
     <g id="line2d_12">
      <defs>
       <path d="M 0 0 
L -3.5 0 
" id="m7cd901760e" style="stroke:#000000;stroke-width:0.8;"/>
      </defs>
      <g>
       <use style="stroke:#000000;stroke-width:0.8;" x="33.64" xlink:href="#m7cd901760e" y="303.883636"/>
      </g>
     </g>
     <g id="text_6">
      <!-- 0.5 -->
      <defs>
       <path d="M 10.6875 12.40625 
L 21 12.40625 
L 21 0 
L 10.6875 0 
z
" id="DejaVuSans-46"/>
      </defs>
      <g transform="translate(10.736875 307.682855)scale(0.1 -0.1)">
       <use xlink:href="#DejaVuSans-48"/>
       <use x="63.623047" xlink:href="#DejaVuSans-46"/>
       <use x="95.410156" xlink:href="#DejaVuSans-53"/>
      </g>
     </g>
    </g>
    <g id="ytick_2">
     <g id="line2d_13">
      <path clip-path="url(#pc48a6c241b)" d="M 33.64 248.538182 
L 447.48 248.538182 
" style="fill:none;stroke:#b0b0b0;stroke-linecap:square;stroke-width:0.8;"/>
     </g>
     <g id="line2d_14">
      <g>
       <use style="stroke:#000000;stroke-width:0.8;" x="33.64" xlink:href="#m7cd901760e" y="248.538182"/>
      </g>
     </g>
     <g id="text_7">
      <!-- 0.6 -->
      <defs>
       <path d="M 33.015625 40.375 
Q 26.375 40.375 22.484375 35.828125 
Q 18.609375 31.296875 18.609375 23.390625 
Q 18.609375 15.53125 22.484375 10.953125 
Q 26.375 6.390625 33.015625 6.390625 
Q 39.65625 6.390625 43.53125 10.953125 
Q 47.40625 15.53125 47.40625 23.390625 
Q 47.40625 31.296875 43.53125 35.828125 
Q 39.65625 40.375 33.015625 40.375 
z
M 52.59375 71.296875 
L 52.59375 62.3125 
Q 48.875 64.0625 45.09375 64.984375 
Q 41.3125 65.921875 37.59375 65.921875 
Q 27.828125 65.921875 22.671875 59.328125 
Q 17.53125 52.734375 16.796875 39.40625 
Q 19.671875 43.65625 24.015625 45.921875 
Q 28.375 48.1875 33.59375 48.1875 
Q 44.578125 48.1875 50.953125 41.515625 
Q 57.328125 34.859375 57.328125 23.390625 
Q 57.328125 12.15625 50.6875 5.359375 
Q 44.046875 -1.421875 33.015625 -1.421875 
Q 20.359375 -1.421875 13.671875 8.265625 
Q 6.984375 17.96875 6.984375 36.375 
Q 6.984375 53.65625 15.1875 63.9375 
Q 23.390625 74.21875 37.203125 74.21875 
Q 40.921875 74.21875 44.703125 73.484375 
Q 48.484375 72.75 52.59375 71.296875 
z
" id="DejaVuSans-54"/>
      </defs>
      <g transform="translate(10.736875 252.337401)scale(0.1 -0.1)">
       <use xlink:href="#DejaVuSans-48"/>
       <use x="63.623047" xlink:href="#DejaVuSans-46"/>
       <use x="95.410156" xlink:href="#DejaVuSans-54"/>
      </g>
     </g>
    </g>
    <g id="ytick_3">
     <g id="line2d_15">
      <path clip-path="url(#pc48a6c241b)" d="M 33.64 193.192727 
L 447.48 193.192727 
" style="fill:none;stroke:#b0b0b0;stroke-linecap:square;stroke-width:0.8;"/>
     </g>
     <g id="line2d_16">
      <g>
       <use style="stroke:#000000;stroke-width:0.8;" x="33.64" xlink:href="#m7cd901760e" y="193.192727"/>
      </g>
     </g>
     <g id="text_8">
      <!-- 0.7 -->
      <defs>
       <path d="M 8.203125 72.90625 
L 55.078125 72.90625 
L 55.078125 68.703125 
L 28.609375 0 
L 18.3125 0 
L 43.21875 64.59375 
L 8.203125 64.59375 
z
" id="DejaVuSans-55"/>
      </defs>
      <g transform="translate(10.736875 196.991946)scale(0.1 -0.1)">
       <use xlink:href="#DejaVuSans-48"/>
       <use x="63.623047" xlink:href="#DejaVuSans-46"/>
       <use x="95.410156" xlink:href="#DejaVuSans-55"/>
      </g>
     </g>
    </g>
    <g id="ytick_4">
     <g id="line2d_17">
      <path clip-path="url(#pc48a6c241b)" d="M 33.64 137.847273 
L 447.48 137.847273 
" style="fill:none;stroke:#b0b0b0;stroke-linecap:square;stroke-width:0.8;"/>
     </g>
     <g id="line2d_18">
      <g>
       <use style="stroke:#000000;stroke-width:0.8;" x="33.64" xlink:href="#m7cd901760e" y="137.847273"/>
      </g>
     </g>
     <g id="text_9">
      <!-- 0.8 -->
      <defs>
       <path d="M 31.78125 34.625 
Q 24.75 34.625 20.71875 30.859375 
Q 16.703125 27.09375 16.703125 20.515625 
Q 16.703125 13.921875 20.71875 10.15625 
Q 24.75 6.390625 31.78125 6.390625 
Q 38.8125 6.390625 42.859375 10.171875 
Q 46.921875 13.96875 46.921875 20.515625 
Q 46.921875 27.09375 42.890625 30.859375 
Q 38.875 34.625 31.78125 34.625 
z
M 21.921875 38.8125 
Q 15.578125 40.375 12.03125 44.71875 
Q 8.5 49.078125 8.5 55.328125 
Q 8.5 64.0625 14.71875 69.140625 
Q 20.953125 74.21875 31.78125 74.21875 
Q 42.671875 74.21875 48.875 69.140625 
Q 55.078125 64.0625 55.078125 55.328125 
Q 55.078125 49.078125 51.53125 44.71875 
Q 48 40.375 41.703125 38.8125 
Q 48.828125 37.15625 52.796875 32.3125 
Q 56.78125 27.484375 56.78125 20.515625 
Q 56.78125 9.90625 50.3125 4.234375 
Q 43.84375 -1.421875 31.78125 -1.421875 
Q 19.734375 -1.421875 13.25 4.234375 
Q 6.78125 9.90625 6.78125 20.515625 
Q 6.78125 27.484375 10.78125 32.3125 
Q 14.796875 37.15625 21.921875 38.8125 
z
M 18.3125 54.390625 
Q 18.3125 48.734375 21.84375 45.5625 
Q 25.390625 42.390625 31.78125 42.390625 
Q 38.140625 42.390625 41.71875 45.5625 
Q 45.3125 48.734375 45.3125 54.390625 
Q 45.3125 60.0625 41.71875 63.234375 
Q 38.140625 66.40625 31.78125 66.40625 
Q 25.390625 66.40625 21.84375 63.234375 
Q 18.3125 60.0625 18.3125 54.390625 
z
" id="DejaVuSans-56"/>
      </defs>
      <g transform="translate(10.736875 141.646491)scale(0.1 -0.1)">
       <use xlink:href="#DejaVuSans-48"/>
       <use x="63.623047" xlink:href="#DejaVuSans-46"/>
       <use x="95.410156" xlink:href="#DejaVuSans-56"/>
      </g>
     </g>
    </g>
    <g id="ytick_5">
     <g id="line2d_19">
      <path clip-path="url(#pc48a6c241b)" d="M 33.64 82.501818 
L 447.48 82.501818 
" style="fill:none;stroke:#b0b0b0;stroke-linecap:square;stroke-width:0.8;"/>
     </g>
     <g id="line2d_20">
      <g>
       <use style="stroke:#000000;stroke-width:0.8;" x="33.64" xlink:href="#m7cd901760e" y="82.501818"/>
      </g>
     </g>
     <g id="text_10">
      <!-- 0.9 -->
      <defs>
       <path d="M 10.984375 1.515625 
L 10.984375 10.5 
Q 14.703125 8.734375 18.5 7.8125 
Q 22.3125 6.890625 25.984375 6.890625 
Q 35.75 6.890625 40.890625 13.453125 
Q 46.046875 20.015625 46.78125 33.40625 
Q 43.953125 29.203125 39.59375 26.953125 
Q 35.25 24.703125 29.984375 24.703125 
Q 19.046875 24.703125 12.671875 31.3125 
Q 6.296875 37.9375 6.296875 49.421875 
Q 6.296875 60.640625 12.9375 67.421875 
Q 19.578125 74.21875 30.609375 74.21875 
Q 43.265625 74.21875 49.921875 64.515625 
Q 56.59375 54.828125 56.59375 36.375 
Q 56.59375 19.140625 48.40625 8.859375 
Q 40.234375 -1.421875 26.421875 -1.421875 
Q 22.703125 -1.421875 18.890625 -0.6875 
Q 15.09375 0.046875 10.984375 1.515625 
z
M 30.609375 32.421875 
Q 37.25 32.421875 41.125 36.953125 
Q 45.015625 41.5 45.015625 49.421875 
Q 45.015625 57.28125 41.125 61.84375 
Q 37.25 66.40625 30.609375 66.40625 
Q 23.96875 66.40625 20.09375 61.84375 
Q 16.21875 57.28125 16.21875 49.421875 
Q 16.21875 41.5 20.09375 36.953125 
Q 23.96875 32.421875 30.609375 32.421875 
z
" id="DejaVuSans-57"/>
      </defs>
      <g transform="translate(10.736875 86.301037)scale(0.1 -0.1)">
       <use xlink:href="#DejaVuSans-48"/>
       <use x="63.623047" xlink:href="#DejaVuSans-46"/>
       <use x="95.410156" xlink:href="#DejaVuSans-57"/>
      </g>
     </g>
    </g>
    <g id="ytick_6">
     <g id="line2d_21">
      <path clip-path="url(#pc48a6c241b)" d="M 33.64 27.156364 
L 447.48 27.156364 
" style="fill:none;stroke:#b0b0b0;stroke-linecap:square;stroke-width:0.8;"/>
     </g>
     <g id="line2d_22">
      <g>
       <use style="stroke:#000000;stroke-width:0.8;" x="33.64" xlink:href="#m7cd901760e" y="27.156364"/>
      </g>
     </g>
     <g id="text_11">
      <!-- 1.0 -->
      <g transform="translate(10.736875 30.955582)scale(0.1 -0.1)">
       <use xlink:href="#DejaVuSans-49"/>
       <use x="63.623047" xlink:href="#DejaVuSans-46"/>
       <use x="95.410156" xlink:href="#DejaVuSans-48"/>
      </g>
     </g>
    </g>
   </g>
   <g id="line2d_23">
    <path clip-path="url(#pc48a6c241b)" d="M 53.320415 266.986667 
L 55.750657 230.089697 
L 58.180898 211.641212 
L 60.61114 211.641212 
L 63.041381 211.641212 
L 65.471623 193.192727 
L 67.901864 193.192727 
L 70.332106 193.192727 
L 72.762347 193.192727 
L 75.192588 193.192727 
L 77.62283 193.192727 
L 80.053071 174.744242 
L 82.483313 174.744242 
L 84.913554 174.744242 
L 87.343796 174.744242 
L 89.774037 174.744242 
L 92.204279 174.744242 
L 94.63452 174.744242 
L 97.064761 174.744242 
L 99.495003 174.744242 
L 101.925244 174.744242 
L 104.355486 174.744242 
L 106.785727 174.744242 
L 109.215969 137.847273 
L 111.64621 137.847273 
L 114.076452 137.847273 
L 116.506693 137.847273 
L 118.936935 137.847273 
L 121.367176 137.847273 
L 123.797417 137.847273 
L 126.227659 119.398788 
L 128.6579 100.950303 
L 131.088142 100.950303 
L 133.518383 100.950303 
L 135.948625 100.950303 
L 138.378866 100.950303 
L 140.809108 100.950303 
L 143.239349 100.950303 
L 145.66959 82.501818 
L 148.099832 82.501818 
L 150.530073 82.501818 
L 152.960315 82.501818 
L 155.390556 82.501818 
L 157.820798 82.501818 
L 160.251039 82.501818 
L 162.681281 82.501818 
L 165.111522 82.501818 
L 167.541764 82.501818 
L 169.972005 82.501818 
L 172.402246 64.053333 
L 174.832488 64.053333 
L 177.262729 64.053333 
L 179.692971 64.053333 
L 182.123212 64.053333 
L 184.553454 64.053333 
L 186.983695 64.053333 
L 189.413937 64.053333 
L 191.844178 64.053333 
L 194.274419 64.053333 
L 196.704661 64.053333 
L 199.134902 64.053333 
L 201.565144 64.053333 
L 203.995385 64.053333 
L 206.425627 64.053333 
L 208.855868 64.053333 
L 211.28611 64.053333 
L 213.716351 64.053333 
L 216.146593 64.053333 
L 218.576834 64.053333 
L 221.007075 64.053333 
L 223.437317 64.053333 
L 225.867558 64.053333 
L 228.2978 64.053333 
L 230.728041 64.053333 
L 233.158283 64.053333 
L 235.588524 64.053333 
L 238.018766 45.604848 
L 240.449007 45.604848 
L 242.879248 45.604848 
L 245.30949 45.604848 
L 247.739731 45.604848 
L 250.169973 45.604848 
L 252.600214 45.604848 
L 255.030456 45.604848 
L 257.460697 45.604848 
L 259.890939 45.604848 
L 262.32118 45.604848 
L 264.751421 45.604848 
L 267.181663 45.604848 
L 269.611904 45.604848 
L 272.042146 45.604848 
L 274.472387 45.604848 
L 276.902629 45.604848 
L 279.33287 45.604848 
L 281.763112 45.604848 
L 284.193353 45.604848 
L 286.623595 45.604848 
L 289.053836 45.604848 
L 291.484077 45.604848 
L 293.914319 27.156364 
" style="fill:none;stroke:#1f77b4;stroke-linecap:square;stroke-width:1.5;"/>
   </g>
   <g id="line2d_24">
    <path clip-path="url(#pc48a6c241b)" d="M 52.450909 303.883636 
L 54.05616 119.398788 
L 55.661412 119.398788 
L 57.266663 119.398788 
L 58.871914 119.398788 
L 60.477165 119.398788 
L 62.082416 119.398788 
L 63.687668 119.398788 
L 65.292919 119.398788 
L 66.89817 119.398788 
L 68.503421 119.398788 
L 70.108673 119.398788 
L 71.713924 119.398788 
L 73.319175 119.398788 
L 74.924426 119.398788 
L 76.529678 119.398788 
L 78.134929 119.398788 
L 79.74018 119.398788 
L 81.345431 119.398788 
L 82.950682 119.398788 
L 84.555934 119.398788 
L 86.161185 119.398788 
L 87.766436 119.398788 
L 89.371687 119.398788 
L 90.976939 119.398788 
L 92.58219 119.398788 
L 94.187441 119.398788 
L 95.792692 119.398788 
L 97.397944 119.398788 
L 99.003195 119.398788 
L 100.608446 119.398788 
L 102.213697 119.398788 
L 103.818948 119.398788 
L 105.4242 119.398788 
L 107.029451 119.398788 
L 108.634702 119.398788 
L 110.239953 119.398788 
L 111.845205 119.398788 
L 113.450456 119.398788 
L 115.055707 119.398788 
L 116.660958 119.398788 
L 118.266209 119.398788 
L 119.871461 119.398788 
L 121.476712 119.398788 
L 123.081963 119.398788 
L 124.687214 119.398788 
L 126.292466 119.398788 
L 127.897717 119.398788 
L 129.502968 119.398788 
L 131.108219 119.398788 
L 132.713471 119.398788 
L 134.318722 119.398788 
L 135.923973 119.398788 
L 137.529224 119.398788 
L 139.134475 119.398788 
L 140.739727 119.398788 
L 142.344978 119.398788 
L 143.950229 119.398788 
L 145.55548 119.398788 
L 147.160732 119.398788 
L 148.765983 119.398788 
L 150.371234 119.398788 
L 151.976485 119.398788 
L 153.581737 119.398788 
L 155.186988 119.398788 
L 156.792239 119.398788 
L 158.39749 119.398788 
L 160.002741 119.398788 
L 161.607993 119.398788 
L 163.213244 119.398788 
L 164.818495 119.398788 
L 166.423746 119.398788 
L 168.028998 119.398788 
L 169.634249 119.398788 
L 171.2395 119.398788 
L 172.844751 119.398788 
L 174.450003 119.398788 
L 176.055254 119.398788 
L 177.660505 119.398788 
L 179.265756 119.398788 
L 180.871007 119.398788 
L 182.476259 119.398788 
L 184.08151 119.398788 
L 185.686761 119.398788 
L 187.292012 119.398788 
L 188.897264 119.398788 
L 190.502515 119.398788 
L 192.107766 119.398788 
L 193.713017 119.398788 
L 195.318268 119.398788 
L 196.92352 119.398788 
L 198.528771 119.398788 
L 200.134022 119.398788 
L 201.739273 119.398788 
L 203.344525 119.398788 
L 204.949776 119.398788 
L 206.555027 119.398788 
L 208.160278 119.398788 
L 209.76553 119.398788 
L 211.370781 27.156364 
" style="fill:none;stroke:#ff7f0e;stroke-linecap:square;stroke-width:1.5;"/>
   </g>
   <g id="line2d_25">
    <path clip-path="url(#pc48a6c241b)" d="M 54.586006 264.351169 
L 58.335547 264.351169 
L 62.085087 264.351169 
L 65.834628 248.538182 
L 69.584169 248.538182 
L 73.33371 248.538182 
L 77.083251 232.725195 
L 80.832792 232.725195 
L 84.582333 232.725195 
L 88.331874 216.912208 
L 92.081415 216.912208 
L 95.830956 216.912208 
L 99.580497 216.912208 
L 103.330038 216.912208 
L 107.079579 216.912208 
L 110.82912 201.099221 
L 114.57866 201.099221 
L 118.328201 201.099221 
L 122.077742 201.099221 
L 125.827283 185.286234 
L 129.576824 169.473247 
L 133.326365 169.473247 
L 137.075906 169.473247 
L 140.825447 169.473247 
L 144.574988 153.66026 
L 148.324529 137.847273 
L 152.07407 137.847273 
L 155.823611 137.847273 
L 159.573152 137.847273 
L 163.322693 137.847273 
L 167.072234 137.847273 
L 170.821774 137.847273 
L 174.571315 137.847273 
L 178.320856 137.847273 
L 182.070397 137.847273 
L 185.819938 137.847273 
L 189.569479 137.847273 
L 193.31902 137.847273 
L 197.068561 137.847273 
L 200.818102 122.034286 
L 204.567643 122.034286 
L 208.317184 122.034286 
L 212.066725 122.034286 
L 215.816266 122.034286 
L 219.565807 122.034286 
L 223.315347 122.034286 
L 227.064888 122.034286 
L 230.814429 122.034286 
L 234.56397 122.034286 
L 238.313511 122.034286 
L 242.063052 122.034286 
L 245.812593 122.034286 
L 249.562134 122.034286 
L 253.311675 122.034286 
L 257.061216 122.034286 
L 260.810757 122.034286 
L 264.560298 122.034286 
L 268.309839 122.034286 
L 272.05938 122.034286 
L 275.808921 122.034286 
L 279.558461 122.034286 
L 283.308002 122.034286 
L 287.057543 106.221299 
L 290.807084 106.221299 
L 294.556625 106.221299 
L 298.306166 106.221299 
L 302.055707 106.221299 
L 305.805248 106.221299 
L 309.554789 106.221299 
L 313.30433 106.221299 
L 317.053871 106.221299 
L 320.803412 106.221299 
L 324.552953 106.221299 
L 328.302494 106.221299 
L 332.052034 106.221299 
L 335.801575 106.221299 
L 339.551116 106.221299 
L 343.300657 106.221299 
L 347.050198 106.221299 
L 350.799739 106.221299 
L 354.54928 106.221299 
L 358.298821 106.221299 
L 362.048362 106.221299 
L 365.797903 106.221299 
L 369.547444 106.221299 
L 373.296985 90.408312 
L 377.046526 90.408312 
L 380.796067 90.408312 
L 384.545607 90.408312 
L 388.295148 90.408312 
L 392.044689 90.408312 
L 395.79423 90.408312 
L 399.543771 90.408312 
L 403.293312 90.408312 
L 407.042853 74.595325 
L 410.792394 58.782338 
L 414.541935 58.782338 
L 418.291476 42.969351 
L 422.041017 42.969351 
L 425.790558 27.156364 
" style="fill:none;stroke:#2ca02c;stroke-linecap:square;stroke-width:1.5;"/>
   </g>
   <g id="line2d_26">
    <path clip-path="url(#pc48a6c241b)" d="M 54.614011 264.351169 
L 58.392345 264.351169 
L 62.170679 264.351169 
L 65.949013 248.538182 
L 69.727348 248.538182 
L 73.505682 248.538182 
L 77.284016 232.725195 
L 81.06235 232.725195 
L 84.840684 232.725195 
L 88.619018 216.912208 
L 92.397352 216.912208 
L 96.175687 216.912208 
L 99.954021 216.912208 
L 103.732355 216.912208 
L 107.510689 201.099221 
L 111.289023 201.099221 
L 115.067357 201.099221 
L 118.845691 201.099221 
L 122.624026 201.099221 
L 126.40236 169.473247 
L 130.180694 169.473247 
L 133.959028 169.473247 
L 137.737362 169.473247 
L 141.515696 153.66026 
L 145.29403 153.66026 
L 149.072365 153.66026 
L 152.850699 153.66026 
L 156.629033 137.847273 
L 160.407367 122.034286 
L 164.185701 122.034286 
L 167.964035 122.034286 
L 171.742369 122.034286 
L 175.520704 122.034286 
L 179.299038 122.034286 
L 183.077372 122.034286 
L 186.855706 122.034286 
L 190.63404 122.034286 
L 194.412374 122.034286 
L 198.190708 122.034286 
L 201.969043 122.034286 
L 205.747377 122.034286 
L 209.525711 106.221299 
L 213.304045 106.221299 
L 217.082379 106.221299 
L 220.860713 106.221299 
L 224.639047 106.221299 
L 228.417382 106.221299 
L 232.195716 106.221299 
L 235.97405 106.221299 
L 239.752384 106.221299 
L 243.530718 106.221299 
L 247.309052 106.221299 
L 251.087386 106.221299 
L 254.86572 106.221299 
L 258.644055 106.221299 
L 262.422389 106.221299 
L 266.200723 106.221299 
L 269.979057 106.221299 
L 273.757391 106.221299 
L 277.535725 106.221299 
L 281.314059 106.221299 
L 285.092394 106.221299 
L 288.870728 106.221299 
L 292.649062 90.408312 
L 296.427396 90.408312 
L 300.20573 90.408312 
L 303.984064 90.408312 
L 307.762398 90.408312 
L 311.540733 90.408312 
L 315.319067 90.408312 
L 319.097401 90.408312 
L 322.875735 90.408312 
L 326.654069 90.408312 
L 330.432403 90.408312 
L 334.210737 90.408312 
L 337.989072 90.408312 
L 341.767406 90.408312 
L 345.54574 90.408312 
L 349.324074 90.408312 
L 353.102408 90.408312 
L 356.880742 90.408312 
L 360.659076 90.408312 
L 364.437411 90.408312 
L 368.215745 90.408312 
L 371.994079 90.408312 
L 375.772413 90.408312 
L 379.550747 90.408312 
L 383.329081 90.408312 
L 387.107415 90.408312 
L 390.88575 90.408312 
L 394.664084 90.408312 
L 398.442418 90.408312 
L 402.220752 58.782338 
L 405.999086 58.782338 
L 409.77742 58.782338 
L 413.555754 42.969351 
L 417.334088 42.969351 
L 421.112423 42.969351 
L 424.890757 42.969351 
L 428.669091 27.156364 
" style="fill:none;stroke:#d62728;stroke-linecap:square;stroke-width:1.5;"/>
   </g>
   <g id="line2d_27">
    <path clip-path="url(#pc48a6c241b)" d="M 54.60259 264.351169 
L 58.371191 248.538182 
L 62.139793 248.538182 
L 65.908395 232.725195 
L 69.676996 232.725195 
L 73.445598 232.725195 
L 77.214199 232.725195 
L 80.982801 216.912208 
L 84.751402 216.912208 
L 88.520004 216.912208 
L 92.288606 216.912208 
L 96.057207 216.912208 
L 99.825809 216.912208 
L 103.59441 216.912208 
L 107.363012 216.912208 
L 111.131613 201.099221 
L 114.900215 201.099221 
L 118.668816 201.099221 
L 122.437418 185.286234 
L 126.20602 153.66026 
L 129.974621 153.66026 
L 133.743223 153.66026 
L 137.511824 153.66026 
L 141.280426 153.66026 
L 145.049027 137.847273 
L 148.817629 137.847273 
L 152.586231 137.847273 
L 156.354832 137.847273 
L 160.123434 137.847273 
L 163.892035 137.847273 
L 167.660637 122.034286 
L 171.429238 122.034286 
L 175.19784 122.034286 
L 178.966441 122.034286 
L 182.735043 106.221299 
L 186.503645 106.221299 
L 190.272246 106.221299 
L 194.040848 106.221299 
L 197.809449 106.221299 
L 201.578051 90.408312 
L 205.346652 90.408312 
L 209.115254 90.408312 
L 212.883856 90.408312 
L 216.652457 90.408312 
L 220.421059 90.408312 
L 224.18966 90.408312 
L 227.958262 90.408312 
L 231.726863 90.408312 
L 235.495465 90.408312 
L 239.264067 90.408312 
L 243.032668 90.408312 
L 246.80127 90.408312 
L 250.569871 90.408312 
L 254.338473 90.408312 
L 258.107074 90.408312 
L 261.875676 90.408312 
L 265.644277 90.408312 
L 269.412879 90.408312 
L 273.181481 74.595325 
L 276.950082 74.595325 
L 280.718684 74.595325 
L 284.487285 74.595325 
L 288.255887 74.595325 
L 292.024488 74.595325 
L 295.79309 74.595325 
L 299.561692 74.595325 
L 303.330293 74.595325 
L 307.098895 74.595325 
L 310.867496 74.595325 
L 314.636098 74.595325 
L 318.404699 74.595325 
L 322.173301 74.595325 
L 325.941903 74.595325 
L 329.710504 74.595325 
L 333.479106 74.595325 
L 337.247707 74.595325 
L 341.016309 74.595325 
L 344.78491 74.595325 
L 348.553512 74.595325 
L 352.322113 74.595325 
L 356.090715 74.595325 
L 359.859317 74.595325 
L 363.627918 74.595325 
L 367.39652 74.595325 
L 371.165121 74.595325 
L 374.933723 74.595325 
L 378.702324 74.595325 
L 382.470926 74.595325 
L 386.239528 74.595325 
L 390.008129 74.595325 
L 393.776731 74.595325 
L 397.545332 74.595325 
L 401.313934 74.595325 
L 405.082535 42.969351 
L 408.851137 42.969351 
L 412.619738 42.969351 
L 416.38834 42.969351 
L 420.156942 42.969351 
L 423.925543 42.969351 
L 427.694145 27.156364 
" style="fill:none;stroke:#9467bd;stroke-linecap:square;stroke-width:1.5;"/>
   </g>
   <g id="patch_3">
    <path d="M 33.64 317.72 
L 33.64 13.32 
" style="fill:none;stroke:#000000;stroke-linecap:square;stroke-linejoin:miter;stroke-width:0.8;"/>
   </g>
   <g id="patch_4">
    <path d="M 447.48 317.72 
L 447.48 13.32 
" style="fill:none;stroke:#000000;stroke-linecap:square;stroke-linejoin:miter;stroke-width:0.8;"/>
   </g>
   <g id="patch_5">
    <path d="M 33.64 317.72 
L 447.48 317.72 
" style="fill:none;stroke:#000000;stroke-linecap:square;stroke-linejoin:miter;stroke-width:0.8;"/>
   </g>
   <g id="patch_6">
    <path d="M 33.64 13.32 
L 447.48 13.32 
" style="fill:none;stroke:#000000;stroke-linecap:square;stroke-linejoin:miter;stroke-width:0.8;"/>
   </g>
   <g id="legend_1">
    <g id="patch_7">
     <path d="M 339.458125 312.72 
L 440.48 312.72 
Q 442.48 312.72 442.48 310.72 
L 442.48 182.340312 
Q 442.48 180.340312 440.48 180.340312 
L 339.458125 180.340312 
Q 337.458125 180.340312 337.458125 182.340312 
L 337.458125 310.72 
Q 337.458125 312.72 339.458125 312.72 
z
" style="fill:#ffffff;opacity:0.8;stroke:#cccccc;stroke-linejoin:miter;"/>
    </g>
    <g id="line2d_28">
     <path d="M 341.458125 195.0775 
L 361.458125 195.0775 
" style="fill:none;stroke:#1f77b4;stroke-linecap:square;stroke-width:1.5;"/>
    </g>
    <g id="line2d_29"/>
    <g id="text_12">
     <!-- Baseline  -->
     <defs>
      <path d="M 19.671875 34.8125 
L 19.671875 8.109375 
L 35.5 8.109375 
Q 43.453125 8.109375 47.28125 11.40625 
Q 51.125 14.703125 51.125 21.484375 
Q 51.125 28.328125 47.28125 31.5625 
Q 43.453125 34.8125 35.5 34.8125 
z
M 19.671875 64.796875 
L 19.671875 42.828125 
L 34.28125 42.828125 
Q 41.5 42.828125 45.03125 45.53125 
Q 48.578125 48.25 48.578125 53.8125 
Q 48.578125 59.328125 45.03125 62.0625 
Q 41.5 64.796875 34.28125 64.796875 
z
M 9.8125 72.90625 
L 35.015625 72.90625 
Q 46.296875 72.90625 52.390625 68.21875 
Q 58.5 63.53125 58.5 54.890625 
Q 58.5 48.1875 55.375 44.234375 
Q 52.25 40.28125 46.1875 39.3125 
Q 53.46875 37.75 57.5 32.78125 
Q 61.53125 27.828125 61.53125 20.40625 
Q 61.53125 10.640625 54.890625 5.3125 
Q 48.25 0 35.984375 0 
L 9.8125 0 
z
" id="DejaVuSans-66"/>
      <path d="M 34.28125 27.484375 
Q 23.390625 27.484375 19.1875 25 
Q 14.984375 22.515625 14.984375 16.5 
Q 14.984375 11.71875 18.140625 8.90625 
Q 21.296875 6.109375 26.703125 6.109375 
Q 34.1875 6.109375 38.703125 11.40625 
Q 43.21875 16.703125 43.21875 25.484375 
L 43.21875 27.484375 
z
M 52.203125 31.203125 
L 52.203125 0 
L 43.21875 0 
L 43.21875 8.296875 
Q 40.140625 3.328125 35.546875 0.953125 
Q 30.953125 -1.421875 24.3125 -1.421875 
Q 15.921875 -1.421875 10.953125 3.296875 
Q 6 8.015625 6 15.921875 
Q 6 25.140625 12.171875 29.828125 
Q 18.359375 34.515625 30.609375 34.515625 
L 43.21875 34.515625 
L 43.21875 35.40625 
Q 43.21875 41.609375 39.140625 45 
Q 35.0625 48.390625 27.6875 48.390625 
Q 23 48.390625 18.546875 47.265625 
Q 14.109375 46.140625 10.015625 43.890625 
L 10.015625 52.203125 
Q 14.9375 54.109375 19.578125 55.046875 
Q 24.21875 56 28.609375 56 
Q 40.484375 56 46.34375 49.84375 
Q 52.203125 43.703125 52.203125 31.203125 
z
" id="DejaVuSans-97"/>
      <path d="M 44.28125 53.078125 
L 44.28125 44.578125 
Q 40.484375 46.53125 36.375 47.5 
Q 32.28125 48.484375 27.875 48.484375 
Q 21.1875 48.484375 17.84375 46.4375 
Q 14.5 44.390625 14.5 40.28125 
Q 14.5 37.15625 16.890625 35.375 
Q 19.28125 33.59375 26.515625 31.984375 
L 29.59375 31.296875 
Q 39.15625 29.25 43.1875 25.515625 
Q 47.21875 21.78125 47.21875 15.09375 
Q 47.21875 7.46875 41.1875 3.015625 
Q 35.15625 -1.421875 24.609375 -1.421875 
Q 20.21875 -1.421875 15.453125 -0.5625 
Q 10.6875 0.296875 5.421875 2 
L 5.421875 11.28125 
Q 10.40625 8.6875 15.234375 7.390625 
Q 20.0625 6.109375 24.8125 6.109375 
Q 31.15625 6.109375 34.5625 8.28125 
Q 37.984375 10.453125 37.984375 14.40625 
Q 37.984375 18.0625 35.515625 20.015625 
Q 33.0625 21.96875 24.703125 23.78125 
L 21.578125 24.515625 
Q 13.234375 26.265625 9.515625 29.90625 
Q 5.8125 33.546875 5.8125 39.890625 
Q 5.8125 47.609375 11.28125 51.796875 
Q 16.75 56 26.8125 56 
Q 31.78125 56 36.171875 55.265625 
Q 40.578125 54.546875 44.28125 53.078125 
z
" id="DejaVuSans-115"/>
      <path d="M 56.203125 29.59375 
L 56.203125 25.203125 
L 14.890625 25.203125 
Q 15.484375 15.921875 20.484375 11.0625 
Q 25.484375 6.203125 34.421875 6.203125 
Q 39.59375 6.203125 44.453125 7.46875 
Q 49.3125 8.734375 54.109375 11.28125 
L 54.109375 2.78125 
Q 49.265625 0.734375 44.1875 -0.34375 
Q 39.109375 -1.421875 33.890625 -1.421875 
Q 20.796875 -1.421875 13.15625 6.1875 
Q 5.515625 13.8125 5.515625 26.8125 
Q 5.515625 40.234375 12.765625 48.109375 
Q 20.015625 56 32.328125 56 
Q 43.359375 56 49.78125 48.890625 
Q 56.203125 41.796875 56.203125 29.59375 
z
M 47.21875 32.234375 
Q 47.125 39.59375 43.09375 43.984375 
Q 39.0625 48.390625 32.421875 48.390625 
Q 24.90625 48.390625 20.390625 44.140625 
Q 15.875 39.890625 15.1875 32.171875 
z
" id="DejaVuSans-101"/>
      <path d="M 9.421875 75.984375 
L 18.40625 75.984375 
L 18.40625 0 
L 9.421875 0 
z
" id="DejaVuSans-108"/>
      <path d="M 9.421875 54.6875 
L 18.40625 54.6875 
L 18.40625 0 
L 9.421875 0 
z
M 9.421875 75.984375 
L 18.40625 75.984375 
L 18.40625 64.59375 
L 9.421875 64.59375 
z
" id="DejaVuSans-105"/>
      <path d="M 54.890625 33.015625 
L 54.890625 0 
L 45.90625 0 
L 45.90625 32.71875 
Q 45.90625 40.484375 42.875 44.328125 
Q 39.84375 48.1875 33.796875 48.1875 
Q 26.515625 48.1875 22.3125 43.546875 
Q 18.109375 38.921875 18.109375 30.90625 
L 18.109375 0 
L 9.078125 0 
L 9.078125 54.6875 
L 18.109375 54.6875 
L 18.109375 46.1875 
Q 21.34375 51.125 25.703125 53.5625 
Q 30.078125 56 35.796875 56 
Q 45.21875 56 50.046875 50.171875 
Q 54.890625 44.34375 54.890625 33.015625 
z
" id="DejaVuSans-110"/>
      <path id="DejaVuSans-32"/>
     </defs>
     <g transform="translate(369.458125 191.93875)scale(0.1 -0.1)">
      <use xlink:href="#DejaVuSans-66"/>
      <use x="68.603516" xlink:href="#DejaVuSans-97"/>
      <use x="129.882812" xlink:href="#DejaVuSans-115"/>
      <use x="181.982422" xlink:href="#DejaVuSans-101"/>
      <use x="243.505859" xlink:href="#DejaVuSans-108"/>
      <use x="271.289062" xlink:href="#DejaVuSans-105"/>
      <use x="299.072266" xlink:href="#DejaVuSans-110"/>
      <use x="362.451172" xlink:href="#DejaVuSans-101"/>
      <use x="423.974609" xlink:href="#DejaVuSans-32"/>
     </g>
     <!-- Performance -->
     <defs>
      <path d="M 19.671875 64.796875 
L 19.671875 37.40625 
L 32.078125 37.40625 
Q 38.96875 37.40625 42.71875 40.96875 
Q 46.484375 44.53125 46.484375 51.125 
Q 46.484375 57.671875 42.71875 61.234375 
Q 38.96875 64.796875 32.078125 64.796875 
z
M 9.8125 72.90625 
L 32.078125 72.90625 
Q 44.34375 72.90625 50.609375 67.359375 
Q 56.890625 61.8125 56.890625 51.125 
Q 56.890625 40.328125 50.609375 34.8125 
Q 44.34375 29.296875 32.078125 29.296875 
L 19.671875 29.296875 
L 19.671875 0 
L 9.8125 0 
z
" id="DejaVuSans-80"/>
      <path d="M 41.109375 46.296875 
Q 39.59375 47.171875 37.8125 47.578125 
Q 36.03125 48 33.890625 48 
Q 26.265625 48 22.1875 43.046875 
Q 18.109375 38.09375 18.109375 28.8125 
L 18.109375 0 
L 9.078125 0 
L 9.078125 54.6875 
L 18.109375 54.6875 
L 18.109375 46.1875 
Q 20.953125 51.171875 25.484375 53.578125 
Q 30.03125 56 36.53125 56 
Q 37.453125 56 38.578125 55.875 
Q 39.703125 55.765625 41.0625 55.515625 
z
" id="DejaVuSans-114"/>
      <path d="M 37.109375 75.984375 
L 37.109375 68.5 
L 28.515625 68.5 
Q 23.6875 68.5 21.796875 66.546875 
Q 19.921875 64.59375 19.921875 59.515625 
L 19.921875 54.6875 
L 34.71875 54.6875 
L 34.71875 47.703125 
L 19.921875 47.703125 
L 19.921875 0 
L 10.890625 0 
L 10.890625 47.703125 
L 2.296875 47.703125 
L 2.296875 54.6875 
L 10.890625 54.6875 
L 10.890625 58.5 
Q 10.890625 67.625 15.140625 71.796875 
Q 19.390625 75.984375 28.609375 75.984375 
z
" id="DejaVuSans-102"/>
      <path d="M 30.609375 48.390625 
Q 23.390625 48.390625 19.1875 42.75 
Q 14.984375 37.109375 14.984375 27.296875 
Q 14.984375 17.484375 19.15625 11.84375 
Q 23.34375 6.203125 30.609375 6.203125 
Q 37.796875 6.203125 41.984375 11.859375 
Q 46.1875 17.53125 46.1875 27.296875 
Q 46.1875 37.015625 41.984375 42.703125 
Q 37.796875 48.390625 30.609375 48.390625 
z
M 30.609375 56 
Q 42.328125 56 49.015625 48.375 
Q 55.71875 40.765625 55.71875 27.296875 
Q 55.71875 13.875 49.015625 6.21875 
Q 42.328125 -1.421875 30.609375 -1.421875 
Q 18.84375 -1.421875 12.171875 6.21875 
Q 5.515625 13.875 5.515625 27.296875 
Q 5.515625 40.765625 12.171875 48.375 
Q 18.84375 56 30.609375 56 
z
" id="DejaVuSans-111"/>
      <path d="M 52 44.1875 
Q 55.375 50.25 60.0625 53.125 
Q 64.75 56 71.09375 56 
Q 79.640625 56 84.28125 50.015625 
Q 88.921875 44.046875 88.921875 33.015625 
L 88.921875 0 
L 79.890625 0 
L 79.890625 32.71875 
Q 79.890625 40.578125 77.09375 44.375 
Q 74.3125 48.1875 68.609375 48.1875 
Q 61.625 48.1875 57.5625 43.546875 
Q 53.515625 38.921875 53.515625 30.90625 
L 53.515625 0 
L 44.484375 0 
L 44.484375 32.71875 
Q 44.484375 40.625 41.703125 44.40625 
Q 38.921875 48.1875 33.109375 48.1875 
Q 26.21875 48.1875 22.15625 43.53125 
Q 18.109375 38.875 18.109375 30.90625 
L 18.109375 0 
L 9.078125 0 
L 9.078125 54.6875 
L 18.109375 54.6875 
L 18.109375 46.1875 
Q 21.1875 51.21875 25.484375 53.609375 
Q 29.78125 56 35.6875 56 
Q 41.65625 56 45.828125 52.96875 
Q 50 49.953125 52 44.1875 
z
" id="DejaVuSans-109"/>
      <path d="M 48.78125 52.59375 
L 48.78125 44.1875 
Q 44.96875 46.296875 41.140625 47.34375 
Q 37.3125 48.390625 33.40625 48.390625 
Q 24.65625 48.390625 19.8125 42.84375 
Q 14.984375 37.3125 14.984375 27.296875 
Q 14.984375 17.28125 19.8125 11.734375 
Q 24.65625 6.203125 33.40625 6.203125 
Q 37.3125 6.203125 41.140625 7.25 
Q 44.96875 8.296875 48.78125 10.40625 
L 48.78125 2.09375 
Q 45.015625 0.34375 40.984375 -0.53125 
Q 36.96875 -1.421875 32.421875 -1.421875 
Q 20.0625 -1.421875 12.78125 6.34375 
Q 5.515625 14.109375 5.515625 27.296875 
Q 5.515625 40.671875 12.859375 48.328125 
Q 20.21875 56 33.015625 56 
Q 37.15625 56 41.109375 55.140625 
Q 45.0625 54.296875 48.78125 52.59375 
z
" id="DejaVuSans-99"/>
     </defs>
     <g transform="translate(369.458125 203.136562)scale(0.1 -0.1)">
      <use xlink:href="#DejaVuSans-80"/>
      <use x="60.255859" xlink:href="#DejaVuSans-101"/>
      <use x="121.779297" xlink:href="#DejaVuSans-114"/>
      <use x="162.892578" xlink:href="#DejaVuSans-102"/>
      <use x="198.097656" xlink:href="#DejaVuSans-111"/>
      <use x="259.279297" xlink:href="#DejaVuSans-114"/>
      <use x="300.376953" xlink:href="#DejaVuSans-109"/>
      <use x="397.789062" xlink:href="#DejaVuSans-97"/>
      <use x="459.068359" xlink:href="#DejaVuSans-110"/>
      <use x="522.447266" xlink:href="#DejaVuSans-99"/>
      <use x="577.427734" xlink:href="#DejaVuSans-101"/>
     </g>
    </g>
    <g id="line2d_30">
     <path d="M 341.458125 220.953437 
L 361.458125 220.953437 
" style="fill:none;stroke:#ff7f0e;stroke-linecap:square;stroke-width:1.5;"/>
    </g>
    <g id="line2d_31"/>
    <g id="text_13">
     <!-- Memory limit  -->
     <defs>
      <path d="M 9.8125 72.90625 
L 24.515625 72.90625 
L 43.109375 23.296875 
L 61.8125 72.90625 
L 76.515625 72.90625 
L 76.515625 0 
L 66.890625 0 
L 66.890625 64.015625 
L 48.09375 14.015625 
L 38.1875 14.015625 
L 19.390625 64.015625 
L 19.390625 0 
L 9.8125 0 
z
" id="DejaVuSans-77"/>
      <path d="M 32.171875 -5.078125 
Q 28.375 -14.84375 24.75 -17.8125 
Q 21.140625 -20.796875 15.09375 -20.796875 
L 7.90625 -20.796875 
L 7.90625 -13.28125 
L 13.1875 -13.28125 
Q 16.890625 -13.28125 18.9375 -11.515625 
Q 21 -9.765625 23.484375 -3.21875 
L 25.09375 0.875 
L 2.984375 54.6875 
L 12.5 54.6875 
L 29.59375 11.921875 
L 46.6875 54.6875 
L 56.203125 54.6875 
z
" id="DejaVuSans-121"/>
      <path d="M 18.3125 70.21875 
L 18.3125 54.6875 
L 36.8125 54.6875 
L 36.8125 47.703125 
L 18.3125 47.703125 
L 18.3125 18.015625 
Q 18.3125 11.328125 20.140625 9.421875 
Q 21.96875 7.515625 27.59375 7.515625 
L 36.8125 7.515625 
L 36.8125 0 
L 27.59375 0 
Q 17.1875 0 13.234375 3.875 
Q 9.28125 7.765625 9.28125 18.015625 
L 9.28125 47.703125 
L 2.6875 47.703125 
L 2.6875 54.6875 
L 9.28125 54.6875 
L 9.28125 70.21875 
z
" id="DejaVuSans-116"/>
     </defs>
     <g transform="translate(369.458125 217.814687)scale(0.1 -0.1)">
      <use xlink:href="#DejaVuSans-77"/>
      <use x="86.279297" xlink:href="#DejaVuSans-101"/>
      <use x="147.802734" xlink:href="#DejaVuSans-109"/>
      <use x="245.214844" xlink:href="#DejaVuSans-111"/>
      <use x="306.396484" xlink:href="#DejaVuSans-114"/>
      <use x="347.509766" xlink:href="#DejaVuSans-121"/>
      <use x="406.689453" xlink:href="#DejaVuSans-32"/>
      <use x="438.476562" xlink:href="#DejaVuSans-108"/>
      <use x="466.259766" xlink:href="#DejaVuSans-105"/>
      <use x="494.042969" xlink:href="#DejaVuSans-109"/>
      <use x="591.455078" xlink:href="#DejaVuSans-105"/>
      <use x="619.238281" xlink:href="#DejaVuSans-116"/>
      <use x="658.447266" xlink:href="#DejaVuSans-32"/>
     </g>
     <!-- at 1mb -->
     <defs>
      <path d="M 48.6875 27.296875 
Q 48.6875 37.203125 44.609375 42.84375 
Q 40.53125 48.484375 33.40625 48.484375 
Q 26.265625 48.484375 22.1875 42.84375 
Q 18.109375 37.203125 18.109375 27.296875 
Q 18.109375 17.390625 22.1875 11.75 
Q 26.265625 6.109375 33.40625 6.109375 
Q 40.53125 6.109375 44.609375 11.75 
Q 48.6875 17.390625 48.6875 27.296875 
z
M 18.109375 46.390625 
Q 20.953125 51.265625 25.265625 53.625 
Q 29.59375 56 35.59375 56 
Q 45.5625 56 51.78125 48.09375 
Q 58.015625 40.1875 58.015625 27.296875 
Q 58.015625 14.40625 51.78125 6.484375 
Q 45.5625 -1.421875 35.59375 -1.421875 
Q 29.59375 -1.421875 25.265625 0.953125 
Q 20.953125 3.328125 18.109375 8.203125 
L 18.109375 0 
L 9.078125 0 
L 9.078125 75.984375 
L 18.109375 75.984375 
z
" id="DejaVuSans-98"/>
     </defs>
     <g transform="translate(369.458125 229.0125)scale(0.1 -0.1)">
      <use xlink:href="#DejaVuSans-97"/>
      <use x="61.279297" xlink:href="#DejaVuSans-116"/>
      <use x="100.488281" xlink:href="#DejaVuSans-32"/>
      <use x="132.275391" xlink:href="#DejaVuSans-49"/>
      <use x="195.898438" xlink:href="#DejaVuSans-109"/>
      <use x="293.310547" xlink:href="#DejaVuSans-98"/>
     </g>
    </g>
    <g id="line2d_32">
     <path d="M 341.458125 246.829375 
L 361.458125 246.829375 
" style="fill:none;stroke:#2ca02c;stroke-linecap:square;stroke-width:1.5;"/>
    </g>
    <g id="line2d_33"/>
    <g id="text_14">
     <!-- Memory limit  -->
     <g transform="translate(369.458125 243.690625)scale(0.1 -0.1)">
      <use xlink:href="#DejaVuSans-77"/>
      <use x="86.279297" xlink:href="#DejaVuSans-101"/>
      <use x="147.802734" xlink:href="#DejaVuSans-109"/>
      <use x="245.214844" xlink:href="#DejaVuSans-111"/>
      <use x="306.396484" xlink:href="#DejaVuSans-114"/>
      <use x="347.509766" xlink:href="#DejaVuSans-121"/>
      <use x="406.689453" xlink:href="#DejaVuSans-32"/>
      <use x="438.476562" xlink:href="#DejaVuSans-108"/>
      <use x="466.259766" xlink:href="#DejaVuSans-105"/>
      <use x="494.042969" xlink:href="#DejaVuSans-109"/>
      <use x="591.455078" xlink:href="#DejaVuSans-105"/>
      <use x="619.238281" xlink:href="#DejaVuSans-116"/>
      <use x="658.447266" xlink:href="#DejaVuSans-32"/>
     </g>
     <!-- at 5mb -->
     <g transform="translate(369.458125 254.888437)scale(0.1 -0.1)">
      <use xlink:href="#DejaVuSans-97"/>
      <use x="61.279297" xlink:href="#DejaVuSans-116"/>
      <use x="100.488281" xlink:href="#DejaVuSans-32"/>
      <use x="132.275391" xlink:href="#DejaVuSans-53"/>
      <use x="195.898438" xlink:href="#DejaVuSans-109"/>
      <use x="293.310547" xlink:href="#DejaVuSans-98"/>
     </g>
    </g>
    <g id="line2d_34">
     <path d="M 341.458125 272.705312 
L 361.458125 272.705312 
" style="fill:none;stroke:#d62728;stroke-linecap:square;stroke-width:1.5;"/>
    </g>
    <g id="line2d_35"/>
    <g id="text_15">
     <!-- Memory limit  -->
     <g transform="translate(369.458125 269.566562)scale(0.1 -0.1)">
      <use xlink:href="#DejaVuSans-77"/>
      <use x="86.279297" xlink:href="#DejaVuSans-101"/>
      <use x="147.802734" xlink:href="#DejaVuSans-109"/>
      <use x="245.214844" xlink:href="#DejaVuSans-111"/>
      <use x="306.396484" xlink:href="#DejaVuSans-114"/>
      <use x="347.509766" xlink:href="#DejaVuSans-121"/>
      <use x="406.689453" xlink:href="#DejaVuSans-32"/>
      <use x="438.476562" xlink:href="#DejaVuSans-108"/>
      <use x="466.259766" xlink:href="#DejaVuSans-105"/>
      <use x="494.042969" xlink:href="#DejaVuSans-109"/>
      <use x="591.455078" xlink:href="#DejaVuSans-105"/>
      <use x="619.238281" xlink:href="#DejaVuSans-116"/>
      <use x="658.447266" xlink:href="#DejaVuSans-32"/>
     </g>
     <!-- at 10mb -->
     <g transform="translate(369.458125 280.764375)scale(0.1 -0.1)">
      <use xlink:href="#DejaVuSans-97"/>
      <use x="61.279297" xlink:href="#DejaVuSans-116"/>
      <use x="100.488281" xlink:href="#DejaVuSans-32"/>
      <use x="132.275391" xlink:href="#DejaVuSans-49"/>
      <use x="195.898438" xlink:href="#DejaVuSans-48"/>
      <use x="259.521484" xlink:href="#DejaVuSans-109"/>
      <use x="356.933594" xlink:href="#DejaVuSans-98"/>
     </g>
    </g>
    <g id="line2d_36">
     <path d="M 341.458125 298.58125 
L 361.458125 298.58125 
" style="fill:none;stroke:#9467bd;stroke-linecap:square;stroke-width:1.5;"/>
    </g>
    <g id="line2d_37"/>
    <g id="text_16">
     <!-- Memory limit  -->
     <g transform="translate(369.458125 295.4425)scale(0.1 -0.1)">
      <use xlink:href="#DejaVuSans-77"/>
      <use x="86.279297" xlink:href="#DejaVuSans-101"/>
      <use x="147.802734" xlink:href="#DejaVuSans-109"/>
      <use x="245.214844" xlink:href="#DejaVuSans-111"/>
      <use x="306.396484" xlink:href="#DejaVuSans-114"/>
      <use x="347.509766" xlink:href="#DejaVuSans-121"/>
      <use x="406.689453" xlink:href="#DejaVuSans-32"/>
      <use x="438.476562" xlink:href="#DejaVuSans-108"/>
      <use x="466.259766" xlink:href="#DejaVuSans-105"/>
      <use x="494.042969" xlink:href="#DejaVuSans-109"/>
      <use x="591.455078" xlink:href="#DejaVuSans-105"/>
      <use x="619.238281" xlink:href="#DejaVuSans-116"/>
      <use x="658.447266" xlink:href="#DejaVuSans-32"/>
     </g>
     <!-- at 15mb -->
     <g transform="translate(369.458125 306.640312)scale(0.1 -0.1)">
      <use xlink:href="#DejaVuSans-97"/>
      <use x="61.279297" xlink:href="#DejaVuSans-116"/>
      <use x="100.488281" xlink:href="#DejaVuSans-32"/>
      <use x="132.275391" xlink:href="#DejaVuSans-49"/>
      <use x="195.898438" xlink:href="#DejaVuSans-53"/>
      <use x="259.521484" xlink:href="#DejaVuSans-109"/>
      <use x="356.933594" xlink:href="#DejaVuSans-98"/>
     </g>
    </g>
   </g>
  </g>
 </g>
 <defs>
  <clipPath id="pc48a6c241b">
   <rect height="304.4" width="413.84" x="33.64" y="13.32"/>
  </clipPath>
 </defs>
</svg>
